%TF.GenerationSoftware,KiCad,Pcbnew,8.0.5*%
%TF.CreationDate,2024-11-23T08:17:22+09:00*%
%TF.ProjectId,mouse_v1,6d6f7573-655f-4763-912e-6b696361645f,rev?*%
%TF.SameCoordinates,Original*%
%TF.FileFunction,Legend,Top*%
%TF.FilePolarity,Positive*%
%FSLAX46Y46*%
G04 Gerber Fmt 4.6, Leading zero omitted, Abs format (unit mm)*
G04 Created by KiCad (PCBNEW 8.0.5) date 2024-11-23 08:17:22*
%MOMM*%
%LPD*%
G01*
G04 APERTURE LIST*
%ADD10C,0.100000*%
%ADD11C,0.125000*%
%ADD12C,0.150000*%
%ADD13C,0.254000*%
%ADD14C,0.120000*%
%ADD15C,0.200000*%
%ADD16C,0.600000*%
%ADD17C,0.127000*%
G04 APERTURE END LIST*
D10*
X106959122Y-74752466D02*
X106892455Y-74719133D01*
X106892455Y-74719133D02*
X106792455Y-74719133D01*
X106792455Y-74719133D02*
X106692455Y-74752466D01*
X106692455Y-74752466D02*
X106625789Y-74819133D01*
X106625789Y-74819133D02*
X106592455Y-74885800D01*
X106592455Y-74885800D02*
X106559122Y-75019133D01*
X106559122Y-75019133D02*
X106559122Y-75119133D01*
X106559122Y-75119133D02*
X106592455Y-75252466D01*
X106592455Y-75252466D02*
X106625789Y-75319133D01*
X106625789Y-75319133D02*
X106692455Y-75385800D01*
X106692455Y-75385800D02*
X106792455Y-75419133D01*
X106792455Y-75419133D02*
X106859122Y-75419133D01*
X106859122Y-75419133D02*
X106959122Y-75385800D01*
X106959122Y-75385800D02*
X106992455Y-75352466D01*
X106992455Y-75352466D02*
X106992455Y-75119133D01*
X106992455Y-75119133D02*
X106859122Y-75119133D01*
X107292455Y-75419133D02*
X107292455Y-74719133D01*
X107292455Y-74719133D02*
X107692455Y-75419133D01*
X107692455Y-75419133D02*
X107692455Y-74719133D01*
X108025788Y-75419133D02*
X108025788Y-74719133D01*
X108025788Y-74719133D02*
X108192455Y-74719133D01*
X108192455Y-74719133D02*
X108292455Y-74752466D01*
X108292455Y-74752466D02*
X108359122Y-74819133D01*
X108359122Y-74819133D02*
X108392455Y-74885800D01*
X108392455Y-74885800D02*
X108425788Y-75019133D01*
X108425788Y-75019133D02*
X108425788Y-75119133D01*
X108425788Y-75119133D02*
X108392455Y-75252466D01*
X108392455Y-75252466D02*
X108359122Y-75319133D01*
X108359122Y-75319133D02*
X108292455Y-75385800D01*
X108292455Y-75385800D02*
X108192455Y-75419133D01*
X108192455Y-75419133D02*
X108025788Y-75419133D01*
D11*
X95733188Y-75256119D02*
X95685569Y-75232309D01*
X95685569Y-75232309D02*
X95614140Y-75232309D01*
X95614140Y-75232309D02*
X95542712Y-75256119D01*
X95542712Y-75256119D02*
X95495093Y-75303738D01*
X95495093Y-75303738D02*
X95471283Y-75351357D01*
X95471283Y-75351357D02*
X95447474Y-75446595D01*
X95447474Y-75446595D02*
X95447474Y-75518023D01*
X95447474Y-75518023D02*
X95471283Y-75613261D01*
X95471283Y-75613261D02*
X95495093Y-75660880D01*
X95495093Y-75660880D02*
X95542712Y-75708500D01*
X95542712Y-75708500D02*
X95614140Y-75732309D01*
X95614140Y-75732309D02*
X95661759Y-75732309D01*
X95661759Y-75732309D02*
X95733188Y-75708500D01*
X95733188Y-75708500D02*
X95756997Y-75684690D01*
X95756997Y-75684690D02*
X95756997Y-75518023D01*
X95756997Y-75518023D02*
X95661759Y-75518023D01*
X95971283Y-75732309D02*
X95971283Y-75232309D01*
X95971283Y-75232309D02*
X96256997Y-75732309D01*
X96256997Y-75732309D02*
X96256997Y-75232309D01*
X96495093Y-75732309D02*
X96495093Y-75232309D01*
X96495093Y-75232309D02*
X96614141Y-75232309D01*
X96614141Y-75232309D02*
X96685569Y-75256119D01*
X96685569Y-75256119D02*
X96733188Y-75303738D01*
X96733188Y-75303738D02*
X96756998Y-75351357D01*
X96756998Y-75351357D02*
X96780807Y-75446595D01*
X96780807Y-75446595D02*
X96780807Y-75518023D01*
X96780807Y-75518023D02*
X96756998Y-75613261D01*
X96756998Y-75613261D02*
X96733188Y-75660880D01*
X96733188Y-75660880D02*
X96685569Y-75708500D01*
X96685569Y-75708500D02*
X96614141Y-75732309D01*
X96614141Y-75732309D02*
X96495093Y-75732309D01*
X74443664Y-81392309D02*
X74753188Y-81392309D01*
X74753188Y-81392309D02*
X74586521Y-81582785D01*
X74586521Y-81582785D02*
X74657950Y-81582785D01*
X74657950Y-81582785D02*
X74705569Y-81606595D01*
X74705569Y-81606595D02*
X74729378Y-81630404D01*
X74729378Y-81630404D02*
X74753188Y-81678023D01*
X74753188Y-81678023D02*
X74753188Y-81797071D01*
X74753188Y-81797071D02*
X74729378Y-81844690D01*
X74729378Y-81844690D02*
X74705569Y-81868500D01*
X74705569Y-81868500D02*
X74657950Y-81892309D01*
X74657950Y-81892309D02*
X74515093Y-81892309D01*
X74515093Y-81892309D02*
X74467474Y-81868500D01*
X74467474Y-81868500D02*
X74443664Y-81844690D01*
X74967473Y-81844690D02*
X74991283Y-81868500D01*
X74991283Y-81868500D02*
X74967473Y-81892309D01*
X74967473Y-81892309D02*
X74943664Y-81868500D01*
X74943664Y-81868500D02*
X74967473Y-81844690D01*
X74967473Y-81844690D02*
X74967473Y-81892309D01*
X75157949Y-81392309D02*
X75467473Y-81392309D01*
X75467473Y-81392309D02*
X75300806Y-81582785D01*
X75300806Y-81582785D02*
X75372235Y-81582785D01*
X75372235Y-81582785D02*
X75419854Y-81606595D01*
X75419854Y-81606595D02*
X75443663Y-81630404D01*
X75443663Y-81630404D02*
X75467473Y-81678023D01*
X75467473Y-81678023D02*
X75467473Y-81797071D01*
X75467473Y-81797071D02*
X75443663Y-81844690D01*
X75443663Y-81844690D02*
X75419854Y-81868500D01*
X75419854Y-81868500D02*
X75372235Y-81892309D01*
X75372235Y-81892309D02*
X75229378Y-81892309D01*
X75229378Y-81892309D02*
X75181759Y-81868500D01*
X75181759Y-81868500D02*
X75157949Y-81844690D01*
X75610330Y-81392309D02*
X75776996Y-81892309D01*
X75776996Y-81892309D02*
X75943663Y-81392309D01*
X135203664Y-84662309D02*
X135513188Y-84662309D01*
X135513188Y-84662309D02*
X135346521Y-84852785D01*
X135346521Y-84852785D02*
X135417950Y-84852785D01*
X135417950Y-84852785D02*
X135465569Y-84876595D01*
X135465569Y-84876595D02*
X135489378Y-84900404D01*
X135489378Y-84900404D02*
X135513188Y-84948023D01*
X135513188Y-84948023D02*
X135513188Y-85067071D01*
X135513188Y-85067071D02*
X135489378Y-85114690D01*
X135489378Y-85114690D02*
X135465569Y-85138500D01*
X135465569Y-85138500D02*
X135417950Y-85162309D01*
X135417950Y-85162309D02*
X135275093Y-85162309D01*
X135275093Y-85162309D02*
X135227474Y-85138500D01*
X135227474Y-85138500D02*
X135203664Y-85114690D01*
X135727473Y-85114690D02*
X135751283Y-85138500D01*
X135751283Y-85138500D02*
X135727473Y-85162309D01*
X135727473Y-85162309D02*
X135703664Y-85138500D01*
X135703664Y-85138500D02*
X135727473Y-85114690D01*
X135727473Y-85114690D02*
X135727473Y-85162309D01*
X135917949Y-84662309D02*
X136227473Y-84662309D01*
X136227473Y-84662309D02*
X136060806Y-84852785D01*
X136060806Y-84852785D02*
X136132235Y-84852785D01*
X136132235Y-84852785D02*
X136179854Y-84876595D01*
X136179854Y-84876595D02*
X136203663Y-84900404D01*
X136203663Y-84900404D02*
X136227473Y-84948023D01*
X136227473Y-84948023D02*
X136227473Y-85067071D01*
X136227473Y-85067071D02*
X136203663Y-85114690D01*
X136203663Y-85114690D02*
X136179854Y-85138500D01*
X136179854Y-85138500D02*
X136132235Y-85162309D01*
X136132235Y-85162309D02*
X135989378Y-85162309D01*
X135989378Y-85162309D02*
X135941759Y-85138500D01*
X135941759Y-85138500D02*
X135917949Y-85114690D01*
X136370330Y-84662309D02*
X136536996Y-85162309D01*
X136536996Y-85162309D02*
X136703663Y-84662309D01*
D12*
X120094761Y-129690057D02*
X119999523Y-129642438D01*
X119999523Y-129642438D02*
X119904285Y-129547200D01*
X119904285Y-129547200D02*
X119761428Y-129404342D01*
X119761428Y-129404342D02*
X119666190Y-129356723D01*
X119666190Y-129356723D02*
X119570952Y-129356723D01*
X119618571Y-129594819D02*
X119523333Y-129547200D01*
X119523333Y-129547200D02*
X119428095Y-129451961D01*
X119428095Y-129451961D02*
X119380476Y-129261485D01*
X119380476Y-129261485D02*
X119380476Y-128928152D01*
X119380476Y-128928152D02*
X119428095Y-128737676D01*
X119428095Y-128737676D02*
X119523333Y-128642438D01*
X119523333Y-128642438D02*
X119618571Y-128594819D01*
X119618571Y-128594819D02*
X119809047Y-128594819D01*
X119809047Y-128594819D02*
X119904285Y-128642438D01*
X119904285Y-128642438D02*
X119999523Y-128737676D01*
X119999523Y-128737676D02*
X120047142Y-128928152D01*
X120047142Y-128928152D02*
X120047142Y-129261485D01*
X120047142Y-129261485D02*
X119999523Y-129451961D01*
X119999523Y-129451961D02*
X119904285Y-129547200D01*
X119904285Y-129547200D02*
X119809047Y-129594819D01*
X119809047Y-129594819D02*
X119618571Y-129594819D01*
X120523333Y-129594819D02*
X120713809Y-129594819D01*
X120713809Y-129594819D02*
X120809047Y-129547200D01*
X120809047Y-129547200D02*
X120856666Y-129499580D01*
X120856666Y-129499580D02*
X120951904Y-129356723D01*
X120951904Y-129356723D02*
X120999523Y-129166247D01*
X120999523Y-129166247D02*
X120999523Y-128785295D01*
X120999523Y-128785295D02*
X120951904Y-128690057D01*
X120951904Y-128690057D02*
X120904285Y-128642438D01*
X120904285Y-128642438D02*
X120809047Y-128594819D01*
X120809047Y-128594819D02*
X120618571Y-128594819D01*
X120618571Y-128594819D02*
X120523333Y-128642438D01*
X120523333Y-128642438D02*
X120475714Y-128690057D01*
X120475714Y-128690057D02*
X120428095Y-128785295D01*
X120428095Y-128785295D02*
X120428095Y-129023390D01*
X120428095Y-129023390D02*
X120475714Y-129118628D01*
X120475714Y-129118628D02*
X120523333Y-129166247D01*
X120523333Y-129166247D02*
X120618571Y-129213866D01*
X120618571Y-129213866D02*
X120809047Y-129213866D01*
X120809047Y-129213866D02*
X120904285Y-129166247D01*
X120904285Y-129166247D02*
X120951904Y-129118628D01*
X120951904Y-129118628D02*
X120999523Y-129023390D01*
X139947142Y-77999580D02*
X139899523Y-78047200D01*
X139899523Y-78047200D02*
X139756666Y-78094819D01*
X139756666Y-78094819D02*
X139661428Y-78094819D01*
X139661428Y-78094819D02*
X139518571Y-78047200D01*
X139518571Y-78047200D02*
X139423333Y-77951961D01*
X139423333Y-77951961D02*
X139375714Y-77856723D01*
X139375714Y-77856723D02*
X139328095Y-77666247D01*
X139328095Y-77666247D02*
X139328095Y-77523390D01*
X139328095Y-77523390D02*
X139375714Y-77332914D01*
X139375714Y-77332914D02*
X139423333Y-77237676D01*
X139423333Y-77237676D02*
X139518571Y-77142438D01*
X139518571Y-77142438D02*
X139661428Y-77094819D01*
X139661428Y-77094819D02*
X139756666Y-77094819D01*
X139756666Y-77094819D02*
X139899523Y-77142438D01*
X139899523Y-77142438D02*
X139947142Y-77190057D01*
X140899523Y-78094819D02*
X140328095Y-78094819D01*
X140613809Y-78094819D02*
X140613809Y-77094819D01*
X140613809Y-77094819D02*
X140518571Y-77237676D01*
X140518571Y-77237676D02*
X140423333Y-77332914D01*
X140423333Y-77332914D02*
X140328095Y-77380533D01*
X141851904Y-78094819D02*
X141280476Y-78094819D01*
X141566190Y-78094819D02*
X141566190Y-77094819D01*
X141566190Y-77094819D02*
X141470952Y-77237676D01*
X141470952Y-77237676D02*
X141375714Y-77332914D01*
X141375714Y-77332914D02*
X141280476Y-77380533D01*
D13*
X114166905Y-146844318D02*
X114590238Y-148114318D01*
X114590238Y-148114318D02*
X115013572Y-146844318D01*
X116162619Y-148114318D02*
X115739285Y-147509556D01*
X115436904Y-148114318D02*
X115436904Y-146844318D01*
X115436904Y-146844318D02*
X115920714Y-146844318D01*
X115920714Y-146844318D02*
X116041666Y-146904794D01*
X116041666Y-146904794D02*
X116102143Y-146965270D01*
X116102143Y-146965270D02*
X116162619Y-147086222D01*
X116162619Y-147086222D02*
X116162619Y-147267651D01*
X116162619Y-147267651D02*
X116102143Y-147388603D01*
X116102143Y-147388603D02*
X116041666Y-147449080D01*
X116041666Y-147449080D02*
X115920714Y-147509556D01*
X115920714Y-147509556D02*
X115436904Y-147509556D01*
X117372143Y-148114318D02*
X116646428Y-148114318D01*
X117009285Y-148114318D02*
X117009285Y-146844318D01*
X117009285Y-146844318D02*
X116888333Y-147025746D01*
X116888333Y-147025746D02*
X116767381Y-147146699D01*
X116767381Y-147146699D02*
X116646428Y-147207175D01*
X111035270Y-148260952D02*
X110974794Y-148381904D01*
X110974794Y-148381904D02*
X110853842Y-148502857D01*
X110853842Y-148502857D02*
X110672413Y-148684285D01*
X110672413Y-148684285D02*
X110611937Y-148805238D01*
X110611937Y-148805238D02*
X110611937Y-148926190D01*
X110914318Y-148865714D02*
X110853842Y-148986666D01*
X110853842Y-148986666D02*
X110732889Y-149107619D01*
X110732889Y-149107619D02*
X110490984Y-149168095D01*
X110490984Y-149168095D02*
X110067651Y-149168095D01*
X110067651Y-149168095D02*
X109825746Y-149107619D01*
X109825746Y-149107619D02*
X109704794Y-148986666D01*
X109704794Y-148986666D02*
X109644318Y-148865714D01*
X109644318Y-148865714D02*
X109644318Y-148623809D01*
X109644318Y-148623809D02*
X109704794Y-148502857D01*
X109704794Y-148502857D02*
X109825746Y-148381904D01*
X109825746Y-148381904D02*
X110067651Y-148321428D01*
X110067651Y-148321428D02*
X110490984Y-148321428D01*
X110490984Y-148321428D02*
X110732889Y-148381904D01*
X110732889Y-148381904D02*
X110853842Y-148502857D01*
X110853842Y-148502857D02*
X110914318Y-148623809D01*
X110914318Y-148623809D02*
X110914318Y-148865714D01*
X109644318Y-147898095D02*
X109644318Y-147111904D01*
X109644318Y-147111904D02*
X110128127Y-147535238D01*
X110128127Y-147535238D02*
X110128127Y-147353809D01*
X110128127Y-147353809D02*
X110188603Y-147232857D01*
X110188603Y-147232857D02*
X110249080Y-147172381D01*
X110249080Y-147172381D02*
X110370032Y-147111904D01*
X110370032Y-147111904D02*
X110672413Y-147111904D01*
X110672413Y-147111904D02*
X110793365Y-147172381D01*
X110793365Y-147172381D02*
X110853842Y-147232857D01*
X110853842Y-147232857D02*
X110914318Y-147353809D01*
X110914318Y-147353809D02*
X110914318Y-147716666D01*
X110914318Y-147716666D02*
X110853842Y-147837619D01*
X110853842Y-147837619D02*
X110793365Y-147898095D01*
D12*
X83197142Y-91424819D02*
X82863809Y-90948628D01*
X82625714Y-91424819D02*
X82625714Y-90424819D01*
X82625714Y-90424819D02*
X83006666Y-90424819D01*
X83006666Y-90424819D02*
X83101904Y-90472438D01*
X83101904Y-90472438D02*
X83149523Y-90520057D01*
X83149523Y-90520057D02*
X83197142Y-90615295D01*
X83197142Y-90615295D02*
X83197142Y-90758152D01*
X83197142Y-90758152D02*
X83149523Y-90853390D01*
X83149523Y-90853390D02*
X83101904Y-90901009D01*
X83101904Y-90901009D02*
X83006666Y-90948628D01*
X83006666Y-90948628D02*
X82625714Y-90948628D01*
X84149523Y-91424819D02*
X83578095Y-91424819D01*
X83863809Y-91424819D02*
X83863809Y-90424819D01*
X83863809Y-90424819D02*
X83768571Y-90567676D01*
X83768571Y-90567676D02*
X83673333Y-90662914D01*
X83673333Y-90662914D02*
X83578095Y-90710533D01*
X85006666Y-90758152D02*
X85006666Y-91424819D01*
X84768571Y-90377200D02*
X84530476Y-91091485D01*
X84530476Y-91091485D02*
X85149523Y-91091485D01*
X126673333Y-77924819D02*
X126340000Y-77448628D01*
X126101905Y-77924819D02*
X126101905Y-76924819D01*
X126101905Y-76924819D02*
X126482857Y-76924819D01*
X126482857Y-76924819D02*
X126578095Y-76972438D01*
X126578095Y-76972438D02*
X126625714Y-77020057D01*
X126625714Y-77020057D02*
X126673333Y-77115295D01*
X126673333Y-77115295D02*
X126673333Y-77258152D01*
X126673333Y-77258152D02*
X126625714Y-77353390D01*
X126625714Y-77353390D02*
X126578095Y-77401009D01*
X126578095Y-77401009D02*
X126482857Y-77448628D01*
X126482857Y-77448628D02*
X126101905Y-77448628D01*
X127244762Y-77353390D02*
X127149524Y-77305771D01*
X127149524Y-77305771D02*
X127101905Y-77258152D01*
X127101905Y-77258152D02*
X127054286Y-77162914D01*
X127054286Y-77162914D02*
X127054286Y-77115295D01*
X127054286Y-77115295D02*
X127101905Y-77020057D01*
X127101905Y-77020057D02*
X127149524Y-76972438D01*
X127149524Y-76972438D02*
X127244762Y-76924819D01*
X127244762Y-76924819D02*
X127435238Y-76924819D01*
X127435238Y-76924819D02*
X127530476Y-76972438D01*
X127530476Y-76972438D02*
X127578095Y-77020057D01*
X127578095Y-77020057D02*
X127625714Y-77115295D01*
X127625714Y-77115295D02*
X127625714Y-77162914D01*
X127625714Y-77162914D02*
X127578095Y-77258152D01*
X127578095Y-77258152D02*
X127530476Y-77305771D01*
X127530476Y-77305771D02*
X127435238Y-77353390D01*
X127435238Y-77353390D02*
X127244762Y-77353390D01*
X127244762Y-77353390D02*
X127149524Y-77401009D01*
X127149524Y-77401009D02*
X127101905Y-77448628D01*
X127101905Y-77448628D02*
X127054286Y-77543866D01*
X127054286Y-77543866D02*
X127054286Y-77734342D01*
X127054286Y-77734342D02*
X127101905Y-77829580D01*
X127101905Y-77829580D02*
X127149524Y-77877200D01*
X127149524Y-77877200D02*
X127244762Y-77924819D01*
X127244762Y-77924819D02*
X127435238Y-77924819D01*
X127435238Y-77924819D02*
X127530476Y-77877200D01*
X127530476Y-77877200D02*
X127578095Y-77829580D01*
X127578095Y-77829580D02*
X127625714Y-77734342D01*
X127625714Y-77734342D02*
X127625714Y-77543866D01*
X127625714Y-77543866D02*
X127578095Y-77448628D01*
X127578095Y-77448628D02*
X127530476Y-77401009D01*
X127530476Y-77401009D02*
X127435238Y-77353390D01*
X86696667Y-153867200D02*
X86839524Y-153914819D01*
X86839524Y-153914819D02*
X87077619Y-153914819D01*
X87077619Y-153914819D02*
X87172857Y-153867200D01*
X87172857Y-153867200D02*
X87220476Y-153819580D01*
X87220476Y-153819580D02*
X87268095Y-153724342D01*
X87268095Y-153724342D02*
X87268095Y-153629104D01*
X87268095Y-153629104D02*
X87220476Y-153533866D01*
X87220476Y-153533866D02*
X87172857Y-153486247D01*
X87172857Y-153486247D02*
X87077619Y-153438628D01*
X87077619Y-153438628D02*
X86887143Y-153391009D01*
X86887143Y-153391009D02*
X86791905Y-153343390D01*
X86791905Y-153343390D02*
X86744286Y-153295771D01*
X86744286Y-153295771D02*
X86696667Y-153200533D01*
X86696667Y-153200533D02*
X86696667Y-153105295D01*
X86696667Y-153105295D02*
X86744286Y-153010057D01*
X86744286Y-153010057D02*
X86791905Y-152962438D01*
X86791905Y-152962438D02*
X86887143Y-152914819D01*
X86887143Y-152914819D02*
X87125238Y-152914819D01*
X87125238Y-152914819D02*
X87268095Y-152962438D01*
X87601429Y-152914819D02*
X87839524Y-153914819D01*
X87839524Y-153914819D02*
X88030000Y-153200533D01*
X88030000Y-153200533D02*
X88220476Y-153914819D01*
X88220476Y-153914819D02*
X88458572Y-152914819D01*
X89268095Y-153248152D02*
X89268095Y-153914819D01*
X89030000Y-152867200D02*
X88791905Y-153581485D01*
X88791905Y-153581485D02*
X89410952Y-153581485D01*
X89864819Y-121182857D02*
X89388628Y-121516190D01*
X89864819Y-121754285D02*
X88864819Y-121754285D01*
X88864819Y-121754285D02*
X88864819Y-121373333D01*
X88864819Y-121373333D02*
X88912438Y-121278095D01*
X88912438Y-121278095D02*
X88960057Y-121230476D01*
X88960057Y-121230476D02*
X89055295Y-121182857D01*
X89055295Y-121182857D02*
X89198152Y-121182857D01*
X89198152Y-121182857D02*
X89293390Y-121230476D01*
X89293390Y-121230476D02*
X89341009Y-121278095D01*
X89341009Y-121278095D02*
X89388628Y-121373333D01*
X89388628Y-121373333D02*
X89388628Y-121754285D01*
X89864819Y-120230476D02*
X89864819Y-120801904D01*
X89864819Y-120516190D02*
X88864819Y-120516190D01*
X88864819Y-120516190D02*
X89007676Y-120611428D01*
X89007676Y-120611428D02*
X89102914Y-120706666D01*
X89102914Y-120706666D02*
X89150533Y-120801904D01*
X89293390Y-119659047D02*
X89245771Y-119754285D01*
X89245771Y-119754285D02*
X89198152Y-119801904D01*
X89198152Y-119801904D02*
X89102914Y-119849523D01*
X89102914Y-119849523D02*
X89055295Y-119849523D01*
X89055295Y-119849523D02*
X88960057Y-119801904D01*
X88960057Y-119801904D02*
X88912438Y-119754285D01*
X88912438Y-119754285D02*
X88864819Y-119659047D01*
X88864819Y-119659047D02*
X88864819Y-119468571D01*
X88864819Y-119468571D02*
X88912438Y-119373333D01*
X88912438Y-119373333D02*
X88960057Y-119325714D01*
X88960057Y-119325714D02*
X89055295Y-119278095D01*
X89055295Y-119278095D02*
X89102914Y-119278095D01*
X89102914Y-119278095D02*
X89198152Y-119325714D01*
X89198152Y-119325714D02*
X89245771Y-119373333D01*
X89245771Y-119373333D02*
X89293390Y-119468571D01*
X89293390Y-119468571D02*
X89293390Y-119659047D01*
X89293390Y-119659047D02*
X89341009Y-119754285D01*
X89341009Y-119754285D02*
X89388628Y-119801904D01*
X89388628Y-119801904D02*
X89483866Y-119849523D01*
X89483866Y-119849523D02*
X89674342Y-119849523D01*
X89674342Y-119849523D02*
X89769580Y-119801904D01*
X89769580Y-119801904D02*
X89817200Y-119754285D01*
X89817200Y-119754285D02*
X89864819Y-119659047D01*
X89864819Y-119659047D02*
X89864819Y-119468571D01*
X89864819Y-119468571D02*
X89817200Y-119373333D01*
X89817200Y-119373333D02*
X89769580Y-119325714D01*
X89769580Y-119325714D02*
X89674342Y-119278095D01*
X89674342Y-119278095D02*
X89483866Y-119278095D01*
X89483866Y-119278095D02*
X89388628Y-119325714D01*
X89388628Y-119325714D02*
X89341009Y-119373333D01*
X89341009Y-119373333D02*
X89293390Y-119468571D01*
D13*
X101797856Y-78614318D02*
X101797856Y-77344318D01*
X101797856Y-77344318D02*
X102100237Y-77344318D01*
X102100237Y-77344318D02*
X102281666Y-77404794D01*
X102281666Y-77404794D02*
X102402618Y-77525746D01*
X102402618Y-77525746D02*
X102463095Y-77646699D01*
X102463095Y-77646699D02*
X102523571Y-77888603D01*
X102523571Y-77888603D02*
X102523571Y-78070032D01*
X102523571Y-78070032D02*
X102463095Y-78311937D01*
X102463095Y-78311937D02*
X102402618Y-78432889D01*
X102402618Y-78432889D02*
X102281666Y-78553842D01*
X102281666Y-78553842D02*
X102100237Y-78614318D01*
X102100237Y-78614318D02*
X101797856Y-78614318D01*
X103007380Y-78553842D02*
X103188809Y-78614318D01*
X103188809Y-78614318D02*
X103491190Y-78614318D01*
X103491190Y-78614318D02*
X103612142Y-78553842D01*
X103612142Y-78553842D02*
X103672618Y-78493365D01*
X103672618Y-78493365D02*
X103733095Y-78372413D01*
X103733095Y-78372413D02*
X103733095Y-78251461D01*
X103733095Y-78251461D02*
X103672618Y-78130508D01*
X103672618Y-78130508D02*
X103612142Y-78070032D01*
X103612142Y-78070032D02*
X103491190Y-78009556D01*
X103491190Y-78009556D02*
X103249285Y-77949080D01*
X103249285Y-77949080D02*
X103128333Y-77888603D01*
X103128333Y-77888603D02*
X103067856Y-77828127D01*
X103067856Y-77828127D02*
X103007380Y-77707175D01*
X103007380Y-77707175D02*
X103007380Y-77586222D01*
X103007380Y-77586222D02*
X103067856Y-77465270D01*
X103067856Y-77465270D02*
X103128333Y-77404794D01*
X103128333Y-77404794D02*
X103249285Y-77344318D01*
X103249285Y-77344318D02*
X103551666Y-77344318D01*
X103551666Y-77344318D02*
X103733095Y-77404794D01*
X104942619Y-78614318D02*
X104216904Y-78614318D01*
X104579761Y-78614318D02*
X104579761Y-77344318D01*
X104579761Y-77344318D02*
X104458809Y-77525746D01*
X104458809Y-77525746D02*
X104337857Y-77646699D01*
X104337857Y-77646699D02*
X104216904Y-77707175D01*
X110876818Y-134356428D02*
X110876818Y-134961190D01*
X110876818Y-134961190D02*
X109606818Y-134961190D01*
X110816342Y-133993571D02*
X110876818Y-133812142D01*
X110876818Y-133812142D02*
X110876818Y-133509761D01*
X110876818Y-133509761D02*
X110816342Y-133388809D01*
X110816342Y-133388809D02*
X110755865Y-133328333D01*
X110755865Y-133328333D02*
X110634913Y-133267856D01*
X110634913Y-133267856D02*
X110513961Y-133267856D01*
X110513961Y-133267856D02*
X110393008Y-133328333D01*
X110393008Y-133328333D02*
X110332532Y-133388809D01*
X110332532Y-133388809D02*
X110272056Y-133509761D01*
X110272056Y-133509761D02*
X110211580Y-133751666D01*
X110211580Y-133751666D02*
X110151103Y-133872618D01*
X110151103Y-133872618D02*
X110090627Y-133933095D01*
X110090627Y-133933095D02*
X109969675Y-133993571D01*
X109969675Y-133993571D02*
X109848722Y-133993571D01*
X109848722Y-133993571D02*
X109727770Y-133933095D01*
X109727770Y-133933095D02*
X109667294Y-133872618D01*
X109667294Y-133872618D02*
X109606818Y-133751666D01*
X109606818Y-133751666D02*
X109606818Y-133449285D01*
X109606818Y-133449285D02*
X109667294Y-133267856D01*
X110876818Y-132058332D02*
X110876818Y-132784047D01*
X110876818Y-132421190D02*
X109606818Y-132421190D01*
X109606818Y-132421190D02*
X109788246Y-132542142D01*
X109788246Y-132542142D02*
X109909199Y-132663094D01*
X109909199Y-132663094D02*
X109969675Y-132784047D01*
D12*
X108224819Y-144306666D02*
X107748628Y-144639999D01*
X108224819Y-144878094D02*
X107224819Y-144878094D01*
X107224819Y-144878094D02*
X107224819Y-144497142D01*
X107224819Y-144497142D02*
X107272438Y-144401904D01*
X107272438Y-144401904D02*
X107320057Y-144354285D01*
X107320057Y-144354285D02*
X107415295Y-144306666D01*
X107415295Y-144306666D02*
X107558152Y-144306666D01*
X107558152Y-144306666D02*
X107653390Y-144354285D01*
X107653390Y-144354285D02*
X107701009Y-144401904D01*
X107701009Y-144401904D02*
X107748628Y-144497142D01*
X107748628Y-144497142D02*
X107748628Y-144878094D01*
X107224819Y-143973332D02*
X107224819Y-143354285D01*
X107224819Y-143354285D02*
X107605771Y-143687618D01*
X107605771Y-143687618D02*
X107605771Y-143544761D01*
X107605771Y-143544761D02*
X107653390Y-143449523D01*
X107653390Y-143449523D02*
X107701009Y-143401904D01*
X107701009Y-143401904D02*
X107796247Y-143354285D01*
X107796247Y-143354285D02*
X108034342Y-143354285D01*
X108034342Y-143354285D02*
X108129580Y-143401904D01*
X108129580Y-143401904D02*
X108177200Y-143449523D01*
X108177200Y-143449523D02*
X108224819Y-143544761D01*
X108224819Y-143544761D02*
X108224819Y-143830475D01*
X108224819Y-143830475D02*
X108177200Y-143925713D01*
X108177200Y-143925713D02*
X108129580Y-143973332D01*
X89864819Y-116770357D02*
X89388628Y-117103690D01*
X89864819Y-117341785D02*
X88864819Y-117341785D01*
X88864819Y-117341785D02*
X88864819Y-116960833D01*
X88864819Y-116960833D02*
X88912438Y-116865595D01*
X88912438Y-116865595D02*
X88960057Y-116817976D01*
X88960057Y-116817976D02*
X89055295Y-116770357D01*
X89055295Y-116770357D02*
X89198152Y-116770357D01*
X89198152Y-116770357D02*
X89293390Y-116817976D01*
X89293390Y-116817976D02*
X89341009Y-116865595D01*
X89341009Y-116865595D02*
X89388628Y-116960833D01*
X89388628Y-116960833D02*
X89388628Y-117341785D01*
X89864819Y-115817976D02*
X89864819Y-116389404D01*
X89864819Y-116103690D02*
X88864819Y-116103690D01*
X88864819Y-116103690D02*
X89007676Y-116198928D01*
X89007676Y-116198928D02*
X89102914Y-116294166D01*
X89102914Y-116294166D02*
X89150533Y-116389404D01*
X89864819Y-115341785D02*
X89864819Y-115151309D01*
X89864819Y-115151309D02*
X89817200Y-115056071D01*
X89817200Y-115056071D02*
X89769580Y-115008452D01*
X89769580Y-115008452D02*
X89626723Y-114913214D01*
X89626723Y-114913214D02*
X89436247Y-114865595D01*
X89436247Y-114865595D02*
X89055295Y-114865595D01*
X89055295Y-114865595D02*
X88960057Y-114913214D01*
X88960057Y-114913214D02*
X88912438Y-114960833D01*
X88912438Y-114960833D02*
X88864819Y-115056071D01*
X88864819Y-115056071D02*
X88864819Y-115246547D01*
X88864819Y-115246547D02*
X88912438Y-115341785D01*
X88912438Y-115341785D02*
X88960057Y-115389404D01*
X88960057Y-115389404D02*
X89055295Y-115437023D01*
X89055295Y-115437023D02*
X89293390Y-115437023D01*
X89293390Y-115437023D02*
X89388628Y-115389404D01*
X89388628Y-115389404D02*
X89436247Y-115341785D01*
X89436247Y-115341785D02*
X89483866Y-115246547D01*
X89483866Y-115246547D02*
X89483866Y-115056071D01*
X89483866Y-115056071D02*
X89436247Y-114960833D01*
X89436247Y-114960833D02*
X89388628Y-114913214D01*
X89388628Y-114913214D02*
X89293390Y-114865595D01*
X120197142Y-123064819D02*
X119863809Y-122588628D01*
X119625714Y-123064819D02*
X119625714Y-122064819D01*
X119625714Y-122064819D02*
X120006666Y-122064819D01*
X120006666Y-122064819D02*
X120101904Y-122112438D01*
X120101904Y-122112438D02*
X120149523Y-122160057D01*
X120149523Y-122160057D02*
X120197142Y-122255295D01*
X120197142Y-122255295D02*
X120197142Y-122398152D01*
X120197142Y-122398152D02*
X120149523Y-122493390D01*
X120149523Y-122493390D02*
X120101904Y-122541009D01*
X120101904Y-122541009D02*
X120006666Y-122588628D01*
X120006666Y-122588628D02*
X119625714Y-122588628D01*
X121149523Y-123064819D02*
X120578095Y-123064819D01*
X120863809Y-123064819D02*
X120863809Y-122064819D01*
X120863809Y-122064819D02*
X120768571Y-122207676D01*
X120768571Y-122207676D02*
X120673333Y-122302914D01*
X120673333Y-122302914D02*
X120578095Y-122350533D01*
X122054285Y-122064819D02*
X121578095Y-122064819D01*
X121578095Y-122064819D02*
X121530476Y-122541009D01*
X121530476Y-122541009D02*
X121578095Y-122493390D01*
X121578095Y-122493390D02*
X121673333Y-122445771D01*
X121673333Y-122445771D02*
X121911428Y-122445771D01*
X121911428Y-122445771D02*
X122006666Y-122493390D01*
X122006666Y-122493390D02*
X122054285Y-122541009D01*
X122054285Y-122541009D02*
X122101904Y-122636247D01*
X122101904Y-122636247D02*
X122101904Y-122874342D01*
X122101904Y-122874342D02*
X122054285Y-122969580D01*
X122054285Y-122969580D02*
X122006666Y-123017200D01*
X122006666Y-123017200D02*
X121911428Y-123064819D01*
X121911428Y-123064819D02*
X121673333Y-123064819D01*
X121673333Y-123064819D02*
X121578095Y-123017200D01*
X121578095Y-123017200D02*
X121530476Y-122969580D01*
X104099580Y-127956666D02*
X104147200Y-128004285D01*
X104147200Y-128004285D02*
X104194819Y-128147142D01*
X104194819Y-128147142D02*
X104194819Y-128242380D01*
X104194819Y-128242380D02*
X104147200Y-128385237D01*
X104147200Y-128385237D02*
X104051961Y-128480475D01*
X104051961Y-128480475D02*
X103956723Y-128528094D01*
X103956723Y-128528094D02*
X103766247Y-128575713D01*
X103766247Y-128575713D02*
X103623390Y-128575713D01*
X103623390Y-128575713D02*
X103432914Y-128528094D01*
X103432914Y-128528094D02*
X103337676Y-128480475D01*
X103337676Y-128480475D02*
X103242438Y-128385237D01*
X103242438Y-128385237D02*
X103194819Y-128242380D01*
X103194819Y-128242380D02*
X103194819Y-128147142D01*
X103194819Y-128147142D02*
X103242438Y-128004285D01*
X103242438Y-128004285D02*
X103290057Y-127956666D01*
X103623390Y-127385237D02*
X103575771Y-127480475D01*
X103575771Y-127480475D02*
X103528152Y-127528094D01*
X103528152Y-127528094D02*
X103432914Y-127575713D01*
X103432914Y-127575713D02*
X103385295Y-127575713D01*
X103385295Y-127575713D02*
X103290057Y-127528094D01*
X103290057Y-127528094D02*
X103242438Y-127480475D01*
X103242438Y-127480475D02*
X103194819Y-127385237D01*
X103194819Y-127385237D02*
X103194819Y-127194761D01*
X103194819Y-127194761D02*
X103242438Y-127099523D01*
X103242438Y-127099523D02*
X103290057Y-127051904D01*
X103290057Y-127051904D02*
X103385295Y-127004285D01*
X103385295Y-127004285D02*
X103432914Y-127004285D01*
X103432914Y-127004285D02*
X103528152Y-127051904D01*
X103528152Y-127051904D02*
X103575771Y-127099523D01*
X103575771Y-127099523D02*
X103623390Y-127194761D01*
X103623390Y-127194761D02*
X103623390Y-127385237D01*
X103623390Y-127385237D02*
X103671009Y-127480475D01*
X103671009Y-127480475D02*
X103718628Y-127528094D01*
X103718628Y-127528094D02*
X103813866Y-127575713D01*
X103813866Y-127575713D02*
X104004342Y-127575713D01*
X104004342Y-127575713D02*
X104099580Y-127528094D01*
X104099580Y-127528094D02*
X104147200Y-127480475D01*
X104147200Y-127480475D02*
X104194819Y-127385237D01*
X104194819Y-127385237D02*
X104194819Y-127194761D01*
X104194819Y-127194761D02*
X104147200Y-127099523D01*
X104147200Y-127099523D02*
X104099580Y-127051904D01*
X104099580Y-127051904D02*
X104004342Y-127004285D01*
X104004342Y-127004285D02*
X103813866Y-127004285D01*
X103813866Y-127004285D02*
X103718628Y-127051904D01*
X103718628Y-127051904D02*
X103671009Y-127099523D01*
X103671009Y-127099523D02*
X103623390Y-127194761D01*
X96599580Y-126956666D02*
X96647200Y-127004285D01*
X96647200Y-127004285D02*
X96694819Y-127147142D01*
X96694819Y-127147142D02*
X96694819Y-127242380D01*
X96694819Y-127242380D02*
X96647200Y-127385237D01*
X96647200Y-127385237D02*
X96551961Y-127480475D01*
X96551961Y-127480475D02*
X96456723Y-127528094D01*
X96456723Y-127528094D02*
X96266247Y-127575713D01*
X96266247Y-127575713D02*
X96123390Y-127575713D01*
X96123390Y-127575713D02*
X95932914Y-127528094D01*
X95932914Y-127528094D02*
X95837676Y-127480475D01*
X95837676Y-127480475D02*
X95742438Y-127385237D01*
X95742438Y-127385237D02*
X95694819Y-127242380D01*
X95694819Y-127242380D02*
X95694819Y-127147142D01*
X95694819Y-127147142D02*
X95742438Y-127004285D01*
X95742438Y-127004285D02*
X95790057Y-126956666D01*
X95694819Y-126623332D02*
X95694819Y-125956666D01*
X95694819Y-125956666D02*
X96694819Y-126385237D01*
D13*
X128895237Y-98804318D02*
X128895237Y-97534318D01*
X130225714Y-98683365D02*
X130165238Y-98743842D01*
X130165238Y-98743842D02*
X129983809Y-98804318D01*
X129983809Y-98804318D02*
X129862857Y-98804318D01*
X129862857Y-98804318D02*
X129681428Y-98743842D01*
X129681428Y-98743842D02*
X129560476Y-98622889D01*
X129560476Y-98622889D02*
X129499999Y-98501937D01*
X129499999Y-98501937D02*
X129439523Y-98260032D01*
X129439523Y-98260032D02*
X129439523Y-98078603D01*
X129439523Y-98078603D02*
X129499999Y-97836699D01*
X129499999Y-97836699D02*
X129560476Y-97715746D01*
X129560476Y-97715746D02*
X129681428Y-97594794D01*
X129681428Y-97594794D02*
X129862857Y-97534318D01*
X129862857Y-97534318D02*
X129983809Y-97534318D01*
X129983809Y-97534318D02*
X130165238Y-97594794D01*
X130165238Y-97594794D02*
X130225714Y-97655270D01*
X130709523Y-97655270D02*
X130769999Y-97594794D01*
X130769999Y-97594794D02*
X130890952Y-97534318D01*
X130890952Y-97534318D02*
X131193333Y-97534318D01*
X131193333Y-97534318D02*
X131314285Y-97594794D01*
X131314285Y-97594794D02*
X131374761Y-97655270D01*
X131374761Y-97655270D02*
X131435238Y-97776222D01*
X131435238Y-97776222D02*
X131435238Y-97897175D01*
X131435238Y-97897175D02*
X131374761Y-98078603D01*
X131374761Y-98078603D02*
X130649047Y-98804318D01*
X130649047Y-98804318D02*
X131435238Y-98804318D01*
D12*
X102269580Y-144306666D02*
X102317200Y-144354285D01*
X102317200Y-144354285D02*
X102364819Y-144497142D01*
X102364819Y-144497142D02*
X102364819Y-144592380D01*
X102364819Y-144592380D02*
X102317200Y-144735237D01*
X102317200Y-144735237D02*
X102221961Y-144830475D01*
X102221961Y-144830475D02*
X102126723Y-144878094D01*
X102126723Y-144878094D02*
X101936247Y-144925713D01*
X101936247Y-144925713D02*
X101793390Y-144925713D01*
X101793390Y-144925713D02*
X101602914Y-144878094D01*
X101602914Y-144878094D02*
X101507676Y-144830475D01*
X101507676Y-144830475D02*
X101412438Y-144735237D01*
X101412438Y-144735237D02*
X101364819Y-144592380D01*
X101364819Y-144592380D02*
X101364819Y-144497142D01*
X101364819Y-144497142D02*
X101412438Y-144354285D01*
X101412438Y-144354285D02*
X101460057Y-144306666D01*
X101364819Y-143449523D02*
X101364819Y-143639999D01*
X101364819Y-143639999D02*
X101412438Y-143735237D01*
X101412438Y-143735237D02*
X101460057Y-143782856D01*
X101460057Y-143782856D02*
X101602914Y-143878094D01*
X101602914Y-143878094D02*
X101793390Y-143925713D01*
X101793390Y-143925713D02*
X102174342Y-143925713D01*
X102174342Y-143925713D02*
X102269580Y-143878094D01*
X102269580Y-143878094D02*
X102317200Y-143830475D01*
X102317200Y-143830475D02*
X102364819Y-143735237D01*
X102364819Y-143735237D02*
X102364819Y-143544761D01*
X102364819Y-143544761D02*
X102317200Y-143449523D01*
X102317200Y-143449523D02*
X102269580Y-143401904D01*
X102269580Y-143401904D02*
X102174342Y-143354285D01*
X102174342Y-143354285D02*
X101936247Y-143354285D01*
X101936247Y-143354285D02*
X101841009Y-143401904D01*
X101841009Y-143401904D02*
X101793390Y-143449523D01*
X101793390Y-143449523D02*
X101745771Y-143544761D01*
X101745771Y-143544761D02*
X101745771Y-143735237D01*
X101745771Y-143735237D02*
X101793390Y-143830475D01*
X101793390Y-143830475D02*
X101841009Y-143878094D01*
X101841009Y-143878094D02*
X101936247Y-143925713D01*
X121389405Y-91424819D02*
X121389405Y-90424819D01*
X121389405Y-90424819D02*
X121627500Y-90424819D01*
X121627500Y-90424819D02*
X121770357Y-90472438D01*
X121770357Y-90472438D02*
X121865595Y-90567676D01*
X121865595Y-90567676D02*
X121913214Y-90662914D01*
X121913214Y-90662914D02*
X121960833Y-90853390D01*
X121960833Y-90853390D02*
X121960833Y-90996247D01*
X121960833Y-90996247D02*
X121913214Y-91186723D01*
X121913214Y-91186723D02*
X121865595Y-91281961D01*
X121865595Y-91281961D02*
X121770357Y-91377200D01*
X121770357Y-91377200D02*
X121627500Y-91424819D01*
X121627500Y-91424819D02*
X121389405Y-91424819D01*
X122294167Y-90424819D02*
X122913214Y-90424819D01*
X122913214Y-90424819D02*
X122579881Y-90805771D01*
X122579881Y-90805771D02*
X122722738Y-90805771D01*
X122722738Y-90805771D02*
X122817976Y-90853390D01*
X122817976Y-90853390D02*
X122865595Y-90901009D01*
X122865595Y-90901009D02*
X122913214Y-90996247D01*
X122913214Y-90996247D02*
X122913214Y-91234342D01*
X122913214Y-91234342D02*
X122865595Y-91329580D01*
X122865595Y-91329580D02*
X122817976Y-91377200D01*
X122817976Y-91377200D02*
X122722738Y-91424819D01*
X122722738Y-91424819D02*
X122437024Y-91424819D01*
X122437024Y-91424819D02*
X122341786Y-91377200D01*
X122341786Y-91377200D02*
X122294167Y-91329580D01*
X106889405Y-123564819D02*
X106889405Y-122564819D01*
X106889405Y-122564819D02*
X107127500Y-122564819D01*
X107127500Y-122564819D02*
X107270357Y-122612438D01*
X107270357Y-122612438D02*
X107365595Y-122707676D01*
X107365595Y-122707676D02*
X107413214Y-122802914D01*
X107413214Y-122802914D02*
X107460833Y-122993390D01*
X107460833Y-122993390D02*
X107460833Y-123136247D01*
X107460833Y-123136247D02*
X107413214Y-123326723D01*
X107413214Y-123326723D02*
X107365595Y-123421961D01*
X107365595Y-123421961D02*
X107270357Y-123517200D01*
X107270357Y-123517200D02*
X107127500Y-123564819D01*
X107127500Y-123564819D02*
X106889405Y-123564819D01*
X107841786Y-122660057D02*
X107889405Y-122612438D01*
X107889405Y-122612438D02*
X107984643Y-122564819D01*
X107984643Y-122564819D02*
X108222738Y-122564819D01*
X108222738Y-122564819D02*
X108317976Y-122612438D01*
X108317976Y-122612438D02*
X108365595Y-122660057D01*
X108365595Y-122660057D02*
X108413214Y-122755295D01*
X108413214Y-122755295D02*
X108413214Y-122850533D01*
X108413214Y-122850533D02*
X108365595Y-122993390D01*
X108365595Y-122993390D02*
X107794167Y-123564819D01*
X107794167Y-123564819D02*
X108413214Y-123564819D01*
X112506667Y-122697200D02*
X112649524Y-122744819D01*
X112649524Y-122744819D02*
X112887619Y-122744819D01*
X112887619Y-122744819D02*
X112982857Y-122697200D01*
X112982857Y-122697200D02*
X113030476Y-122649580D01*
X113030476Y-122649580D02*
X113078095Y-122554342D01*
X113078095Y-122554342D02*
X113078095Y-122459104D01*
X113078095Y-122459104D02*
X113030476Y-122363866D01*
X113030476Y-122363866D02*
X112982857Y-122316247D01*
X112982857Y-122316247D02*
X112887619Y-122268628D01*
X112887619Y-122268628D02*
X112697143Y-122221009D01*
X112697143Y-122221009D02*
X112601905Y-122173390D01*
X112601905Y-122173390D02*
X112554286Y-122125771D01*
X112554286Y-122125771D02*
X112506667Y-122030533D01*
X112506667Y-122030533D02*
X112506667Y-121935295D01*
X112506667Y-121935295D02*
X112554286Y-121840057D01*
X112554286Y-121840057D02*
X112601905Y-121792438D01*
X112601905Y-121792438D02*
X112697143Y-121744819D01*
X112697143Y-121744819D02*
X112935238Y-121744819D01*
X112935238Y-121744819D02*
X113078095Y-121792438D01*
X113411429Y-121744819D02*
X113649524Y-122744819D01*
X113649524Y-122744819D02*
X113840000Y-122030533D01*
X113840000Y-122030533D02*
X114030476Y-122744819D01*
X114030476Y-122744819D02*
X114268572Y-121744819D01*
X115173333Y-122744819D02*
X114601905Y-122744819D01*
X114887619Y-122744819D02*
X114887619Y-121744819D01*
X114887619Y-121744819D02*
X114792381Y-121887676D01*
X114792381Y-121887676D02*
X114697143Y-121982914D01*
X114697143Y-121982914D02*
X114601905Y-122030533D01*
X93244761Y-77490057D02*
X93149523Y-77442438D01*
X93149523Y-77442438D02*
X93054285Y-77347200D01*
X93054285Y-77347200D02*
X92911428Y-77204342D01*
X92911428Y-77204342D02*
X92816190Y-77156723D01*
X92816190Y-77156723D02*
X92720952Y-77156723D01*
X92768571Y-77394819D02*
X92673333Y-77347200D01*
X92673333Y-77347200D02*
X92578095Y-77251961D01*
X92578095Y-77251961D02*
X92530476Y-77061485D01*
X92530476Y-77061485D02*
X92530476Y-76728152D01*
X92530476Y-76728152D02*
X92578095Y-76537676D01*
X92578095Y-76537676D02*
X92673333Y-76442438D01*
X92673333Y-76442438D02*
X92768571Y-76394819D01*
X92768571Y-76394819D02*
X92959047Y-76394819D01*
X92959047Y-76394819D02*
X93054285Y-76442438D01*
X93054285Y-76442438D02*
X93149523Y-76537676D01*
X93149523Y-76537676D02*
X93197142Y-76728152D01*
X93197142Y-76728152D02*
X93197142Y-77061485D01*
X93197142Y-77061485D02*
X93149523Y-77251961D01*
X93149523Y-77251961D02*
X93054285Y-77347200D01*
X93054285Y-77347200D02*
X92959047Y-77394819D01*
X92959047Y-77394819D02*
X92768571Y-77394819D01*
X93768571Y-76823390D02*
X93673333Y-76775771D01*
X93673333Y-76775771D02*
X93625714Y-76728152D01*
X93625714Y-76728152D02*
X93578095Y-76632914D01*
X93578095Y-76632914D02*
X93578095Y-76585295D01*
X93578095Y-76585295D02*
X93625714Y-76490057D01*
X93625714Y-76490057D02*
X93673333Y-76442438D01*
X93673333Y-76442438D02*
X93768571Y-76394819D01*
X93768571Y-76394819D02*
X93959047Y-76394819D01*
X93959047Y-76394819D02*
X94054285Y-76442438D01*
X94054285Y-76442438D02*
X94101904Y-76490057D01*
X94101904Y-76490057D02*
X94149523Y-76585295D01*
X94149523Y-76585295D02*
X94149523Y-76632914D01*
X94149523Y-76632914D02*
X94101904Y-76728152D01*
X94101904Y-76728152D02*
X94054285Y-76775771D01*
X94054285Y-76775771D02*
X93959047Y-76823390D01*
X93959047Y-76823390D02*
X93768571Y-76823390D01*
X93768571Y-76823390D02*
X93673333Y-76871009D01*
X93673333Y-76871009D02*
X93625714Y-76918628D01*
X93625714Y-76918628D02*
X93578095Y-77013866D01*
X93578095Y-77013866D02*
X93578095Y-77204342D01*
X93578095Y-77204342D02*
X93625714Y-77299580D01*
X93625714Y-77299580D02*
X93673333Y-77347200D01*
X93673333Y-77347200D02*
X93768571Y-77394819D01*
X93768571Y-77394819D02*
X93959047Y-77394819D01*
X93959047Y-77394819D02*
X94054285Y-77347200D01*
X94054285Y-77347200D02*
X94101904Y-77299580D01*
X94101904Y-77299580D02*
X94149523Y-77204342D01*
X94149523Y-77204342D02*
X94149523Y-77013866D01*
X94149523Y-77013866D02*
X94101904Y-76918628D01*
X94101904Y-76918628D02*
X94054285Y-76871009D01*
X94054285Y-76871009D02*
X93959047Y-76823390D01*
X84364819Y-144778094D02*
X83364819Y-144778094D01*
X83364819Y-144778094D02*
X83364819Y-144539999D01*
X83364819Y-144539999D02*
X83412438Y-144397142D01*
X83412438Y-144397142D02*
X83507676Y-144301904D01*
X83507676Y-144301904D02*
X83602914Y-144254285D01*
X83602914Y-144254285D02*
X83793390Y-144206666D01*
X83793390Y-144206666D02*
X83936247Y-144206666D01*
X83936247Y-144206666D02*
X84126723Y-144254285D01*
X84126723Y-144254285D02*
X84221961Y-144301904D01*
X84221961Y-144301904D02*
X84317200Y-144397142D01*
X84317200Y-144397142D02*
X84364819Y-144539999D01*
X84364819Y-144539999D02*
X84364819Y-144778094D01*
X84364819Y-143254285D02*
X84364819Y-143825713D01*
X84364819Y-143539999D02*
X83364819Y-143539999D01*
X83364819Y-143539999D02*
X83507676Y-143635237D01*
X83507676Y-143635237D02*
X83602914Y-143730475D01*
X83602914Y-143730475D02*
X83650533Y-143825713D01*
X91737819Y-76178857D02*
X91261628Y-76512190D01*
X91737819Y-76750285D02*
X90737819Y-76750285D01*
X90737819Y-76750285D02*
X90737819Y-76369333D01*
X90737819Y-76369333D02*
X90785438Y-76274095D01*
X90785438Y-76274095D02*
X90833057Y-76226476D01*
X90833057Y-76226476D02*
X90928295Y-76178857D01*
X90928295Y-76178857D02*
X91071152Y-76178857D01*
X91071152Y-76178857D02*
X91166390Y-76226476D01*
X91166390Y-76226476D02*
X91214009Y-76274095D01*
X91214009Y-76274095D02*
X91261628Y-76369333D01*
X91261628Y-76369333D02*
X91261628Y-76750285D01*
X91737819Y-75226476D02*
X91737819Y-75797904D01*
X91737819Y-75512190D02*
X90737819Y-75512190D01*
X90737819Y-75512190D02*
X90880676Y-75607428D01*
X90880676Y-75607428D02*
X90975914Y-75702666D01*
X90975914Y-75702666D02*
X91023533Y-75797904D01*
X90737819Y-74893142D02*
X90737819Y-74274095D01*
X90737819Y-74274095D02*
X91118771Y-74607428D01*
X91118771Y-74607428D02*
X91118771Y-74464571D01*
X91118771Y-74464571D02*
X91166390Y-74369333D01*
X91166390Y-74369333D02*
X91214009Y-74321714D01*
X91214009Y-74321714D02*
X91309247Y-74274095D01*
X91309247Y-74274095D02*
X91547342Y-74274095D01*
X91547342Y-74274095D02*
X91642580Y-74321714D01*
X91642580Y-74321714D02*
X91690200Y-74369333D01*
X91690200Y-74369333D02*
X91737819Y-74464571D01*
X91737819Y-74464571D02*
X91737819Y-74750285D01*
X91737819Y-74750285D02*
X91690200Y-74845523D01*
X91690200Y-74845523D02*
X91642580Y-74893142D01*
X95173333Y-115329580D02*
X95125714Y-115377200D01*
X95125714Y-115377200D02*
X94982857Y-115424819D01*
X94982857Y-115424819D02*
X94887619Y-115424819D01*
X94887619Y-115424819D02*
X94744762Y-115377200D01*
X94744762Y-115377200D02*
X94649524Y-115281961D01*
X94649524Y-115281961D02*
X94601905Y-115186723D01*
X94601905Y-115186723D02*
X94554286Y-114996247D01*
X94554286Y-114996247D02*
X94554286Y-114853390D01*
X94554286Y-114853390D02*
X94601905Y-114662914D01*
X94601905Y-114662914D02*
X94649524Y-114567676D01*
X94649524Y-114567676D02*
X94744762Y-114472438D01*
X94744762Y-114472438D02*
X94887619Y-114424819D01*
X94887619Y-114424819D02*
X94982857Y-114424819D01*
X94982857Y-114424819D02*
X95125714Y-114472438D01*
X95125714Y-114472438D02*
X95173333Y-114520057D01*
X95506667Y-114424819D02*
X96125714Y-114424819D01*
X96125714Y-114424819D02*
X95792381Y-114805771D01*
X95792381Y-114805771D02*
X95935238Y-114805771D01*
X95935238Y-114805771D02*
X96030476Y-114853390D01*
X96030476Y-114853390D02*
X96078095Y-114901009D01*
X96078095Y-114901009D02*
X96125714Y-114996247D01*
X96125714Y-114996247D02*
X96125714Y-115234342D01*
X96125714Y-115234342D02*
X96078095Y-115329580D01*
X96078095Y-115329580D02*
X96030476Y-115377200D01*
X96030476Y-115377200D02*
X95935238Y-115424819D01*
X95935238Y-115424819D02*
X95649524Y-115424819D01*
X95649524Y-115424819D02*
X95554286Y-115377200D01*
X95554286Y-115377200D02*
X95506667Y-115329580D01*
X109173333Y-89564819D02*
X108840000Y-89088628D01*
X108601905Y-89564819D02*
X108601905Y-88564819D01*
X108601905Y-88564819D02*
X108982857Y-88564819D01*
X108982857Y-88564819D02*
X109078095Y-88612438D01*
X109078095Y-88612438D02*
X109125714Y-88660057D01*
X109125714Y-88660057D02*
X109173333Y-88755295D01*
X109173333Y-88755295D02*
X109173333Y-88898152D01*
X109173333Y-88898152D02*
X109125714Y-88993390D01*
X109125714Y-88993390D02*
X109078095Y-89041009D01*
X109078095Y-89041009D02*
X108982857Y-89088628D01*
X108982857Y-89088628D02*
X108601905Y-89088628D01*
X110030476Y-88898152D02*
X110030476Y-89564819D01*
X109792381Y-88517200D02*
X109554286Y-89231485D01*
X109554286Y-89231485D02*
X110173333Y-89231485D01*
X129398333Y-100349580D02*
X129350714Y-100397200D01*
X129350714Y-100397200D02*
X129207857Y-100444819D01*
X129207857Y-100444819D02*
X129112619Y-100444819D01*
X129112619Y-100444819D02*
X128969762Y-100397200D01*
X128969762Y-100397200D02*
X128874524Y-100301961D01*
X128874524Y-100301961D02*
X128826905Y-100206723D01*
X128826905Y-100206723D02*
X128779286Y-100016247D01*
X128779286Y-100016247D02*
X128779286Y-99873390D01*
X128779286Y-99873390D02*
X128826905Y-99682914D01*
X128826905Y-99682914D02*
X128874524Y-99587676D01*
X128874524Y-99587676D02*
X128969762Y-99492438D01*
X128969762Y-99492438D02*
X129112619Y-99444819D01*
X129112619Y-99444819D02*
X129207857Y-99444819D01*
X129207857Y-99444819D02*
X129350714Y-99492438D01*
X129350714Y-99492438D02*
X129398333Y-99540057D01*
X130303095Y-99444819D02*
X129826905Y-99444819D01*
X129826905Y-99444819D02*
X129779286Y-99921009D01*
X129779286Y-99921009D02*
X129826905Y-99873390D01*
X129826905Y-99873390D02*
X129922143Y-99825771D01*
X129922143Y-99825771D02*
X130160238Y-99825771D01*
X130160238Y-99825771D02*
X130255476Y-99873390D01*
X130255476Y-99873390D02*
X130303095Y-99921009D01*
X130303095Y-99921009D02*
X130350714Y-100016247D01*
X130350714Y-100016247D02*
X130350714Y-100254342D01*
X130350714Y-100254342D02*
X130303095Y-100349580D01*
X130303095Y-100349580D02*
X130255476Y-100397200D01*
X130255476Y-100397200D02*
X130160238Y-100444819D01*
X130160238Y-100444819D02*
X129922143Y-100444819D01*
X129922143Y-100444819D02*
X129826905Y-100397200D01*
X129826905Y-100397200D02*
X129779286Y-100349580D01*
X75574819Y-107896904D02*
X76384342Y-107896904D01*
X76384342Y-107896904D02*
X76479580Y-107849285D01*
X76479580Y-107849285D02*
X76527200Y-107801666D01*
X76527200Y-107801666D02*
X76574819Y-107706428D01*
X76574819Y-107706428D02*
X76574819Y-107515952D01*
X76574819Y-107515952D02*
X76527200Y-107420714D01*
X76527200Y-107420714D02*
X76479580Y-107373095D01*
X76479580Y-107373095D02*
X76384342Y-107325476D01*
X76384342Y-107325476D02*
X75574819Y-107325476D01*
X76574819Y-106325476D02*
X76574819Y-106896904D01*
X76574819Y-106611190D02*
X75574819Y-106611190D01*
X75574819Y-106611190D02*
X75717676Y-106706428D01*
X75717676Y-106706428D02*
X75812914Y-106801666D01*
X75812914Y-106801666D02*
X75860533Y-106896904D01*
X104307261Y-77040057D02*
X104212023Y-76992438D01*
X104212023Y-76992438D02*
X104116785Y-76897200D01*
X104116785Y-76897200D02*
X103973928Y-76754342D01*
X103973928Y-76754342D02*
X103878690Y-76706723D01*
X103878690Y-76706723D02*
X103783452Y-76706723D01*
X103831071Y-76944819D02*
X103735833Y-76897200D01*
X103735833Y-76897200D02*
X103640595Y-76801961D01*
X103640595Y-76801961D02*
X103592976Y-76611485D01*
X103592976Y-76611485D02*
X103592976Y-76278152D01*
X103592976Y-76278152D02*
X103640595Y-76087676D01*
X103640595Y-76087676D02*
X103735833Y-75992438D01*
X103735833Y-75992438D02*
X103831071Y-75944819D01*
X103831071Y-75944819D02*
X104021547Y-75944819D01*
X104021547Y-75944819D02*
X104116785Y-75992438D01*
X104116785Y-75992438D02*
X104212023Y-76087676D01*
X104212023Y-76087676D02*
X104259642Y-76278152D01*
X104259642Y-76278152D02*
X104259642Y-76611485D01*
X104259642Y-76611485D02*
X104212023Y-76801961D01*
X104212023Y-76801961D02*
X104116785Y-76897200D01*
X104116785Y-76897200D02*
X104021547Y-76944819D01*
X104021547Y-76944819D02*
X103831071Y-76944819D01*
X105212023Y-76944819D02*
X104640595Y-76944819D01*
X104926309Y-76944819D02*
X104926309Y-75944819D01*
X104926309Y-75944819D02*
X104831071Y-76087676D01*
X104831071Y-76087676D02*
X104735833Y-76182914D01*
X104735833Y-76182914D02*
X104640595Y-76230533D01*
D13*
X127368318Y-129657619D02*
X128396413Y-129657619D01*
X128396413Y-129657619D02*
X128517365Y-129597142D01*
X128517365Y-129597142D02*
X128577842Y-129536666D01*
X128577842Y-129536666D02*
X128638318Y-129415714D01*
X128638318Y-129415714D02*
X128638318Y-129173809D01*
X128638318Y-129173809D02*
X128577842Y-129052857D01*
X128577842Y-129052857D02*
X128517365Y-128992380D01*
X128517365Y-128992380D02*
X128396413Y-128931904D01*
X128396413Y-128931904D02*
X127368318Y-128931904D01*
X127489270Y-128387619D02*
X127428794Y-128327143D01*
X127428794Y-128327143D02*
X127368318Y-128206190D01*
X127368318Y-128206190D02*
X127368318Y-127903809D01*
X127368318Y-127903809D02*
X127428794Y-127782857D01*
X127428794Y-127782857D02*
X127489270Y-127722381D01*
X127489270Y-127722381D02*
X127610222Y-127661904D01*
X127610222Y-127661904D02*
X127731175Y-127661904D01*
X127731175Y-127661904D02*
X127912603Y-127722381D01*
X127912603Y-127722381D02*
X128638318Y-128448095D01*
X128638318Y-128448095D02*
X128638318Y-127661904D01*
D12*
X92697142Y-78064819D02*
X92363809Y-77588628D01*
X92125714Y-78064819D02*
X92125714Y-77064819D01*
X92125714Y-77064819D02*
X92506666Y-77064819D01*
X92506666Y-77064819D02*
X92601904Y-77112438D01*
X92601904Y-77112438D02*
X92649523Y-77160057D01*
X92649523Y-77160057D02*
X92697142Y-77255295D01*
X92697142Y-77255295D02*
X92697142Y-77398152D01*
X92697142Y-77398152D02*
X92649523Y-77493390D01*
X92649523Y-77493390D02*
X92601904Y-77541009D01*
X92601904Y-77541009D02*
X92506666Y-77588628D01*
X92506666Y-77588628D02*
X92125714Y-77588628D01*
X93649523Y-78064819D02*
X93078095Y-78064819D01*
X93363809Y-78064819D02*
X93363809Y-77064819D01*
X93363809Y-77064819D02*
X93268571Y-77207676D01*
X93268571Y-77207676D02*
X93173333Y-77302914D01*
X93173333Y-77302914D02*
X93078095Y-77350533D01*
X94030476Y-77160057D02*
X94078095Y-77112438D01*
X94078095Y-77112438D02*
X94173333Y-77064819D01*
X94173333Y-77064819D02*
X94411428Y-77064819D01*
X94411428Y-77064819D02*
X94506666Y-77112438D01*
X94506666Y-77112438D02*
X94554285Y-77160057D01*
X94554285Y-77160057D02*
X94601904Y-77255295D01*
X94601904Y-77255295D02*
X94601904Y-77350533D01*
X94601904Y-77350533D02*
X94554285Y-77493390D01*
X94554285Y-77493390D02*
X93982857Y-78064819D01*
X93982857Y-78064819D02*
X94601904Y-78064819D01*
X105673333Y-150024819D02*
X105340000Y-149548628D01*
X105101905Y-150024819D02*
X105101905Y-149024819D01*
X105101905Y-149024819D02*
X105482857Y-149024819D01*
X105482857Y-149024819D02*
X105578095Y-149072438D01*
X105578095Y-149072438D02*
X105625714Y-149120057D01*
X105625714Y-149120057D02*
X105673333Y-149215295D01*
X105673333Y-149215295D02*
X105673333Y-149358152D01*
X105673333Y-149358152D02*
X105625714Y-149453390D01*
X105625714Y-149453390D02*
X105578095Y-149501009D01*
X105578095Y-149501009D02*
X105482857Y-149548628D01*
X105482857Y-149548628D02*
X105101905Y-149548628D01*
X106054286Y-149120057D02*
X106101905Y-149072438D01*
X106101905Y-149072438D02*
X106197143Y-149024819D01*
X106197143Y-149024819D02*
X106435238Y-149024819D01*
X106435238Y-149024819D02*
X106530476Y-149072438D01*
X106530476Y-149072438D02*
X106578095Y-149120057D01*
X106578095Y-149120057D02*
X106625714Y-149215295D01*
X106625714Y-149215295D02*
X106625714Y-149310533D01*
X106625714Y-149310533D02*
X106578095Y-149453390D01*
X106578095Y-149453390D02*
X106006667Y-150024819D01*
X106006667Y-150024819D02*
X106625714Y-150024819D01*
X96709580Y-120706666D02*
X96757200Y-120754285D01*
X96757200Y-120754285D02*
X96804819Y-120897142D01*
X96804819Y-120897142D02*
X96804819Y-120992380D01*
X96804819Y-120992380D02*
X96757200Y-121135237D01*
X96757200Y-121135237D02*
X96661961Y-121230475D01*
X96661961Y-121230475D02*
X96566723Y-121278094D01*
X96566723Y-121278094D02*
X96376247Y-121325713D01*
X96376247Y-121325713D02*
X96233390Y-121325713D01*
X96233390Y-121325713D02*
X96042914Y-121278094D01*
X96042914Y-121278094D02*
X95947676Y-121230475D01*
X95947676Y-121230475D02*
X95852438Y-121135237D01*
X95852438Y-121135237D02*
X95804819Y-120992380D01*
X95804819Y-120992380D02*
X95804819Y-120897142D01*
X95804819Y-120897142D02*
X95852438Y-120754285D01*
X95852438Y-120754285D02*
X95900057Y-120706666D01*
X96804819Y-119754285D02*
X96804819Y-120325713D01*
X96804819Y-120039999D02*
X95804819Y-120039999D01*
X95804819Y-120039999D02*
X95947676Y-120135237D01*
X95947676Y-120135237D02*
X96042914Y-120230475D01*
X96042914Y-120230475D02*
X96090533Y-120325713D01*
D13*
X84639318Y-128739762D02*
X83369318Y-128739762D01*
X84518365Y-127409285D02*
X84578842Y-127469761D01*
X84578842Y-127469761D02*
X84639318Y-127651190D01*
X84639318Y-127651190D02*
X84639318Y-127772142D01*
X84639318Y-127772142D02*
X84578842Y-127953571D01*
X84578842Y-127953571D02*
X84457889Y-128074523D01*
X84457889Y-128074523D02*
X84336937Y-128135000D01*
X84336937Y-128135000D02*
X84095032Y-128195476D01*
X84095032Y-128195476D02*
X83913603Y-128195476D01*
X83913603Y-128195476D02*
X83671699Y-128135000D01*
X83671699Y-128135000D02*
X83550746Y-128074523D01*
X83550746Y-128074523D02*
X83429794Y-127953571D01*
X83429794Y-127953571D02*
X83369318Y-127772142D01*
X83369318Y-127772142D02*
X83369318Y-127651190D01*
X83369318Y-127651190D02*
X83429794Y-127469761D01*
X83429794Y-127469761D02*
X83490270Y-127409285D01*
X84639318Y-126199761D02*
X84639318Y-126925476D01*
X84639318Y-126562619D02*
X83369318Y-126562619D01*
X83369318Y-126562619D02*
X83550746Y-126683571D01*
X83550746Y-126683571D02*
X83671699Y-126804523D01*
X83671699Y-126804523D02*
X83732175Y-126925476D01*
D12*
X102756667Y-122447200D02*
X102899524Y-122494819D01*
X102899524Y-122494819D02*
X103137619Y-122494819D01*
X103137619Y-122494819D02*
X103232857Y-122447200D01*
X103232857Y-122447200D02*
X103280476Y-122399580D01*
X103280476Y-122399580D02*
X103328095Y-122304342D01*
X103328095Y-122304342D02*
X103328095Y-122209104D01*
X103328095Y-122209104D02*
X103280476Y-122113866D01*
X103280476Y-122113866D02*
X103232857Y-122066247D01*
X103232857Y-122066247D02*
X103137619Y-122018628D01*
X103137619Y-122018628D02*
X102947143Y-121971009D01*
X102947143Y-121971009D02*
X102851905Y-121923390D01*
X102851905Y-121923390D02*
X102804286Y-121875771D01*
X102804286Y-121875771D02*
X102756667Y-121780533D01*
X102756667Y-121780533D02*
X102756667Y-121685295D01*
X102756667Y-121685295D02*
X102804286Y-121590057D01*
X102804286Y-121590057D02*
X102851905Y-121542438D01*
X102851905Y-121542438D02*
X102947143Y-121494819D01*
X102947143Y-121494819D02*
X103185238Y-121494819D01*
X103185238Y-121494819D02*
X103328095Y-121542438D01*
X103661429Y-121494819D02*
X103899524Y-122494819D01*
X103899524Y-122494819D02*
X104090000Y-121780533D01*
X104090000Y-121780533D02*
X104280476Y-122494819D01*
X104280476Y-122494819D02*
X104518572Y-121494819D01*
X104851905Y-121590057D02*
X104899524Y-121542438D01*
X104899524Y-121542438D02*
X104994762Y-121494819D01*
X104994762Y-121494819D02*
X105232857Y-121494819D01*
X105232857Y-121494819D02*
X105328095Y-121542438D01*
X105328095Y-121542438D02*
X105375714Y-121590057D01*
X105375714Y-121590057D02*
X105423333Y-121685295D01*
X105423333Y-121685295D02*
X105423333Y-121780533D01*
X105423333Y-121780533D02*
X105375714Y-121923390D01*
X105375714Y-121923390D02*
X104804286Y-122494819D01*
X104804286Y-122494819D02*
X105423333Y-122494819D01*
X132760833Y-90064819D02*
X132427500Y-89588628D01*
X132189405Y-90064819D02*
X132189405Y-89064819D01*
X132189405Y-89064819D02*
X132570357Y-89064819D01*
X132570357Y-89064819D02*
X132665595Y-89112438D01*
X132665595Y-89112438D02*
X132713214Y-89160057D01*
X132713214Y-89160057D02*
X132760833Y-89255295D01*
X132760833Y-89255295D02*
X132760833Y-89398152D01*
X132760833Y-89398152D02*
X132713214Y-89493390D01*
X132713214Y-89493390D02*
X132665595Y-89541009D01*
X132665595Y-89541009D02*
X132570357Y-89588628D01*
X132570357Y-89588628D02*
X132189405Y-89588628D01*
X133237024Y-90064819D02*
X133427500Y-90064819D01*
X133427500Y-90064819D02*
X133522738Y-90017200D01*
X133522738Y-90017200D02*
X133570357Y-89969580D01*
X133570357Y-89969580D02*
X133665595Y-89826723D01*
X133665595Y-89826723D02*
X133713214Y-89636247D01*
X133713214Y-89636247D02*
X133713214Y-89255295D01*
X133713214Y-89255295D02*
X133665595Y-89160057D01*
X133665595Y-89160057D02*
X133617976Y-89112438D01*
X133617976Y-89112438D02*
X133522738Y-89064819D01*
X133522738Y-89064819D02*
X133332262Y-89064819D01*
X133332262Y-89064819D02*
X133237024Y-89112438D01*
X133237024Y-89112438D02*
X133189405Y-89160057D01*
X133189405Y-89160057D02*
X133141786Y-89255295D01*
X133141786Y-89255295D02*
X133141786Y-89493390D01*
X133141786Y-89493390D02*
X133189405Y-89588628D01*
X133189405Y-89588628D02*
X133237024Y-89636247D01*
X133237024Y-89636247D02*
X133332262Y-89683866D01*
X133332262Y-89683866D02*
X133522738Y-89683866D01*
X133522738Y-89683866D02*
X133617976Y-89636247D01*
X133617976Y-89636247D02*
X133665595Y-89588628D01*
X133665595Y-89588628D02*
X133713214Y-89493390D01*
X64724819Y-78206666D02*
X64248628Y-78539999D01*
X64724819Y-78778094D02*
X63724819Y-78778094D01*
X63724819Y-78778094D02*
X63724819Y-78397142D01*
X63724819Y-78397142D02*
X63772438Y-78301904D01*
X63772438Y-78301904D02*
X63820057Y-78254285D01*
X63820057Y-78254285D02*
X63915295Y-78206666D01*
X63915295Y-78206666D02*
X64058152Y-78206666D01*
X64058152Y-78206666D02*
X64153390Y-78254285D01*
X64153390Y-78254285D02*
X64201009Y-78301904D01*
X64201009Y-78301904D02*
X64248628Y-78397142D01*
X64248628Y-78397142D02*
X64248628Y-78778094D01*
X63724819Y-77301904D02*
X63724819Y-77778094D01*
X63724819Y-77778094D02*
X64201009Y-77825713D01*
X64201009Y-77825713D02*
X64153390Y-77778094D01*
X64153390Y-77778094D02*
X64105771Y-77682856D01*
X64105771Y-77682856D02*
X64105771Y-77444761D01*
X64105771Y-77444761D02*
X64153390Y-77349523D01*
X64153390Y-77349523D02*
X64201009Y-77301904D01*
X64201009Y-77301904D02*
X64296247Y-77254285D01*
X64296247Y-77254285D02*
X64534342Y-77254285D01*
X64534342Y-77254285D02*
X64629580Y-77301904D01*
X64629580Y-77301904D02*
X64677200Y-77349523D01*
X64677200Y-77349523D02*
X64724819Y-77444761D01*
X64724819Y-77444761D02*
X64724819Y-77682856D01*
X64724819Y-77682856D02*
X64677200Y-77778094D01*
X64677200Y-77778094D02*
X64629580Y-77825713D01*
X121524523Y-87424819D02*
X120953095Y-87424819D01*
X121238809Y-87424819D02*
X121238809Y-86424819D01*
X121238809Y-86424819D02*
X121143571Y-86567676D01*
X121143571Y-86567676D02*
X121048333Y-86662914D01*
X121048333Y-86662914D02*
X120953095Y-86710533D01*
X121953095Y-87424819D02*
X121953095Y-86424819D01*
X122524523Y-87424819D02*
X122095952Y-86853390D01*
X122524523Y-86424819D02*
X121953095Y-86996247D01*
X123476904Y-87424819D02*
X122905476Y-87424819D01*
X123191190Y-87424819D02*
X123191190Y-86424819D01*
X123191190Y-86424819D02*
X123095952Y-86567676D01*
X123095952Y-86567676D02*
X123000714Y-86662914D01*
X123000714Y-86662914D02*
X122905476Y-86710533D01*
X103609642Y-77064819D02*
X103276309Y-76588628D01*
X103038214Y-77064819D02*
X103038214Y-76064819D01*
X103038214Y-76064819D02*
X103419166Y-76064819D01*
X103419166Y-76064819D02*
X103514404Y-76112438D01*
X103514404Y-76112438D02*
X103562023Y-76160057D01*
X103562023Y-76160057D02*
X103609642Y-76255295D01*
X103609642Y-76255295D02*
X103609642Y-76398152D01*
X103609642Y-76398152D02*
X103562023Y-76493390D01*
X103562023Y-76493390D02*
X103514404Y-76541009D01*
X103514404Y-76541009D02*
X103419166Y-76588628D01*
X103419166Y-76588628D02*
X103038214Y-76588628D01*
X104562023Y-77064819D02*
X103990595Y-77064819D01*
X104276309Y-77064819D02*
X104276309Y-76064819D01*
X104276309Y-76064819D02*
X104181071Y-76207676D01*
X104181071Y-76207676D02*
X104085833Y-76302914D01*
X104085833Y-76302914D02*
X103990595Y-76350533D01*
X105514404Y-77064819D02*
X104942976Y-77064819D01*
X105228690Y-77064819D02*
X105228690Y-76064819D01*
X105228690Y-76064819D02*
X105133452Y-76207676D01*
X105133452Y-76207676D02*
X105038214Y-76302914D01*
X105038214Y-76302914D02*
X104942976Y-76350533D01*
X108085833Y-64424819D02*
X107752500Y-63948628D01*
X107514405Y-64424819D02*
X107514405Y-63424819D01*
X107514405Y-63424819D02*
X107895357Y-63424819D01*
X107895357Y-63424819D02*
X107990595Y-63472438D01*
X107990595Y-63472438D02*
X108038214Y-63520057D01*
X108038214Y-63520057D02*
X108085833Y-63615295D01*
X108085833Y-63615295D02*
X108085833Y-63758152D01*
X108085833Y-63758152D02*
X108038214Y-63853390D01*
X108038214Y-63853390D02*
X107990595Y-63901009D01*
X107990595Y-63901009D02*
X107895357Y-63948628D01*
X107895357Y-63948628D02*
X107514405Y-63948628D01*
X108419167Y-63424819D02*
X109085833Y-63424819D01*
X109085833Y-63424819D02*
X108657262Y-64424819D01*
X116197142Y-123064819D02*
X115863809Y-122588628D01*
X115625714Y-123064819D02*
X115625714Y-122064819D01*
X115625714Y-122064819D02*
X116006666Y-122064819D01*
X116006666Y-122064819D02*
X116101904Y-122112438D01*
X116101904Y-122112438D02*
X116149523Y-122160057D01*
X116149523Y-122160057D02*
X116197142Y-122255295D01*
X116197142Y-122255295D02*
X116197142Y-122398152D01*
X116197142Y-122398152D02*
X116149523Y-122493390D01*
X116149523Y-122493390D02*
X116101904Y-122541009D01*
X116101904Y-122541009D02*
X116006666Y-122588628D01*
X116006666Y-122588628D02*
X115625714Y-122588628D01*
X117149523Y-123064819D02*
X116578095Y-123064819D01*
X116863809Y-123064819D02*
X116863809Y-122064819D01*
X116863809Y-122064819D02*
X116768571Y-122207676D01*
X116768571Y-122207676D02*
X116673333Y-122302914D01*
X116673333Y-122302914D02*
X116578095Y-122350533D01*
X118006666Y-122064819D02*
X117816190Y-122064819D01*
X117816190Y-122064819D02*
X117720952Y-122112438D01*
X117720952Y-122112438D02*
X117673333Y-122160057D01*
X117673333Y-122160057D02*
X117578095Y-122302914D01*
X117578095Y-122302914D02*
X117530476Y-122493390D01*
X117530476Y-122493390D02*
X117530476Y-122874342D01*
X117530476Y-122874342D02*
X117578095Y-122969580D01*
X117578095Y-122969580D02*
X117625714Y-123017200D01*
X117625714Y-123017200D02*
X117720952Y-123064819D01*
X117720952Y-123064819D02*
X117911428Y-123064819D01*
X117911428Y-123064819D02*
X118006666Y-123017200D01*
X118006666Y-123017200D02*
X118054285Y-122969580D01*
X118054285Y-122969580D02*
X118101904Y-122874342D01*
X118101904Y-122874342D02*
X118101904Y-122636247D01*
X118101904Y-122636247D02*
X118054285Y-122541009D01*
X118054285Y-122541009D02*
X118006666Y-122493390D01*
X118006666Y-122493390D02*
X117911428Y-122445771D01*
X117911428Y-122445771D02*
X117720952Y-122445771D01*
X117720952Y-122445771D02*
X117625714Y-122493390D01*
X117625714Y-122493390D02*
X117578095Y-122541009D01*
X117578095Y-122541009D02*
X117530476Y-122636247D01*
X96599580Y-133956666D02*
X96647200Y-134004285D01*
X96647200Y-134004285D02*
X96694819Y-134147142D01*
X96694819Y-134147142D02*
X96694819Y-134242380D01*
X96694819Y-134242380D02*
X96647200Y-134385237D01*
X96647200Y-134385237D02*
X96551961Y-134480475D01*
X96551961Y-134480475D02*
X96456723Y-134528094D01*
X96456723Y-134528094D02*
X96266247Y-134575713D01*
X96266247Y-134575713D02*
X96123390Y-134575713D01*
X96123390Y-134575713D02*
X95932914Y-134528094D01*
X95932914Y-134528094D02*
X95837676Y-134480475D01*
X95837676Y-134480475D02*
X95742438Y-134385237D01*
X95742438Y-134385237D02*
X95694819Y-134242380D01*
X95694819Y-134242380D02*
X95694819Y-134147142D01*
X95694819Y-134147142D02*
X95742438Y-134004285D01*
X95742438Y-134004285D02*
X95790057Y-133956666D01*
X96028152Y-133099523D02*
X96694819Y-133099523D01*
X95647200Y-133337618D02*
X96361485Y-133575713D01*
X96361485Y-133575713D02*
X96361485Y-132956666D01*
X101197142Y-90829580D02*
X101149523Y-90877200D01*
X101149523Y-90877200D02*
X101006666Y-90924819D01*
X101006666Y-90924819D02*
X100911428Y-90924819D01*
X100911428Y-90924819D02*
X100768571Y-90877200D01*
X100768571Y-90877200D02*
X100673333Y-90781961D01*
X100673333Y-90781961D02*
X100625714Y-90686723D01*
X100625714Y-90686723D02*
X100578095Y-90496247D01*
X100578095Y-90496247D02*
X100578095Y-90353390D01*
X100578095Y-90353390D02*
X100625714Y-90162914D01*
X100625714Y-90162914D02*
X100673333Y-90067676D01*
X100673333Y-90067676D02*
X100768571Y-89972438D01*
X100768571Y-89972438D02*
X100911428Y-89924819D01*
X100911428Y-89924819D02*
X101006666Y-89924819D01*
X101006666Y-89924819D02*
X101149523Y-89972438D01*
X101149523Y-89972438D02*
X101197142Y-90020057D01*
X102149523Y-90924819D02*
X101578095Y-90924819D01*
X101863809Y-90924819D02*
X101863809Y-89924819D01*
X101863809Y-89924819D02*
X101768571Y-90067676D01*
X101768571Y-90067676D02*
X101673333Y-90162914D01*
X101673333Y-90162914D02*
X101578095Y-90210533D01*
X102768571Y-89924819D02*
X102863809Y-89924819D01*
X102863809Y-89924819D02*
X102959047Y-89972438D01*
X102959047Y-89972438D02*
X103006666Y-90020057D01*
X103006666Y-90020057D02*
X103054285Y-90115295D01*
X103054285Y-90115295D02*
X103101904Y-90305771D01*
X103101904Y-90305771D02*
X103101904Y-90543866D01*
X103101904Y-90543866D02*
X103054285Y-90734342D01*
X103054285Y-90734342D02*
X103006666Y-90829580D01*
X103006666Y-90829580D02*
X102959047Y-90877200D01*
X102959047Y-90877200D02*
X102863809Y-90924819D01*
X102863809Y-90924819D02*
X102768571Y-90924819D01*
X102768571Y-90924819D02*
X102673333Y-90877200D01*
X102673333Y-90877200D02*
X102625714Y-90829580D01*
X102625714Y-90829580D02*
X102578095Y-90734342D01*
X102578095Y-90734342D02*
X102530476Y-90543866D01*
X102530476Y-90543866D02*
X102530476Y-90305771D01*
X102530476Y-90305771D02*
X102578095Y-90115295D01*
X102578095Y-90115295D02*
X102625714Y-90020057D01*
X102625714Y-90020057D02*
X102673333Y-89972438D01*
X102673333Y-89972438D02*
X102768571Y-89924819D01*
X99822142Y-75474819D02*
X99488809Y-74998628D01*
X99250714Y-75474819D02*
X99250714Y-74474819D01*
X99250714Y-74474819D02*
X99631666Y-74474819D01*
X99631666Y-74474819D02*
X99726904Y-74522438D01*
X99726904Y-74522438D02*
X99774523Y-74570057D01*
X99774523Y-74570057D02*
X99822142Y-74665295D01*
X99822142Y-74665295D02*
X99822142Y-74808152D01*
X99822142Y-74808152D02*
X99774523Y-74903390D01*
X99774523Y-74903390D02*
X99726904Y-74951009D01*
X99726904Y-74951009D02*
X99631666Y-74998628D01*
X99631666Y-74998628D02*
X99250714Y-74998628D01*
X100774523Y-75474819D02*
X100203095Y-75474819D01*
X100488809Y-75474819D02*
X100488809Y-74474819D01*
X100488809Y-74474819D02*
X100393571Y-74617676D01*
X100393571Y-74617676D02*
X100298333Y-74712914D01*
X100298333Y-74712914D02*
X100203095Y-74760533D01*
X101393571Y-74474819D02*
X101488809Y-74474819D01*
X101488809Y-74474819D02*
X101584047Y-74522438D01*
X101584047Y-74522438D02*
X101631666Y-74570057D01*
X101631666Y-74570057D02*
X101679285Y-74665295D01*
X101679285Y-74665295D02*
X101726904Y-74855771D01*
X101726904Y-74855771D02*
X101726904Y-75093866D01*
X101726904Y-75093866D02*
X101679285Y-75284342D01*
X101679285Y-75284342D02*
X101631666Y-75379580D01*
X101631666Y-75379580D02*
X101584047Y-75427200D01*
X101584047Y-75427200D02*
X101488809Y-75474819D01*
X101488809Y-75474819D02*
X101393571Y-75474819D01*
X101393571Y-75474819D02*
X101298333Y-75427200D01*
X101298333Y-75427200D02*
X101250714Y-75379580D01*
X101250714Y-75379580D02*
X101203095Y-75284342D01*
X101203095Y-75284342D02*
X101155476Y-75093866D01*
X101155476Y-75093866D02*
X101155476Y-74855771D01*
X101155476Y-74855771D02*
X101203095Y-74665295D01*
X101203095Y-74665295D02*
X101250714Y-74570057D01*
X101250714Y-74570057D02*
X101298333Y-74522438D01*
X101298333Y-74522438D02*
X101393571Y-74474819D01*
D13*
X82919047Y-140235270D02*
X82798095Y-140174794D01*
X82798095Y-140174794D02*
X82677142Y-140053842D01*
X82677142Y-140053842D02*
X82495714Y-139872413D01*
X82495714Y-139872413D02*
X82374761Y-139811937D01*
X82374761Y-139811937D02*
X82253809Y-139811937D01*
X82314285Y-140114318D02*
X82193333Y-140053842D01*
X82193333Y-140053842D02*
X82072380Y-139932889D01*
X82072380Y-139932889D02*
X82011904Y-139690984D01*
X82011904Y-139690984D02*
X82011904Y-139267651D01*
X82011904Y-139267651D02*
X82072380Y-139025746D01*
X82072380Y-139025746D02*
X82193333Y-138904794D01*
X82193333Y-138904794D02*
X82314285Y-138844318D01*
X82314285Y-138844318D02*
X82556190Y-138844318D01*
X82556190Y-138844318D02*
X82677142Y-138904794D01*
X82677142Y-138904794D02*
X82798095Y-139025746D01*
X82798095Y-139025746D02*
X82858571Y-139267651D01*
X82858571Y-139267651D02*
X82858571Y-139690984D01*
X82858571Y-139690984D02*
X82798095Y-139932889D01*
X82798095Y-139932889D02*
X82677142Y-140053842D01*
X82677142Y-140053842D02*
X82556190Y-140114318D01*
X82556190Y-140114318D02*
X82314285Y-140114318D01*
X83342380Y-138965270D02*
X83402856Y-138904794D01*
X83402856Y-138904794D02*
X83523809Y-138844318D01*
X83523809Y-138844318D02*
X83826190Y-138844318D01*
X83826190Y-138844318D02*
X83947142Y-138904794D01*
X83947142Y-138904794D02*
X84007618Y-138965270D01*
X84007618Y-138965270D02*
X84068095Y-139086222D01*
X84068095Y-139086222D02*
X84068095Y-139207175D01*
X84068095Y-139207175D02*
X84007618Y-139388603D01*
X84007618Y-139388603D02*
X83281904Y-140114318D01*
X83281904Y-140114318D02*
X84068095Y-140114318D01*
D12*
X76299580Y-84932857D02*
X76347200Y-84980476D01*
X76347200Y-84980476D02*
X76394819Y-85123333D01*
X76394819Y-85123333D02*
X76394819Y-85218571D01*
X76394819Y-85218571D02*
X76347200Y-85361428D01*
X76347200Y-85361428D02*
X76251961Y-85456666D01*
X76251961Y-85456666D02*
X76156723Y-85504285D01*
X76156723Y-85504285D02*
X75966247Y-85551904D01*
X75966247Y-85551904D02*
X75823390Y-85551904D01*
X75823390Y-85551904D02*
X75632914Y-85504285D01*
X75632914Y-85504285D02*
X75537676Y-85456666D01*
X75537676Y-85456666D02*
X75442438Y-85361428D01*
X75442438Y-85361428D02*
X75394819Y-85218571D01*
X75394819Y-85218571D02*
X75394819Y-85123333D01*
X75394819Y-85123333D02*
X75442438Y-84980476D01*
X75442438Y-84980476D02*
X75490057Y-84932857D01*
X76394819Y-83980476D02*
X76394819Y-84551904D01*
X76394819Y-84266190D02*
X75394819Y-84266190D01*
X75394819Y-84266190D02*
X75537676Y-84361428D01*
X75537676Y-84361428D02*
X75632914Y-84456666D01*
X75632914Y-84456666D02*
X75680533Y-84551904D01*
X75490057Y-83599523D02*
X75442438Y-83551904D01*
X75442438Y-83551904D02*
X75394819Y-83456666D01*
X75394819Y-83456666D02*
X75394819Y-83218571D01*
X75394819Y-83218571D02*
X75442438Y-83123333D01*
X75442438Y-83123333D02*
X75490057Y-83075714D01*
X75490057Y-83075714D02*
X75585295Y-83028095D01*
X75585295Y-83028095D02*
X75680533Y-83028095D01*
X75680533Y-83028095D02*
X75823390Y-83075714D01*
X75823390Y-83075714D02*
X76394819Y-83647142D01*
X76394819Y-83647142D02*
X76394819Y-83028095D01*
X95673333Y-142564819D02*
X95340000Y-142088628D01*
X95101905Y-142564819D02*
X95101905Y-141564819D01*
X95101905Y-141564819D02*
X95482857Y-141564819D01*
X95482857Y-141564819D02*
X95578095Y-141612438D01*
X95578095Y-141612438D02*
X95625714Y-141660057D01*
X95625714Y-141660057D02*
X95673333Y-141755295D01*
X95673333Y-141755295D02*
X95673333Y-141898152D01*
X95673333Y-141898152D02*
X95625714Y-141993390D01*
X95625714Y-141993390D02*
X95578095Y-142041009D01*
X95578095Y-142041009D02*
X95482857Y-142088628D01*
X95482857Y-142088628D02*
X95101905Y-142088628D01*
X96625714Y-142564819D02*
X96054286Y-142564819D01*
X96340000Y-142564819D02*
X96340000Y-141564819D01*
X96340000Y-141564819D02*
X96244762Y-141707676D01*
X96244762Y-141707676D02*
X96149524Y-141802914D01*
X96149524Y-141802914D02*
X96054286Y-141850533D01*
X80299580Y-120139046D02*
X80347200Y-120186665D01*
X80347200Y-120186665D02*
X80394819Y-120329522D01*
X80394819Y-120329522D02*
X80394819Y-120424760D01*
X80394819Y-120424760D02*
X80347200Y-120567617D01*
X80347200Y-120567617D02*
X80251961Y-120662855D01*
X80251961Y-120662855D02*
X80156723Y-120710474D01*
X80156723Y-120710474D02*
X79966247Y-120758093D01*
X79966247Y-120758093D02*
X79823390Y-120758093D01*
X79823390Y-120758093D02*
X79632914Y-120710474D01*
X79632914Y-120710474D02*
X79537676Y-120662855D01*
X79537676Y-120662855D02*
X79442438Y-120567617D01*
X79442438Y-120567617D02*
X79394819Y-120424760D01*
X79394819Y-120424760D02*
X79394819Y-120329522D01*
X79394819Y-120329522D02*
X79442438Y-120186665D01*
X79442438Y-120186665D02*
X79490057Y-120139046D01*
X79490057Y-119758093D02*
X79442438Y-119710474D01*
X79442438Y-119710474D02*
X79394819Y-119615236D01*
X79394819Y-119615236D02*
X79394819Y-119377141D01*
X79394819Y-119377141D02*
X79442438Y-119281903D01*
X79442438Y-119281903D02*
X79490057Y-119234284D01*
X79490057Y-119234284D02*
X79585295Y-119186665D01*
X79585295Y-119186665D02*
X79680533Y-119186665D01*
X79680533Y-119186665D02*
X79823390Y-119234284D01*
X79823390Y-119234284D02*
X80394819Y-119805712D01*
X80394819Y-119805712D02*
X80394819Y-119186665D01*
X103173333Y-92329580D02*
X103125714Y-92377200D01*
X103125714Y-92377200D02*
X102982857Y-92424819D01*
X102982857Y-92424819D02*
X102887619Y-92424819D01*
X102887619Y-92424819D02*
X102744762Y-92377200D01*
X102744762Y-92377200D02*
X102649524Y-92281961D01*
X102649524Y-92281961D02*
X102601905Y-92186723D01*
X102601905Y-92186723D02*
X102554286Y-91996247D01*
X102554286Y-91996247D02*
X102554286Y-91853390D01*
X102554286Y-91853390D02*
X102601905Y-91662914D01*
X102601905Y-91662914D02*
X102649524Y-91567676D01*
X102649524Y-91567676D02*
X102744762Y-91472438D01*
X102744762Y-91472438D02*
X102887619Y-91424819D01*
X102887619Y-91424819D02*
X102982857Y-91424819D01*
X102982857Y-91424819D02*
X103125714Y-91472438D01*
X103125714Y-91472438D02*
X103173333Y-91520057D01*
X103649524Y-92424819D02*
X103840000Y-92424819D01*
X103840000Y-92424819D02*
X103935238Y-92377200D01*
X103935238Y-92377200D02*
X103982857Y-92329580D01*
X103982857Y-92329580D02*
X104078095Y-92186723D01*
X104078095Y-92186723D02*
X104125714Y-91996247D01*
X104125714Y-91996247D02*
X104125714Y-91615295D01*
X104125714Y-91615295D02*
X104078095Y-91520057D01*
X104078095Y-91520057D02*
X104030476Y-91472438D01*
X104030476Y-91472438D02*
X103935238Y-91424819D01*
X103935238Y-91424819D02*
X103744762Y-91424819D01*
X103744762Y-91424819D02*
X103649524Y-91472438D01*
X103649524Y-91472438D02*
X103601905Y-91520057D01*
X103601905Y-91520057D02*
X103554286Y-91615295D01*
X103554286Y-91615295D02*
X103554286Y-91853390D01*
X103554286Y-91853390D02*
X103601905Y-91948628D01*
X103601905Y-91948628D02*
X103649524Y-91996247D01*
X103649524Y-91996247D02*
X103744762Y-92043866D01*
X103744762Y-92043866D02*
X103935238Y-92043866D01*
X103935238Y-92043866D02*
X104030476Y-91996247D01*
X104030476Y-91996247D02*
X104078095Y-91948628D01*
X104078095Y-91948628D02*
X104125714Y-91853390D01*
X87673333Y-67064819D02*
X87340000Y-66588628D01*
X87101905Y-67064819D02*
X87101905Y-66064819D01*
X87101905Y-66064819D02*
X87482857Y-66064819D01*
X87482857Y-66064819D02*
X87578095Y-66112438D01*
X87578095Y-66112438D02*
X87625714Y-66160057D01*
X87625714Y-66160057D02*
X87673333Y-66255295D01*
X87673333Y-66255295D02*
X87673333Y-66398152D01*
X87673333Y-66398152D02*
X87625714Y-66493390D01*
X87625714Y-66493390D02*
X87578095Y-66541009D01*
X87578095Y-66541009D02*
X87482857Y-66588628D01*
X87482857Y-66588628D02*
X87101905Y-66588628D01*
X88530476Y-66064819D02*
X88340000Y-66064819D01*
X88340000Y-66064819D02*
X88244762Y-66112438D01*
X88244762Y-66112438D02*
X88197143Y-66160057D01*
X88197143Y-66160057D02*
X88101905Y-66302914D01*
X88101905Y-66302914D02*
X88054286Y-66493390D01*
X88054286Y-66493390D02*
X88054286Y-66874342D01*
X88054286Y-66874342D02*
X88101905Y-66969580D01*
X88101905Y-66969580D02*
X88149524Y-67017200D01*
X88149524Y-67017200D02*
X88244762Y-67064819D01*
X88244762Y-67064819D02*
X88435238Y-67064819D01*
X88435238Y-67064819D02*
X88530476Y-67017200D01*
X88530476Y-67017200D02*
X88578095Y-66969580D01*
X88578095Y-66969580D02*
X88625714Y-66874342D01*
X88625714Y-66874342D02*
X88625714Y-66636247D01*
X88625714Y-66636247D02*
X88578095Y-66541009D01*
X88578095Y-66541009D02*
X88530476Y-66493390D01*
X88530476Y-66493390D02*
X88435238Y-66445771D01*
X88435238Y-66445771D02*
X88244762Y-66445771D01*
X88244762Y-66445771D02*
X88149524Y-66493390D01*
X88149524Y-66493390D02*
X88101905Y-66541009D01*
X88101905Y-66541009D02*
X88054286Y-66636247D01*
D13*
X73420318Y-129477619D02*
X74448413Y-129477619D01*
X74448413Y-129477619D02*
X74569365Y-129417142D01*
X74569365Y-129417142D02*
X74629842Y-129356666D01*
X74629842Y-129356666D02*
X74690318Y-129235714D01*
X74690318Y-129235714D02*
X74690318Y-128993809D01*
X74690318Y-128993809D02*
X74629842Y-128872857D01*
X74629842Y-128872857D02*
X74569365Y-128812380D01*
X74569365Y-128812380D02*
X74448413Y-128751904D01*
X74448413Y-128751904D02*
X73420318Y-128751904D01*
X73420318Y-128268095D02*
X73420318Y-127481904D01*
X73420318Y-127481904D02*
X73904127Y-127905238D01*
X73904127Y-127905238D02*
X73904127Y-127723809D01*
X73904127Y-127723809D02*
X73964603Y-127602857D01*
X73964603Y-127602857D02*
X74025080Y-127542381D01*
X74025080Y-127542381D02*
X74146032Y-127481904D01*
X74146032Y-127481904D02*
X74448413Y-127481904D01*
X74448413Y-127481904D02*
X74569365Y-127542381D01*
X74569365Y-127542381D02*
X74629842Y-127602857D01*
X74629842Y-127602857D02*
X74690318Y-127723809D01*
X74690318Y-127723809D02*
X74690318Y-128086666D01*
X74690318Y-128086666D02*
X74629842Y-128207619D01*
X74629842Y-128207619D02*
X74569365Y-128268095D01*
D14*
%TO.C,Q9*%
X120190000Y-129980000D02*
X119540000Y-129980000D01*
X120190000Y-129980000D02*
X120840000Y-129980000D01*
X120190000Y-133100000D02*
X119540000Y-133100000D01*
X120190000Y-133100000D02*
X120840000Y-133100000D01*
X119027500Y-130030000D02*
X118787500Y-129700000D01*
X119267500Y-129700000D01*
X119027500Y-130030000D01*
G36*
X119027500Y-130030000D02*
G01*
X118787500Y-129700000D01*
X119267500Y-129700000D01*
X119027500Y-130030000D01*
G37*
%TO.C,C11*%
X137089759Y-80201000D02*
X137719759Y-80201000D01*
X137404759Y-79886000D02*
X137404759Y-80516000D01*
X140590000Y-78810000D02*
X140590000Y-85270000D01*
X140630000Y-78810000D02*
X140630000Y-85270000D01*
X140670000Y-78810000D02*
X140670000Y-85270000D01*
X140710000Y-78812000D02*
X140710000Y-85268000D01*
X140750000Y-78813000D02*
X140750000Y-85267000D01*
X140790000Y-78816000D02*
X140790000Y-85264000D01*
X140830000Y-78818000D02*
X140830000Y-81000000D01*
X140830000Y-83080000D02*
X140830000Y-85262000D01*
X140870000Y-78822000D02*
X140870000Y-81000000D01*
X140870000Y-83080000D02*
X140870000Y-85258000D01*
X140910000Y-78825000D02*
X140910000Y-81000000D01*
X140910000Y-83080000D02*
X140910000Y-85255000D01*
X140950000Y-78829000D02*
X140950000Y-81000000D01*
X140950000Y-83080000D02*
X140950000Y-85251000D01*
X140990000Y-78834000D02*
X140990000Y-81000000D01*
X140990000Y-83080000D02*
X140990000Y-85246000D01*
X141030000Y-78839000D02*
X141030000Y-81000000D01*
X141030000Y-83080000D02*
X141030000Y-85241000D01*
X141070000Y-78845000D02*
X141070000Y-81000000D01*
X141070000Y-83080000D02*
X141070000Y-85235000D01*
X141110000Y-78851000D02*
X141110000Y-81000000D01*
X141110000Y-83080000D02*
X141110000Y-85229000D01*
X141150000Y-78858000D02*
X141150000Y-81000000D01*
X141150000Y-83080000D02*
X141150000Y-85222000D01*
X141190000Y-78865000D02*
X141190000Y-81000000D01*
X141190000Y-83080000D02*
X141190000Y-85215000D01*
X141230000Y-78873000D02*
X141230000Y-81000000D01*
X141230000Y-83080000D02*
X141230000Y-85207000D01*
X141270000Y-78881000D02*
X141270000Y-81000000D01*
X141270000Y-83080000D02*
X141270000Y-85199000D01*
X141311000Y-78890000D02*
X141311000Y-81000000D01*
X141311000Y-83080000D02*
X141311000Y-85190000D01*
X141351000Y-78899000D02*
X141351000Y-81000000D01*
X141351000Y-83080000D02*
X141351000Y-85181000D01*
X141391000Y-78909000D02*
X141391000Y-81000000D01*
X141391000Y-83080000D02*
X141391000Y-85171000D01*
X141431000Y-78919000D02*
X141431000Y-81000000D01*
X141431000Y-83080000D02*
X141431000Y-85161000D01*
X141471000Y-78930000D02*
X141471000Y-81000000D01*
X141471000Y-83080000D02*
X141471000Y-85150000D01*
X141511000Y-78942000D02*
X141511000Y-81000000D01*
X141511000Y-83080000D02*
X141511000Y-85138000D01*
X141551000Y-78954000D02*
X141551000Y-81000000D01*
X141551000Y-83080000D02*
X141551000Y-85126000D01*
X141591000Y-78966000D02*
X141591000Y-81000000D01*
X141591000Y-83080000D02*
X141591000Y-85114000D01*
X141631000Y-78979000D02*
X141631000Y-81000000D01*
X141631000Y-83080000D02*
X141631000Y-85101000D01*
X141671000Y-78993000D02*
X141671000Y-81000000D01*
X141671000Y-83080000D02*
X141671000Y-85087000D01*
X141711000Y-79007000D02*
X141711000Y-81000000D01*
X141711000Y-83080000D02*
X141711000Y-85073000D01*
X141751000Y-79022000D02*
X141751000Y-81000000D01*
X141751000Y-83080000D02*
X141751000Y-85058000D01*
X141791000Y-79038000D02*
X141791000Y-81000000D01*
X141791000Y-83080000D02*
X141791000Y-85042000D01*
X141831000Y-79054000D02*
X141831000Y-81000000D01*
X141831000Y-83080000D02*
X141831000Y-85026000D01*
X141871000Y-79070000D02*
X141871000Y-81000000D01*
X141871000Y-83080000D02*
X141871000Y-85010000D01*
X141911000Y-79088000D02*
X141911000Y-81000000D01*
X141911000Y-83080000D02*
X141911000Y-84992000D01*
X141951000Y-79106000D02*
X141951000Y-81000000D01*
X141951000Y-83080000D02*
X141951000Y-84974000D01*
X141991000Y-79124000D02*
X141991000Y-81000000D01*
X141991000Y-83080000D02*
X141991000Y-84956000D01*
X142031000Y-79144000D02*
X142031000Y-81000000D01*
X142031000Y-83080000D02*
X142031000Y-84936000D01*
X142071000Y-79164000D02*
X142071000Y-81000000D01*
X142071000Y-83080000D02*
X142071000Y-84916000D01*
X142111000Y-79184000D02*
X142111000Y-81000000D01*
X142111000Y-83080000D02*
X142111000Y-84896000D01*
X142151000Y-79206000D02*
X142151000Y-81000000D01*
X142151000Y-83080000D02*
X142151000Y-84874000D01*
X142191000Y-79228000D02*
X142191000Y-81000000D01*
X142191000Y-83080000D02*
X142191000Y-84852000D01*
X142231000Y-79250000D02*
X142231000Y-81000000D01*
X142231000Y-83080000D02*
X142231000Y-84830000D01*
X142271000Y-79274000D02*
X142271000Y-81000000D01*
X142271000Y-83080000D02*
X142271000Y-84806000D01*
X142311000Y-79298000D02*
X142311000Y-81000000D01*
X142311000Y-83080000D02*
X142311000Y-84782000D01*
X142351000Y-79324000D02*
X142351000Y-81000000D01*
X142351000Y-83080000D02*
X142351000Y-84756000D01*
X142391000Y-79350000D02*
X142391000Y-81000000D01*
X142391000Y-83080000D02*
X142391000Y-84730000D01*
X142431000Y-79376000D02*
X142431000Y-81000000D01*
X142431000Y-83080000D02*
X142431000Y-84704000D01*
X142471000Y-79404000D02*
X142471000Y-81000000D01*
X142471000Y-83080000D02*
X142471000Y-84676000D01*
X142511000Y-79433000D02*
X142511000Y-81000000D01*
X142511000Y-83080000D02*
X142511000Y-84647000D01*
X142551000Y-79462000D02*
X142551000Y-81000000D01*
X142551000Y-83080000D02*
X142551000Y-84618000D01*
X142591000Y-79492000D02*
X142591000Y-81000000D01*
X142591000Y-83080000D02*
X142591000Y-84588000D01*
X142631000Y-79524000D02*
X142631000Y-81000000D01*
X142631000Y-83080000D02*
X142631000Y-84556000D01*
X142671000Y-79556000D02*
X142671000Y-81000000D01*
X142671000Y-83080000D02*
X142671000Y-84524000D01*
X142711000Y-79590000D02*
X142711000Y-81000000D01*
X142711000Y-83080000D02*
X142711000Y-84490000D01*
X142751000Y-79624000D02*
X142751000Y-81000000D01*
X142751000Y-83080000D02*
X142751000Y-84456000D01*
X142791000Y-79660000D02*
X142791000Y-81000000D01*
X142791000Y-83080000D02*
X142791000Y-84420000D01*
X142831000Y-79697000D02*
X142831000Y-81000000D01*
X142831000Y-83080000D02*
X142831000Y-84383000D01*
X142871000Y-79735000D02*
X142871000Y-81000000D01*
X142871000Y-83080000D02*
X142871000Y-84345000D01*
X142911000Y-79775000D02*
X142911000Y-84305000D01*
X142951000Y-79816000D02*
X142951000Y-84264000D01*
X142991000Y-79858000D02*
X142991000Y-84222000D01*
X143031000Y-79903000D02*
X143031000Y-84177000D01*
X143071000Y-79948000D02*
X143071000Y-84132000D01*
X143111000Y-79996000D02*
X143111000Y-84084000D01*
X143151000Y-80045000D02*
X143151000Y-84035000D01*
X143191000Y-80096000D02*
X143191000Y-83984000D01*
X143231000Y-80150000D02*
X143231000Y-83930000D01*
X143271000Y-80206000D02*
X143271000Y-83874000D01*
X143311000Y-80264000D02*
X143311000Y-83816000D01*
X143351000Y-80326000D02*
X143351000Y-83754000D01*
X143391000Y-80390000D02*
X143391000Y-83690000D01*
X143431000Y-80459000D02*
X143431000Y-83621000D01*
X143471000Y-80531000D02*
X143471000Y-83549000D01*
X143511000Y-80608000D02*
X143511000Y-83472000D01*
X143551000Y-80690000D02*
X143551000Y-83390000D01*
X143591000Y-80778000D02*
X143591000Y-83302000D01*
X143631000Y-80875000D02*
X143631000Y-83205000D01*
X143671000Y-80981000D02*
X143671000Y-83099000D01*
X143711000Y-81100000D02*
X143711000Y-82980000D01*
X143751000Y-81238000D02*
X143751000Y-82842000D01*
X143791000Y-81407000D02*
X143791000Y-82673000D01*
X143831000Y-81638000D02*
X143831000Y-82442000D01*
X143860000Y-82040000D02*
G75*
G02*
X137320000Y-82040000I-3270000J0D01*
G01*
X137320000Y-82040000D02*
G75*
G02*
X143860000Y-82040000I3270000J0D01*
G01*
D10*
%TO.C,VR1*%
X112920000Y-142775000D02*
X117750000Y-142775000D01*
X112920000Y-152305000D02*
X112920000Y-142775000D01*
X117750000Y-142775000D02*
X117750000Y-152305000D01*
X117750000Y-152305000D02*
X112920000Y-152305000D01*
D15*
X118540000Y-150140000D02*
X118540000Y-150140000D01*
X118740000Y-150140000D02*
X118740000Y-150140000D01*
X118540000Y-150140000D02*
G75*
G02*
X118740000Y-150140000I100000J0D01*
G01*
X118740000Y-150140000D02*
G75*
G02*
X118540000Y-150140000I-100000J0D01*
G01*
%TO.C,Q3*%
X108740000Y-142490000D02*
X108740000Y-149190000D01*
X108740000Y-149190000D02*
X110340000Y-149190000D01*
X111240000Y-142490000D02*
X108740000Y-142490000D01*
D14*
%TO.C,R14*%
X84094724Y-89017500D02*
X83585276Y-89017500D01*
X84094724Y-90062500D02*
X83585276Y-90062500D01*
%TO.C,R8*%
X127094724Y-75517500D02*
X126585276Y-75517500D01*
X127094724Y-76562500D02*
X126585276Y-76562500D01*
%TO.C,SW4*%
X83080000Y-152460000D02*
X83080000Y-147620000D01*
X86000000Y-149405000D02*
X86000000Y-150675000D01*
X86000000Y-150675000D02*
X90060000Y-150675000D01*
X88706667Y-150675000D02*
X88706667Y-149405000D01*
X90060000Y-149405000D02*
X86000000Y-149405000D01*
X90060000Y-149475000D02*
X88706667Y-149475000D01*
X90060000Y-149595000D02*
X88706667Y-149595000D01*
X90060000Y-149715000D02*
X88706667Y-149715000D01*
X90060000Y-149835000D02*
X88706667Y-149835000D01*
X90060000Y-149955000D02*
X88706667Y-149955000D01*
X90060000Y-150075000D02*
X88706667Y-150075000D01*
X90060000Y-150195000D02*
X88706667Y-150195000D01*
X90060000Y-150315000D02*
X88706667Y-150315000D01*
X90060000Y-150435000D02*
X88706667Y-150435000D01*
X90060000Y-150555000D02*
X88706667Y-150555000D01*
X90060000Y-150675000D02*
X90060000Y-149405000D01*
X92980000Y-147620000D02*
X83080000Y-147620000D01*
X92980000Y-152460000D02*
X83080000Y-152460000D01*
X92980000Y-152460000D02*
X92980000Y-147620000D01*
X93220000Y-152700000D02*
X91836000Y-152700000D01*
X93220000Y-152700000D02*
X93220000Y-151317000D01*
%TO.C,R18*%
X90317500Y-120794724D02*
X90317500Y-120285276D01*
X91362500Y-120794724D02*
X91362500Y-120285276D01*
D10*
%TO.C,DS1*%
X88840000Y-67290000D02*
X118840000Y-67290000D01*
X88840000Y-86790000D02*
X88840000Y-67290000D01*
X96340000Y-86790000D02*
X88840000Y-86790000D01*
D16*
X97840000Y-88790000D02*
X97940000Y-88790000D01*
X97940000Y-88790000D02*
X97940000Y-88790000D01*
D10*
X118840000Y-67290000D02*
X118840000Y-86790000D01*
X118840000Y-86790000D02*
X111340000Y-86790000D01*
D16*
X97840000Y-88790000D02*
G75*
G02*
X97940000Y-88790000I50000J0D01*
G01*
D10*
%TO.C,LS1*%
X109877500Y-127540000D02*
X109877500Y-127540000D01*
X109877500Y-139540000D02*
X109877500Y-139540000D01*
D15*
X116627500Y-133540000D02*
X116627500Y-133540000D01*
X116627500Y-133540000D02*
X116627500Y-133540000D01*
X116727500Y-133540000D02*
X116727500Y-133540000D01*
D10*
X109877500Y-127540000D02*
G75*
G02*
X109877500Y-139540000I0J-6000000D01*
G01*
X109877500Y-139540000D02*
G75*
G02*
X109877500Y-127540000I0J6000000D01*
G01*
D15*
X116627500Y-133540000D02*
G75*
G02*
X116727500Y-133540000I50000J0D01*
G01*
X116727500Y-133540000D02*
G75*
G02*
X116627500Y-133540000I-50000J0D01*
G01*
X116727500Y-133540000D02*
G75*
G02*
X116627500Y-133540000I-50000J0D01*
G01*
D14*
%TO.C,R3*%
X105817500Y-143885276D02*
X105817500Y-144394724D01*
X106862500Y-143885276D02*
X106862500Y-144394724D01*
%TO.C,R19*%
X90317500Y-116382224D02*
X90317500Y-115872776D01*
X91362500Y-116382224D02*
X91362500Y-115872776D01*
%TO.C,R15*%
X120585276Y-123517500D02*
X121094724Y-123517500D01*
X120585276Y-124562500D02*
X121094724Y-124562500D01*
%TO.C,C8*%
X98300000Y-128030000D02*
X96118000Y-128030000D01*
X98300000Y-128070000D02*
X96122000Y-128070000D01*
X98300000Y-128110000D02*
X96125000Y-128110000D01*
X98300000Y-128150000D02*
X96129000Y-128150000D01*
X98300000Y-128190000D02*
X96134000Y-128190000D01*
X98300000Y-128230000D02*
X96139000Y-128230000D01*
X98300000Y-128270000D02*
X96145000Y-128270000D01*
X98300000Y-128310000D02*
X96151000Y-128310000D01*
X98300000Y-128350000D02*
X96158000Y-128350000D01*
X98300000Y-128390000D02*
X96165000Y-128390000D01*
X98300000Y-128430000D02*
X96173000Y-128430000D01*
X98300000Y-128470000D02*
X96181000Y-128470000D01*
X98300000Y-128511000D02*
X96190000Y-128511000D01*
X98300000Y-128551000D02*
X96199000Y-128551000D01*
X98300000Y-128591000D02*
X96209000Y-128591000D01*
X98300000Y-128631000D02*
X96219000Y-128631000D01*
X98300000Y-128671000D02*
X96230000Y-128671000D01*
X98300000Y-128711000D02*
X96242000Y-128711000D01*
X98300000Y-128751000D02*
X96254000Y-128751000D01*
X98300000Y-128791000D02*
X96266000Y-128791000D01*
X98300000Y-128831000D02*
X96279000Y-128831000D01*
X98300000Y-128871000D02*
X96293000Y-128871000D01*
X98300000Y-128911000D02*
X96307000Y-128911000D01*
X98300000Y-128951000D02*
X96322000Y-128951000D01*
X98300000Y-128991000D02*
X96338000Y-128991000D01*
X98300000Y-129031000D02*
X96354000Y-129031000D01*
X98300000Y-129071000D02*
X96370000Y-129071000D01*
X98300000Y-129111000D02*
X96388000Y-129111000D01*
X98300000Y-129151000D02*
X96406000Y-129151000D01*
X98300000Y-129191000D02*
X96424000Y-129191000D01*
X98300000Y-129231000D02*
X96444000Y-129231000D01*
X98300000Y-129271000D02*
X96464000Y-129271000D01*
X98300000Y-129311000D02*
X96484000Y-129311000D01*
X98300000Y-129351000D02*
X96506000Y-129351000D01*
X98300000Y-129391000D02*
X96528000Y-129391000D01*
X98300000Y-129431000D02*
X96550000Y-129431000D01*
X98300000Y-129471000D02*
X96574000Y-129471000D01*
X98300000Y-129511000D02*
X96598000Y-129511000D01*
X98300000Y-129551000D02*
X96624000Y-129551000D01*
X98300000Y-129591000D02*
X96650000Y-129591000D01*
X98300000Y-129631000D02*
X96676000Y-129631000D01*
X98300000Y-129671000D02*
X96704000Y-129671000D01*
X98300000Y-129711000D02*
X96733000Y-129711000D01*
X98300000Y-129751000D02*
X96762000Y-129751000D01*
X98300000Y-129791000D02*
X96792000Y-129791000D01*
X98300000Y-129831000D02*
X96824000Y-129831000D01*
X98300000Y-129871000D02*
X96856000Y-129871000D01*
X98300000Y-129911000D02*
X96890000Y-129911000D01*
X98300000Y-129951000D02*
X96924000Y-129951000D01*
X98300000Y-129991000D02*
X96960000Y-129991000D01*
X98300000Y-130031000D02*
X96997000Y-130031000D01*
X98300000Y-130071000D02*
X97035000Y-130071000D01*
X99742000Y-131031000D02*
X98938000Y-131031000D01*
X99973000Y-130991000D02*
X98707000Y-130991000D01*
X100142000Y-130951000D02*
X98538000Y-130951000D01*
X100280000Y-130911000D02*
X98400000Y-130911000D01*
X100399000Y-130871000D02*
X98281000Y-130871000D01*
X100505000Y-130831000D02*
X98175000Y-130831000D01*
X100602000Y-130791000D02*
X98078000Y-130791000D01*
X100690000Y-130751000D02*
X97990000Y-130751000D01*
X100772000Y-130711000D02*
X97908000Y-130711000D01*
X100849000Y-130671000D02*
X97831000Y-130671000D01*
X100921000Y-130631000D02*
X97759000Y-130631000D01*
X100990000Y-130591000D02*
X97690000Y-130591000D01*
X101054000Y-130551000D02*
X97626000Y-130551000D01*
X101116000Y-130511000D02*
X97564000Y-130511000D01*
X101174000Y-130471000D02*
X97506000Y-130471000D01*
X101179000Y-124289759D02*
X101179000Y-124919759D01*
X101230000Y-130431000D02*
X97450000Y-130431000D01*
X101284000Y-130391000D02*
X97396000Y-130391000D01*
X101335000Y-130351000D02*
X97345000Y-130351000D01*
X101384000Y-130311000D02*
X97296000Y-130311000D01*
X101432000Y-130271000D02*
X97248000Y-130271000D01*
X101477000Y-130231000D02*
X97203000Y-130231000D01*
X101494000Y-124604759D02*
X100864000Y-124604759D01*
X101522000Y-130191000D02*
X97158000Y-130191000D01*
X101564000Y-130151000D02*
X97116000Y-130151000D01*
X101605000Y-130111000D02*
X97075000Y-130111000D01*
X101645000Y-130071000D02*
X100380000Y-130071000D01*
X101683000Y-130031000D02*
X100380000Y-130031000D01*
X101720000Y-129991000D02*
X100380000Y-129991000D01*
X101756000Y-129951000D02*
X100380000Y-129951000D01*
X101790000Y-129911000D02*
X100380000Y-129911000D01*
X101824000Y-129871000D02*
X100380000Y-129871000D01*
X101856000Y-129831000D02*
X100380000Y-129831000D01*
X101888000Y-129791000D02*
X100380000Y-129791000D01*
X101918000Y-129751000D02*
X100380000Y-129751000D01*
X101947000Y-129711000D02*
X100380000Y-129711000D01*
X101976000Y-129671000D02*
X100380000Y-129671000D01*
X102004000Y-129631000D02*
X100380000Y-129631000D01*
X102030000Y-129591000D02*
X100380000Y-129591000D01*
X102056000Y-129551000D02*
X100380000Y-129551000D01*
X102082000Y-129511000D02*
X100380000Y-129511000D01*
X102106000Y-129471000D02*
X100380000Y-129471000D01*
X102130000Y-129431000D02*
X100380000Y-129431000D01*
X102152000Y-129391000D02*
X100380000Y-129391000D01*
X102174000Y-129351000D02*
X100380000Y-129351000D01*
X102196000Y-129311000D02*
X100380000Y-129311000D01*
X102216000Y-129271000D02*
X100380000Y-129271000D01*
X102236000Y-129231000D02*
X100380000Y-129231000D01*
X102256000Y-129191000D02*
X100380000Y-129191000D01*
X102274000Y-129151000D02*
X100380000Y-129151000D01*
X102292000Y-129111000D02*
X100380000Y-129111000D01*
X102310000Y-129071000D02*
X100380000Y-129071000D01*
X102326000Y-129031000D02*
X100380000Y-129031000D01*
X102342000Y-128991000D02*
X100380000Y-128991000D01*
X102358000Y-128951000D02*
X100380000Y-128951000D01*
X102373000Y-128911000D02*
X100380000Y-128911000D01*
X102387000Y-128871000D02*
X100380000Y-128871000D01*
X102401000Y-128831000D02*
X100380000Y-128831000D01*
X102414000Y-128791000D02*
X100380000Y-128791000D01*
X102426000Y-128751000D02*
X100380000Y-128751000D01*
X102438000Y-128711000D02*
X100380000Y-128711000D01*
X102450000Y-128671000D02*
X100380000Y-128671000D01*
X102461000Y-128631000D02*
X100380000Y-128631000D01*
X102471000Y-128591000D02*
X100380000Y-128591000D01*
X102481000Y-128551000D02*
X100380000Y-128551000D01*
X102490000Y-128511000D02*
X100380000Y-128511000D01*
X102499000Y-128470000D02*
X100380000Y-128470000D01*
X102507000Y-128430000D02*
X100380000Y-128430000D01*
X102515000Y-128390000D02*
X100380000Y-128390000D01*
X102522000Y-128350000D02*
X100380000Y-128350000D01*
X102529000Y-128310000D02*
X100380000Y-128310000D01*
X102535000Y-128270000D02*
X100380000Y-128270000D01*
X102541000Y-128230000D02*
X100380000Y-128230000D01*
X102546000Y-128190000D02*
X100380000Y-128190000D01*
X102551000Y-128150000D02*
X100380000Y-128150000D01*
X102555000Y-128110000D02*
X100380000Y-128110000D01*
X102558000Y-128070000D02*
X100380000Y-128070000D01*
X102562000Y-128030000D02*
X100380000Y-128030000D01*
X102564000Y-127990000D02*
X96116000Y-127990000D01*
X102567000Y-127950000D02*
X96113000Y-127950000D01*
X102568000Y-127910000D02*
X96112000Y-127910000D01*
X102570000Y-127790000D02*
X96110000Y-127790000D01*
X102570000Y-127830000D02*
X96110000Y-127830000D01*
X102570000Y-127870000D02*
X96110000Y-127870000D01*
X102610000Y-127790000D02*
G75*
G02*
X96070000Y-127790000I-3270000J0D01*
G01*
X96070000Y-127790000D02*
G75*
G02*
X102610000Y-127790000I3270000J0D01*
G01*
%TO.C,C7*%
X90800000Y-127030000D02*
X88618000Y-127030000D01*
X90800000Y-127070000D02*
X88622000Y-127070000D01*
X90800000Y-127110000D02*
X88625000Y-127110000D01*
X90800000Y-127150000D02*
X88629000Y-127150000D01*
X90800000Y-127190000D02*
X88634000Y-127190000D01*
X90800000Y-127230000D02*
X88639000Y-127230000D01*
X90800000Y-127270000D02*
X88645000Y-127270000D01*
X90800000Y-127310000D02*
X88651000Y-127310000D01*
X90800000Y-127350000D02*
X88658000Y-127350000D01*
X90800000Y-127390000D02*
X88665000Y-127390000D01*
X90800000Y-127430000D02*
X88673000Y-127430000D01*
X90800000Y-127470000D02*
X88681000Y-127470000D01*
X90800000Y-127511000D02*
X88690000Y-127511000D01*
X90800000Y-127551000D02*
X88699000Y-127551000D01*
X90800000Y-127591000D02*
X88709000Y-127591000D01*
X90800000Y-127631000D02*
X88719000Y-127631000D01*
X90800000Y-127671000D02*
X88730000Y-127671000D01*
X90800000Y-127711000D02*
X88742000Y-127711000D01*
X90800000Y-127751000D02*
X88754000Y-127751000D01*
X90800000Y-127791000D02*
X88766000Y-127791000D01*
X90800000Y-127831000D02*
X88779000Y-127831000D01*
X90800000Y-127871000D02*
X88793000Y-127871000D01*
X90800000Y-127911000D02*
X88807000Y-127911000D01*
X90800000Y-127951000D02*
X88822000Y-127951000D01*
X90800000Y-127991000D02*
X88838000Y-127991000D01*
X90800000Y-128031000D02*
X88854000Y-128031000D01*
X90800000Y-128071000D02*
X88870000Y-128071000D01*
X90800000Y-128111000D02*
X88888000Y-128111000D01*
X90800000Y-128151000D02*
X88906000Y-128151000D01*
X90800000Y-128191000D02*
X88924000Y-128191000D01*
X90800000Y-128231000D02*
X88944000Y-128231000D01*
X90800000Y-128271000D02*
X88964000Y-128271000D01*
X90800000Y-128311000D02*
X88984000Y-128311000D01*
X90800000Y-128351000D02*
X89006000Y-128351000D01*
X90800000Y-128391000D02*
X89028000Y-128391000D01*
X90800000Y-128431000D02*
X89050000Y-128431000D01*
X90800000Y-128471000D02*
X89074000Y-128471000D01*
X90800000Y-128511000D02*
X89098000Y-128511000D01*
X90800000Y-128551000D02*
X89124000Y-128551000D01*
X90800000Y-128591000D02*
X89150000Y-128591000D01*
X90800000Y-128631000D02*
X89176000Y-128631000D01*
X90800000Y-128671000D02*
X89204000Y-128671000D01*
X90800000Y-128711000D02*
X89233000Y-128711000D01*
X90800000Y-128751000D02*
X89262000Y-128751000D01*
X90800000Y-128791000D02*
X89292000Y-128791000D01*
X90800000Y-128831000D02*
X89324000Y-128831000D01*
X90800000Y-128871000D02*
X89356000Y-128871000D01*
X90800000Y-128911000D02*
X89390000Y-128911000D01*
X90800000Y-128951000D02*
X89424000Y-128951000D01*
X90800000Y-128991000D02*
X89460000Y-128991000D01*
X90800000Y-129031000D02*
X89497000Y-129031000D01*
X90800000Y-129071000D02*
X89535000Y-129071000D01*
X92242000Y-130031000D02*
X91438000Y-130031000D01*
X92473000Y-129991000D02*
X91207000Y-129991000D01*
X92642000Y-129951000D02*
X91038000Y-129951000D01*
X92780000Y-129911000D02*
X90900000Y-129911000D01*
X92899000Y-129871000D02*
X90781000Y-129871000D01*
X93005000Y-129831000D02*
X90675000Y-129831000D01*
X93102000Y-129791000D02*
X90578000Y-129791000D01*
X93190000Y-129751000D02*
X90490000Y-129751000D01*
X93272000Y-129711000D02*
X90408000Y-129711000D01*
X93349000Y-129671000D02*
X90331000Y-129671000D01*
X93421000Y-129631000D02*
X90259000Y-129631000D01*
X93490000Y-129591000D02*
X90190000Y-129591000D01*
X93554000Y-129551000D02*
X90126000Y-129551000D01*
X93616000Y-129511000D02*
X90064000Y-129511000D01*
X93674000Y-129471000D02*
X90006000Y-129471000D01*
X93679000Y-123289759D02*
X93679000Y-123919759D01*
X93730000Y-129431000D02*
X89950000Y-129431000D01*
X93784000Y-129391000D02*
X89896000Y-129391000D01*
X93835000Y-129351000D02*
X89845000Y-129351000D01*
X93884000Y-129311000D02*
X89796000Y-129311000D01*
X93932000Y-129271000D02*
X89748000Y-129271000D01*
X93977000Y-129231000D02*
X89703000Y-129231000D01*
X93994000Y-123604759D02*
X93364000Y-123604759D01*
X94022000Y-129191000D02*
X89658000Y-129191000D01*
X94064000Y-129151000D02*
X89616000Y-129151000D01*
X94105000Y-129111000D02*
X89575000Y-129111000D01*
X94145000Y-129071000D02*
X92880000Y-129071000D01*
X94183000Y-129031000D02*
X92880000Y-129031000D01*
X94220000Y-128991000D02*
X92880000Y-128991000D01*
X94256000Y-128951000D02*
X92880000Y-128951000D01*
X94290000Y-128911000D02*
X92880000Y-128911000D01*
X94324000Y-128871000D02*
X92880000Y-128871000D01*
X94356000Y-128831000D02*
X92880000Y-128831000D01*
X94388000Y-128791000D02*
X92880000Y-128791000D01*
X94418000Y-128751000D02*
X92880000Y-128751000D01*
X94447000Y-128711000D02*
X92880000Y-128711000D01*
X94476000Y-128671000D02*
X92880000Y-128671000D01*
X94504000Y-128631000D02*
X92880000Y-128631000D01*
X94530000Y-128591000D02*
X92880000Y-128591000D01*
X94556000Y-128551000D02*
X92880000Y-128551000D01*
X94582000Y-128511000D02*
X92880000Y-128511000D01*
X94606000Y-128471000D02*
X92880000Y-128471000D01*
X94630000Y-128431000D02*
X92880000Y-128431000D01*
X94652000Y-128391000D02*
X92880000Y-128391000D01*
X94674000Y-128351000D02*
X92880000Y-128351000D01*
X94696000Y-128311000D02*
X92880000Y-128311000D01*
X94716000Y-128271000D02*
X92880000Y-128271000D01*
X94736000Y-128231000D02*
X92880000Y-128231000D01*
X94756000Y-128191000D02*
X92880000Y-128191000D01*
X94774000Y-128151000D02*
X92880000Y-128151000D01*
X94792000Y-128111000D02*
X92880000Y-128111000D01*
X94810000Y-128071000D02*
X92880000Y-128071000D01*
X94826000Y-128031000D02*
X92880000Y-128031000D01*
X94842000Y-127991000D02*
X92880000Y-127991000D01*
X94858000Y-127951000D02*
X92880000Y-127951000D01*
X94873000Y-127911000D02*
X92880000Y-127911000D01*
X94887000Y-127871000D02*
X92880000Y-127871000D01*
X94901000Y-127831000D02*
X92880000Y-127831000D01*
X94914000Y-127791000D02*
X92880000Y-127791000D01*
X94926000Y-127751000D02*
X92880000Y-127751000D01*
X94938000Y-127711000D02*
X92880000Y-127711000D01*
X94950000Y-127671000D02*
X92880000Y-127671000D01*
X94961000Y-127631000D02*
X92880000Y-127631000D01*
X94971000Y-127591000D02*
X92880000Y-127591000D01*
X94981000Y-127551000D02*
X92880000Y-127551000D01*
X94990000Y-127511000D02*
X92880000Y-127511000D01*
X94999000Y-127470000D02*
X92880000Y-127470000D01*
X95007000Y-127430000D02*
X92880000Y-127430000D01*
X95015000Y-127390000D02*
X92880000Y-127390000D01*
X95022000Y-127350000D02*
X92880000Y-127350000D01*
X95029000Y-127310000D02*
X92880000Y-127310000D01*
X95035000Y-127270000D02*
X92880000Y-127270000D01*
X95041000Y-127230000D02*
X92880000Y-127230000D01*
X95046000Y-127190000D02*
X92880000Y-127190000D01*
X95051000Y-127150000D02*
X92880000Y-127150000D01*
X95055000Y-127110000D02*
X92880000Y-127110000D01*
X95058000Y-127070000D02*
X92880000Y-127070000D01*
X95062000Y-127030000D02*
X92880000Y-127030000D01*
X95064000Y-126990000D02*
X88616000Y-126990000D01*
X95067000Y-126950000D02*
X88613000Y-126950000D01*
X95068000Y-126910000D02*
X88612000Y-126910000D01*
X95070000Y-126790000D02*
X88610000Y-126790000D01*
X95070000Y-126830000D02*
X88610000Y-126830000D01*
X95070000Y-126870000D02*
X88610000Y-126870000D01*
X95110000Y-126790000D02*
G75*
G02*
X88570000Y-126790000I-3270000J0D01*
G01*
X88570000Y-126790000D02*
G75*
G02*
X95110000Y-126790000I3270000J0D01*
G01*
D15*
%TO.C,IC2*%
X129860000Y-96780000D02*
X130410000Y-96780000D01*
X129860000Y-99680000D02*
X129860000Y-96780000D01*
X130410000Y-96780000D02*
X130410000Y-99680000D01*
X130410000Y-99680000D02*
X129860000Y-99680000D01*
X132010000Y-99730000D02*
X130760000Y-99730000D01*
D14*
%TO.C,C6*%
X102830000Y-144280580D02*
X102830000Y-143999420D01*
X103850000Y-144280580D02*
X103850000Y-143999420D01*
%TO.C,D3*%
X121327500Y-90275000D02*
X123612500Y-90275000D01*
X123612500Y-88805000D02*
X121327500Y-88805000D01*
X123612500Y-90275000D02*
X123612500Y-88805000D01*
%TO.C,D2*%
X106142500Y-123805000D02*
X106142500Y-125275000D01*
X106142500Y-125275000D02*
X108427500Y-125275000D01*
X108427500Y-123805000D02*
X106142500Y-123805000D01*
%TO.C,SW1*%
X110340000Y-117290000D02*
X110340000Y-118790000D01*
X111590000Y-121290000D02*
X116090000Y-121290000D01*
X116090000Y-114790000D02*
X111590000Y-114790000D01*
X117340000Y-118790000D02*
X117340000Y-117290000D01*
%TO.C,Q8*%
X93340000Y-72980000D02*
X92690000Y-72980000D01*
X93340000Y-72980000D02*
X93990000Y-72980000D01*
X93340000Y-76100000D02*
X92690000Y-76100000D01*
X93340000Y-76100000D02*
X93990000Y-76100000D01*
X94742500Y-76380000D02*
X94262500Y-76380000D01*
X94502500Y-76050000D01*
X94742500Y-76380000D01*
G36*
X94742500Y-76380000D02*
G01*
X94262500Y-76380000D01*
X94502500Y-76050000D01*
X94742500Y-76380000D01*
G37*
%TO.C,D1*%
X84605000Y-143240000D02*
X84605000Y-145525000D01*
X84605000Y-145525000D02*
X86075000Y-145525000D01*
X86075000Y-145525000D02*
X86075000Y-143240000D01*
%TO.C,R13*%
X89317500Y-75247776D02*
X89317500Y-75757224D01*
X90362500Y-75247776D02*
X90362500Y-75757224D01*
%TO.C,C3*%
X95480580Y-113030000D02*
X95199420Y-113030000D01*
X95480580Y-114050000D02*
X95199420Y-114050000D01*
%TO.C,R4*%
X109085276Y-90017500D02*
X109594724Y-90017500D01*
X109085276Y-91062500D02*
X109594724Y-91062500D01*
%TO.C,C5*%
X129424420Y-100910000D02*
X129705580Y-100910000D01*
X129424420Y-101930000D02*
X129705580Y-101930000D01*
D17*
%TO.C,U1*%
X77010000Y-92150000D02*
X127300000Y-92150000D01*
X77010000Y-110690000D02*
X77010000Y-92150000D01*
X127300000Y-92150000D02*
X127300000Y-110690000D01*
X127300000Y-110690000D02*
X77010000Y-110690000D01*
D15*
X85755000Y-111420000D02*
G75*
G02*
X85555000Y-111420000I-100000J0D01*
G01*
X85555000Y-111420000D02*
G75*
G02*
X85755000Y-111420000I100000J0D01*
G01*
D14*
%TO.C,Q1*%
X104402500Y-72530000D02*
X103752500Y-72530000D01*
X104402500Y-72530000D02*
X105052500Y-72530000D01*
X104402500Y-75650000D02*
X103752500Y-75650000D01*
X104402500Y-75650000D02*
X105052500Y-75650000D01*
X105805000Y-75930000D02*
X105325000Y-75930000D01*
X105565000Y-75600000D01*
X105805000Y-75930000D01*
G36*
X105805000Y-75930000D02*
G01*
X105325000Y-75930000D01*
X105565000Y-75600000D01*
X105805000Y-75930000D01*
G37*
D15*
%TO.C,U2*%
X124390000Y-114590000D02*
X124390000Y-114590000D01*
X124390000Y-114790000D02*
X124390000Y-114790000D01*
D10*
X125690000Y-113190000D02*
X125690000Y-113690000D01*
X125690000Y-144190000D02*
X125690000Y-143690000D01*
X130490000Y-113190000D02*
X125690000Y-113190000D01*
X130490000Y-114720000D02*
X130490000Y-113190000D01*
X130490000Y-142660000D02*
X130490000Y-144190000D01*
X130490000Y-144190000D02*
X125690000Y-144190000D01*
D15*
X124390000Y-114590000D02*
G75*
G02*
X124390000Y-114790000I0J-100000D01*
G01*
X124390000Y-114790000D02*
G75*
G02*
X124390000Y-114590000I0J100000D01*
G01*
D14*
%TO.C,R12*%
X93085276Y-78517500D02*
X93594724Y-78517500D01*
X93085276Y-79562500D02*
X93594724Y-79562500D01*
%TO.C,R2*%
X106094724Y-147617500D02*
X105585276Y-147617500D01*
X106094724Y-148662500D02*
X105585276Y-148662500D01*
%TO.C,C1*%
X93330000Y-120680580D02*
X93330000Y-120399420D01*
X94350000Y-120680580D02*
X94350000Y-120399420D01*
D15*
%TO.C,IC1*%
X82340000Y-135190000D02*
X87340000Y-135190000D01*
X87340000Y-124890000D02*
X84065000Y-124890000D01*
X87340000Y-135190000D02*
X87340000Y-124890000D01*
D14*
%TO.C,SW2*%
X100590000Y-117040000D02*
X100590000Y-118540000D01*
X101840000Y-121040000D02*
X106340000Y-121040000D01*
X106340000Y-114540000D02*
X101840000Y-114540000D01*
X107590000Y-118540000D02*
X107590000Y-117040000D01*
%TO.C,R9*%
X132672776Y-90517500D02*
X133182224Y-90517500D01*
X132672776Y-91562500D02*
X133182224Y-91562500D01*
%TO.C,R5*%
X62317500Y-77785276D02*
X62317500Y-78294724D01*
X63362500Y-77785276D02*
X63362500Y-78294724D01*
%TO.C,1K1*%
X122469724Y-85017500D02*
X121960276Y-85017500D01*
X122469724Y-86062500D02*
X121960276Y-86062500D01*
%TO.C,R11*%
X103997776Y-77517500D02*
X104507224Y-77517500D01*
X103997776Y-78562500D02*
X104507224Y-78562500D01*
%TO.C,R7*%
X108507224Y-62017500D02*
X107997776Y-62017500D01*
X108507224Y-63062500D02*
X107997776Y-63062500D01*
%TO.C,R16*%
X116585276Y-123517500D02*
X117094724Y-123517500D01*
X116585276Y-124562500D02*
X117094724Y-124562500D01*
%TO.C,C4*%
X90800000Y-134030000D02*
X88618000Y-134030000D01*
X90800000Y-134070000D02*
X88622000Y-134070000D01*
X90800000Y-134110000D02*
X88625000Y-134110000D01*
X90800000Y-134150000D02*
X88629000Y-134150000D01*
X90800000Y-134190000D02*
X88634000Y-134190000D01*
X90800000Y-134230000D02*
X88639000Y-134230000D01*
X90800000Y-134270000D02*
X88645000Y-134270000D01*
X90800000Y-134310000D02*
X88651000Y-134310000D01*
X90800000Y-134350000D02*
X88658000Y-134350000D01*
X90800000Y-134390000D02*
X88665000Y-134390000D01*
X90800000Y-134430000D02*
X88673000Y-134430000D01*
X90800000Y-134470000D02*
X88681000Y-134470000D01*
X90800000Y-134511000D02*
X88690000Y-134511000D01*
X90800000Y-134551000D02*
X88699000Y-134551000D01*
X90800000Y-134591000D02*
X88709000Y-134591000D01*
X90800000Y-134631000D02*
X88719000Y-134631000D01*
X90800000Y-134671000D02*
X88730000Y-134671000D01*
X90800000Y-134711000D02*
X88742000Y-134711000D01*
X90800000Y-134751000D02*
X88754000Y-134751000D01*
X90800000Y-134791000D02*
X88766000Y-134791000D01*
X90800000Y-134831000D02*
X88779000Y-134831000D01*
X90800000Y-134871000D02*
X88793000Y-134871000D01*
X90800000Y-134911000D02*
X88807000Y-134911000D01*
X90800000Y-134951000D02*
X88822000Y-134951000D01*
X90800000Y-134991000D02*
X88838000Y-134991000D01*
X90800000Y-135031000D02*
X88854000Y-135031000D01*
X90800000Y-135071000D02*
X88870000Y-135071000D01*
X90800000Y-135111000D02*
X88888000Y-135111000D01*
X90800000Y-135151000D02*
X88906000Y-135151000D01*
X90800000Y-135191000D02*
X88924000Y-135191000D01*
X90800000Y-135231000D02*
X88944000Y-135231000D01*
X90800000Y-135271000D02*
X88964000Y-135271000D01*
X90800000Y-135311000D02*
X88984000Y-135311000D01*
X90800000Y-135351000D02*
X89006000Y-135351000D01*
X90800000Y-135391000D02*
X89028000Y-135391000D01*
X90800000Y-135431000D02*
X89050000Y-135431000D01*
X90800000Y-135471000D02*
X89074000Y-135471000D01*
X90800000Y-135511000D02*
X89098000Y-135511000D01*
X90800000Y-135551000D02*
X89124000Y-135551000D01*
X90800000Y-135591000D02*
X89150000Y-135591000D01*
X90800000Y-135631000D02*
X89176000Y-135631000D01*
X90800000Y-135671000D02*
X89204000Y-135671000D01*
X90800000Y-135711000D02*
X89233000Y-135711000D01*
X90800000Y-135751000D02*
X89262000Y-135751000D01*
X90800000Y-135791000D02*
X89292000Y-135791000D01*
X90800000Y-135831000D02*
X89324000Y-135831000D01*
X90800000Y-135871000D02*
X89356000Y-135871000D01*
X90800000Y-135911000D02*
X89390000Y-135911000D01*
X90800000Y-135951000D02*
X89424000Y-135951000D01*
X90800000Y-135991000D02*
X89460000Y-135991000D01*
X90800000Y-136031000D02*
X89497000Y-136031000D01*
X90800000Y-136071000D02*
X89535000Y-136071000D01*
X92242000Y-137031000D02*
X91438000Y-137031000D01*
X92473000Y-136991000D02*
X91207000Y-136991000D01*
X92642000Y-136951000D02*
X91038000Y-136951000D01*
X92780000Y-136911000D02*
X90900000Y-136911000D01*
X92899000Y-136871000D02*
X90781000Y-136871000D01*
X93005000Y-136831000D02*
X90675000Y-136831000D01*
X93102000Y-136791000D02*
X90578000Y-136791000D01*
X93190000Y-136751000D02*
X90490000Y-136751000D01*
X93272000Y-136711000D02*
X90408000Y-136711000D01*
X93349000Y-136671000D02*
X90331000Y-136671000D01*
X93421000Y-136631000D02*
X90259000Y-136631000D01*
X93490000Y-136591000D02*
X90190000Y-136591000D01*
X93554000Y-136551000D02*
X90126000Y-136551000D01*
X93616000Y-136511000D02*
X90064000Y-136511000D01*
X93674000Y-136471000D02*
X90006000Y-136471000D01*
X93679000Y-130289759D02*
X93679000Y-130919759D01*
X93730000Y-136431000D02*
X89950000Y-136431000D01*
X93784000Y-136391000D02*
X89896000Y-136391000D01*
X93835000Y-136351000D02*
X89845000Y-136351000D01*
X93884000Y-136311000D02*
X89796000Y-136311000D01*
X93932000Y-136271000D02*
X89748000Y-136271000D01*
X93977000Y-136231000D02*
X89703000Y-136231000D01*
X93994000Y-130604759D02*
X93364000Y-130604759D01*
X94022000Y-136191000D02*
X89658000Y-136191000D01*
X94064000Y-136151000D02*
X89616000Y-136151000D01*
X94105000Y-136111000D02*
X89575000Y-136111000D01*
X94145000Y-136071000D02*
X92880000Y-136071000D01*
X94183000Y-136031000D02*
X92880000Y-136031000D01*
X94220000Y-135991000D02*
X92880000Y-135991000D01*
X94256000Y-135951000D02*
X92880000Y-135951000D01*
X94290000Y-135911000D02*
X92880000Y-135911000D01*
X94324000Y-135871000D02*
X92880000Y-135871000D01*
X94356000Y-135831000D02*
X92880000Y-135831000D01*
X94388000Y-135791000D02*
X92880000Y-135791000D01*
X94418000Y-135751000D02*
X92880000Y-135751000D01*
X94447000Y-135711000D02*
X92880000Y-135711000D01*
X94476000Y-135671000D02*
X92880000Y-135671000D01*
X94504000Y-135631000D02*
X92880000Y-135631000D01*
X94530000Y-135591000D02*
X92880000Y-135591000D01*
X94556000Y-135551000D02*
X92880000Y-135551000D01*
X94582000Y-135511000D02*
X92880000Y-135511000D01*
X94606000Y-135471000D02*
X92880000Y-135471000D01*
X94630000Y-135431000D02*
X92880000Y-135431000D01*
X94652000Y-135391000D02*
X92880000Y-135391000D01*
X94674000Y-135351000D02*
X92880000Y-135351000D01*
X94696000Y-135311000D02*
X92880000Y-135311000D01*
X94716000Y-135271000D02*
X92880000Y-135271000D01*
X94736000Y-135231000D02*
X92880000Y-135231000D01*
X94756000Y-135191000D02*
X92880000Y-135191000D01*
X94774000Y-135151000D02*
X92880000Y-135151000D01*
X94792000Y-135111000D02*
X92880000Y-135111000D01*
X94810000Y-135071000D02*
X92880000Y-135071000D01*
X94826000Y-135031000D02*
X92880000Y-135031000D01*
X94842000Y-134991000D02*
X92880000Y-134991000D01*
X94858000Y-134951000D02*
X92880000Y-134951000D01*
X94873000Y-134911000D02*
X92880000Y-134911000D01*
X94887000Y-134871000D02*
X92880000Y-134871000D01*
X94901000Y-134831000D02*
X92880000Y-134831000D01*
X94914000Y-134791000D02*
X92880000Y-134791000D01*
X94926000Y-134751000D02*
X92880000Y-134751000D01*
X94938000Y-134711000D02*
X92880000Y-134711000D01*
X94950000Y-134671000D02*
X92880000Y-134671000D01*
X94961000Y-134631000D02*
X92880000Y-134631000D01*
X94971000Y-134591000D02*
X92880000Y-134591000D01*
X94981000Y-134551000D02*
X92880000Y-134551000D01*
X94990000Y-134511000D02*
X92880000Y-134511000D01*
X94999000Y-134470000D02*
X92880000Y-134470000D01*
X95007000Y-134430000D02*
X92880000Y-134430000D01*
X95015000Y-134390000D02*
X92880000Y-134390000D01*
X95022000Y-134350000D02*
X92880000Y-134350000D01*
X95029000Y-134310000D02*
X92880000Y-134310000D01*
X95035000Y-134270000D02*
X92880000Y-134270000D01*
X95041000Y-134230000D02*
X92880000Y-134230000D01*
X95046000Y-134190000D02*
X92880000Y-134190000D01*
X95051000Y-134150000D02*
X92880000Y-134150000D01*
X95055000Y-134110000D02*
X92880000Y-134110000D01*
X95058000Y-134070000D02*
X92880000Y-134070000D01*
X95062000Y-134030000D02*
X92880000Y-134030000D01*
X95064000Y-133990000D02*
X88616000Y-133990000D01*
X95067000Y-133950000D02*
X88613000Y-133950000D01*
X95068000Y-133910000D02*
X88612000Y-133910000D01*
X95070000Y-133790000D02*
X88610000Y-133790000D01*
X95070000Y-133830000D02*
X88610000Y-133830000D01*
X95070000Y-133870000D02*
X88610000Y-133870000D01*
X95110000Y-133790000D02*
G75*
G02*
X88570000Y-133790000I-3270000J0D01*
G01*
X88570000Y-133790000D02*
G75*
G02*
X95110000Y-133790000I3270000J0D01*
G01*
%TO.C,C10*%
X101980580Y-88530000D02*
X101699420Y-88530000D01*
X101980580Y-89550000D02*
X101699420Y-89550000D01*
%TO.C,R10*%
X100719724Y-73067500D02*
X100210276Y-73067500D01*
X100719724Y-74112500D02*
X100210276Y-74112500D01*
D15*
%TO.C,Q2*%
X81990000Y-137940000D02*
X81990000Y-139540000D01*
X88690000Y-137940000D02*
X81990000Y-137940000D01*
X88690000Y-140440000D02*
X88690000Y-137940000D01*
D14*
%TO.C,C12*%
X77110000Y-84210000D02*
X83570000Y-84210000D01*
X77110000Y-84250000D02*
X83570000Y-84250000D01*
X77110000Y-84290000D02*
X83570000Y-84290000D01*
X77112000Y-84170000D02*
X83568000Y-84170000D01*
X77113000Y-84130000D02*
X83567000Y-84130000D01*
X77116000Y-84090000D02*
X83564000Y-84090000D01*
X77118000Y-84050000D02*
X79300000Y-84050000D01*
X77122000Y-84010000D02*
X79300000Y-84010000D01*
X77125000Y-83970000D02*
X79300000Y-83970000D01*
X77129000Y-83930000D02*
X79300000Y-83930000D01*
X77134000Y-83890000D02*
X79300000Y-83890000D01*
X77139000Y-83850000D02*
X79300000Y-83850000D01*
X77145000Y-83810000D02*
X79300000Y-83810000D01*
X77151000Y-83770000D02*
X79300000Y-83770000D01*
X77158000Y-83730000D02*
X79300000Y-83730000D01*
X77165000Y-83690000D02*
X79300000Y-83690000D01*
X77173000Y-83650000D02*
X79300000Y-83650000D01*
X77181000Y-83610000D02*
X79300000Y-83610000D01*
X77190000Y-83569000D02*
X79300000Y-83569000D01*
X77199000Y-83529000D02*
X79300000Y-83529000D01*
X77209000Y-83489000D02*
X79300000Y-83489000D01*
X77219000Y-83449000D02*
X79300000Y-83449000D01*
X77230000Y-83409000D02*
X79300000Y-83409000D01*
X77242000Y-83369000D02*
X79300000Y-83369000D01*
X77254000Y-83329000D02*
X79300000Y-83329000D01*
X77266000Y-83289000D02*
X79300000Y-83289000D01*
X77279000Y-83249000D02*
X79300000Y-83249000D01*
X77293000Y-83209000D02*
X79300000Y-83209000D01*
X77307000Y-83169000D02*
X79300000Y-83169000D01*
X77322000Y-83129000D02*
X79300000Y-83129000D01*
X77338000Y-83089000D02*
X79300000Y-83089000D01*
X77354000Y-83049000D02*
X79300000Y-83049000D01*
X77370000Y-83009000D02*
X79300000Y-83009000D01*
X77388000Y-82969000D02*
X79300000Y-82969000D01*
X77406000Y-82929000D02*
X79300000Y-82929000D01*
X77424000Y-82889000D02*
X79300000Y-82889000D01*
X77444000Y-82849000D02*
X79300000Y-82849000D01*
X77464000Y-82809000D02*
X79300000Y-82809000D01*
X77484000Y-82769000D02*
X79300000Y-82769000D01*
X77506000Y-82729000D02*
X79300000Y-82729000D01*
X77528000Y-82689000D02*
X79300000Y-82689000D01*
X77550000Y-82649000D02*
X79300000Y-82649000D01*
X77574000Y-82609000D02*
X79300000Y-82609000D01*
X77598000Y-82569000D02*
X79300000Y-82569000D01*
X77624000Y-82529000D02*
X79300000Y-82529000D01*
X77650000Y-82489000D02*
X79300000Y-82489000D01*
X77676000Y-82449000D02*
X79300000Y-82449000D01*
X77704000Y-82409000D02*
X79300000Y-82409000D01*
X77733000Y-82369000D02*
X79300000Y-82369000D01*
X77762000Y-82329000D02*
X79300000Y-82329000D01*
X77792000Y-82289000D02*
X79300000Y-82289000D01*
X77824000Y-82249000D02*
X79300000Y-82249000D01*
X77856000Y-82209000D02*
X79300000Y-82209000D01*
X77890000Y-82169000D02*
X79300000Y-82169000D01*
X77924000Y-82129000D02*
X79300000Y-82129000D01*
X77960000Y-82089000D02*
X79300000Y-82089000D01*
X77997000Y-82049000D02*
X79300000Y-82049000D01*
X78035000Y-82009000D02*
X79300000Y-82009000D01*
X78075000Y-81969000D02*
X82605000Y-81969000D01*
X78116000Y-81929000D02*
X82564000Y-81929000D01*
X78158000Y-81889000D02*
X82522000Y-81889000D01*
X78186000Y-87475241D02*
X78816000Y-87475241D01*
X78203000Y-81849000D02*
X82477000Y-81849000D01*
X78248000Y-81809000D02*
X82432000Y-81809000D01*
X78296000Y-81769000D02*
X82384000Y-81769000D01*
X78345000Y-81729000D02*
X82335000Y-81729000D01*
X78396000Y-81689000D02*
X82284000Y-81689000D01*
X78450000Y-81649000D02*
X82230000Y-81649000D01*
X78501000Y-87790241D02*
X78501000Y-87160241D01*
X78506000Y-81609000D02*
X82174000Y-81609000D01*
X78564000Y-81569000D02*
X82116000Y-81569000D01*
X78626000Y-81529000D02*
X82054000Y-81529000D01*
X78690000Y-81489000D02*
X81990000Y-81489000D01*
X78759000Y-81449000D02*
X81921000Y-81449000D01*
X78831000Y-81409000D02*
X81849000Y-81409000D01*
X78908000Y-81369000D02*
X81772000Y-81369000D01*
X78990000Y-81329000D02*
X81690000Y-81329000D01*
X79078000Y-81289000D02*
X81602000Y-81289000D01*
X79175000Y-81249000D02*
X81505000Y-81249000D01*
X79281000Y-81209000D02*
X81399000Y-81209000D01*
X79400000Y-81169000D02*
X81280000Y-81169000D01*
X79538000Y-81129000D02*
X81142000Y-81129000D01*
X79707000Y-81089000D02*
X80973000Y-81089000D01*
X79938000Y-81049000D02*
X80742000Y-81049000D01*
X81380000Y-82009000D02*
X82645000Y-82009000D01*
X81380000Y-82049000D02*
X82683000Y-82049000D01*
X81380000Y-82089000D02*
X82720000Y-82089000D01*
X81380000Y-82129000D02*
X82756000Y-82129000D01*
X81380000Y-82169000D02*
X82790000Y-82169000D01*
X81380000Y-82209000D02*
X82824000Y-82209000D01*
X81380000Y-82249000D02*
X82856000Y-82249000D01*
X81380000Y-82289000D02*
X82888000Y-82289000D01*
X81380000Y-82329000D02*
X82918000Y-82329000D01*
X81380000Y-82369000D02*
X82947000Y-82369000D01*
X81380000Y-82409000D02*
X82976000Y-82409000D01*
X81380000Y-82449000D02*
X83004000Y-82449000D01*
X81380000Y-82489000D02*
X83030000Y-82489000D01*
X81380000Y-82529000D02*
X83056000Y-82529000D01*
X81380000Y-82569000D02*
X83082000Y-82569000D01*
X81380000Y-82609000D02*
X83106000Y-82609000D01*
X81380000Y-82649000D02*
X83130000Y-82649000D01*
X81380000Y-82689000D02*
X83152000Y-82689000D01*
X81380000Y-82729000D02*
X83174000Y-82729000D01*
X81380000Y-82769000D02*
X83196000Y-82769000D01*
X81380000Y-82809000D02*
X83216000Y-82809000D01*
X81380000Y-82849000D02*
X83236000Y-82849000D01*
X81380000Y-82889000D02*
X83256000Y-82889000D01*
X81380000Y-82929000D02*
X83274000Y-82929000D01*
X81380000Y-82969000D02*
X83292000Y-82969000D01*
X81380000Y-83009000D02*
X83310000Y-83009000D01*
X81380000Y-83049000D02*
X83326000Y-83049000D01*
X81380000Y-83089000D02*
X83342000Y-83089000D01*
X81380000Y-83129000D02*
X83358000Y-83129000D01*
X81380000Y-83169000D02*
X83373000Y-83169000D01*
X81380000Y-83209000D02*
X83387000Y-83209000D01*
X81380000Y-83249000D02*
X83401000Y-83249000D01*
X81380000Y-83289000D02*
X83414000Y-83289000D01*
X81380000Y-83329000D02*
X83426000Y-83329000D01*
X81380000Y-83369000D02*
X83438000Y-83369000D01*
X81380000Y-83409000D02*
X83450000Y-83409000D01*
X81380000Y-83449000D02*
X83461000Y-83449000D01*
X81380000Y-83489000D02*
X83471000Y-83489000D01*
X81380000Y-83529000D02*
X83481000Y-83529000D01*
X81380000Y-83569000D02*
X83490000Y-83569000D01*
X81380000Y-83610000D02*
X83499000Y-83610000D01*
X81380000Y-83650000D02*
X83507000Y-83650000D01*
X81380000Y-83690000D02*
X83515000Y-83690000D01*
X81380000Y-83730000D02*
X83522000Y-83730000D01*
X81380000Y-83770000D02*
X83529000Y-83770000D01*
X81380000Y-83810000D02*
X83535000Y-83810000D01*
X81380000Y-83850000D02*
X83541000Y-83850000D01*
X81380000Y-83890000D02*
X83546000Y-83890000D01*
X81380000Y-83930000D02*
X83551000Y-83930000D01*
X81380000Y-83970000D02*
X83555000Y-83970000D01*
X81380000Y-84010000D02*
X83558000Y-84010000D01*
X81380000Y-84050000D02*
X83562000Y-84050000D01*
X83610000Y-84290000D02*
G75*
G02*
X77070000Y-84290000I-3270000J0D01*
G01*
X77070000Y-84290000D02*
G75*
G02*
X83610000Y-84290000I3270000J0D01*
G01*
%TO.C,R1*%
X95585276Y-143017500D02*
X96094724Y-143017500D01*
X95585276Y-144062500D02*
X96094724Y-144062500D01*
%TO.C,C2*%
X81110000Y-119892380D02*
X87570000Y-119892380D01*
X81110000Y-119932380D02*
X87570000Y-119932380D01*
X81110000Y-119972380D02*
X87570000Y-119972380D01*
X81112000Y-119852380D02*
X87568000Y-119852380D01*
X81113000Y-119812380D02*
X87567000Y-119812380D01*
X81116000Y-119772380D02*
X87564000Y-119772380D01*
X81118000Y-119732380D02*
X83300000Y-119732380D01*
X81122000Y-119692380D02*
X83300000Y-119692380D01*
X81125000Y-119652380D02*
X83300000Y-119652380D01*
X81129000Y-119612380D02*
X83300000Y-119612380D01*
X81134000Y-119572380D02*
X83300000Y-119572380D01*
X81139000Y-119532380D02*
X83300000Y-119532380D01*
X81145000Y-119492380D02*
X83300000Y-119492380D01*
X81151000Y-119452380D02*
X83300000Y-119452380D01*
X81158000Y-119412380D02*
X83300000Y-119412380D01*
X81165000Y-119372380D02*
X83300000Y-119372380D01*
X81173000Y-119332380D02*
X83300000Y-119332380D01*
X81181000Y-119292380D02*
X83300000Y-119292380D01*
X81190000Y-119251380D02*
X83300000Y-119251380D01*
X81199000Y-119211380D02*
X83300000Y-119211380D01*
X81209000Y-119171380D02*
X83300000Y-119171380D01*
X81219000Y-119131380D02*
X83300000Y-119131380D01*
X81230000Y-119091380D02*
X83300000Y-119091380D01*
X81242000Y-119051380D02*
X83300000Y-119051380D01*
X81254000Y-119011380D02*
X83300000Y-119011380D01*
X81266000Y-118971380D02*
X83300000Y-118971380D01*
X81279000Y-118931380D02*
X83300000Y-118931380D01*
X81293000Y-118891380D02*
X83300000Y-118891380D01*
X81307000Y-118851380D02*
X83300000Y-118851380D01*
X81322000Y-118811380D02*
X83300000Y-118811380D01*
X81338000Y-118771380D02*
X83300000Y-118771380D01*
X81354000Y-118731380D02*
X83300000Y-118731380D01*
X81370000Y-118691380D02*
X83300000Y-118691380D01*
X81388000Y-118651380D02*
X83300000Y-118651380D01*
X81406000Y-118611380D02*
X83300000Y-118611380D01*
X81424000Y-118571380D02*
X83300000Y-118571380D01*
X81444000Y-118531380D02*
X83300000Y-118531380D01*
X81464000Y-118491380D02*
X83300000Y-118491380D01*
X81484000Y-118451380D02*
X83300000Y-118451380D01*
X81506000Y-118411380D02*
X83300000Y-118411380D01*
X81528000Y-118371380D02*
X83300000Y-118371380D01*
X81550000Y-118331380D02*
X83300000Y-118331380D01*
X81574000Y-118291380D02*
X83300000Y-118291380D01*
X81598000Y-118251380D02*
X83300000Y-118251380D01*
X81624000Y-118211380D02*
X83300000Y-118211380D01*
X81650000Y-118171380D02*
X83300000Y-118171380D01*
X81676000Y-118131380D02*
X83300000Y-118131380D01*
X81704000Y-118091380D02*
X83300000Y-118091380D01*
X81733000Y-118051380D02*
X83300000Y-118051380D01*
X81762000Y-118011380D02*
X83300000Y-118011380D01*
X81792000Y-117971380D02*
X83300000Y-117971380D01*
X81824000Y-117931380D02*
X83300000Y-117931380D01*
X81856000Y-117891380D02*
X83300000Y-117891380D01*
X81890000Y-117851380D02*
X83300000Y-117851380D01*
X81924000Y-117811380D02*
X83300000Y-117811380D01*
X81960000Y-117771380D02*
X83300000Y-117771380D01*
X81997000Y-117731380D02*
X83300000Y-117731380D01*
X82035000Y-117691380D02*
X83300000Y-117691380D01*
X82075000Y-117651380D02*
X86605000Y-117651380D01*
X82116000Y-117611380D02*
X86564000Y-117611380D01*
X82158000Y-117571380D02*
X86522000Y-117571380D01*
X82186000Y-123157621D02*
X82816000Y-123157621D01*
X82203000Y-117531380D02*
X86477000Y-117531380D01*
X82248000Y-117491380D02*
X86432000Y-117491380D01*
X82296000Y-117451380D02*
X86384000Y-117451380D01*
X82345000Y-117411380D02*
X86335000Y-117411380D01*
X82396000Y-117371380D02*
X86284000Y-117371380D01*
X82450000Y-117331380D02*
X86230000Y-117331380D01*
X82501000Y-123472621D02*
X82501000Y-122842621D01*
X82506000Y-117291380D02*
X86174000Y-117291380D01*
X82564000Y-117251380D02*
X86116000Y-117251380D01*
X82626000Y-117211380D02*
X86054000Y-117211380D01*
X82690000Y-117171380D02*
X85990000Y-117171380D01*
X82759000Y-117131380D02*
X85921000Y-117131380D01*
X82831000Y-117091380D02*
X85849000Y-117091380D01*
X82908000Y-117051380D02*
X85772000Y-117051380D01*
X82990000Y-117011380D02*
X85690000Y-117011380D01*
X83078000Y-116971380D02*
X85602000Y-116971380D01*
X83175000Y-116931380D02*
X85505000Y-116931380D01*
X83281000Y-116891380D02*
X85399000Y-116891380D01*
X83400000Y-116851380D02*
X85280000Y-116851380D01*
X83538000Y-116811380D02*
X85142000Y-116811380D01*
X83707000Y-116771380D02*
X84973000Y-116771380D01*
X83938000Y-116731380D02*
X84742000Y-116731380D01*
X85380000Y-117691380D02*
X86645000Y-117691380D01*
X85380000Y-117731380D02*
X86683000Y-117731380D01*
X85380000Y-117771380D02*
X86720000Y-117771380D01*
X85380000Y-117811380D02*
X86756000Y-117811380D01*
X85380000Y-117851380D02*
X86790000Y-117851380D01*
X85380000Y-117891380D02*
X86824000Y-117891380D01*
X85380000Y-117931380D02*
X86856000Y-117931380D01*
X85380000Y-117971380D02*
X86888000Y-117971380D01*
X85380000Y-118011380D02*
X86918000Y-118011380D01*
X85380000Y-118051380D02*
X86947000Y-118051380D01*
X85380000Y-118091380D02*
X86976000Y-118091380D01*
X85380000Y-118131380D02*
X87004000Y-118131380D01*
X85380000Y-118171380D02*
X87030000Y-118171380D01*
X85380000Y-118211380D02*
X87056000Y-118211380D01*
X85380000Y-118251380D02*
X87082000Y-118251380D01*
X85380000Y-118291380D02*
X87106000Y-118291380D01*
X85380000Y-118331380D02*
X87130000Y-118331380D01*
X85380000Y-118371380D02*
X87152000Y-118371380D01*
X85380000Y-118411380D02*
X87174000Y-118411380D01*
X85380000Y-118451380D02*
X87196000Y-118451380D01*
X85380000Y-118491380D02*
X87216000Y-118491380D01*
X85380000Y-118531380D02*
X87236000Y-118531380D01*
X85380000Y-118571380D02*
X87256000Y-118571380D01*
X85380000Y-118611380D02*
X87274000Y-118611380D01*
X85380000Y-118651380D02*
X87292000Y-118651380D01*
X85380000Y-118691380D02*
X87310000Y-118691380D01*
X85380000Y-118731380D02*
X87326000Y-118731380D01*
X85380000Y-118771380D02*
X87342000Y-118771380D01*
X85380000Y-118811380D02*
X87358000Y-118811380D01*
X85380000Y-118851380D02*
X87373000Y-118851380D01*
X85380000Y-118891380D02*
X87387000Y-118891380D01*
X85380000Y-118931380D02*
X87401000Y-118931380D01*
X85380000Y-118971380D02*
X87414000Y-118971380D01*
X85380000Y-119011380D02*
X87426000Y-119011380D01*
X85380000Y-119051380D02*
X87438000Y-119051380D01*
X85380000Y-119091380D02*
X87450000Y-119091380D01*
X85380000Y-119131380D02*
X87461000Y-119131380D01*
X85380000Y-119171380D02*
X87471000Y-119171380D01*
X85380000Y-119211380D02*
X87481000Y-119211380D01*
X85380000Y-119251380D02*
X87490000Y-119251380D01*
X85380000Y-119292380D02*
X87499000Y-119292380D01*
X85380000Y-119332380D02*
X87507000Y-119332380D01*
X85380000Y-119372380D02*
X87515000Y-119372380D01*
X85380000Y-119412380D02*
X87522000Y-119412380D01*
X85380000Y-119452380D02*
X87529000Y-119452380D01*
X85380000Y-119492380D02*
X87535000Y-119492380D01*
X85380000Y-119532380D02*
X87541000Y-119532380D01*
X85380000Y-119572380D02*
X87546000Y-119572380D01*
X85380000Y-119612380D02*
X87551000Y-119612380D01*
X85380000Y-119652380D02*
X87555000Y-119652380D01*
X85380000Y-119692380D02*
X87558000Y-119692380D01*
X85380000Y-119732380D02*
X87562000Y-119732380D01*
X87610000Y-119972380D02*
G75*
G02*
X81070000Y-119972380I-3270000J0D01*
G01*
X81070000Y-119972380D02*
G75*
G02*
X87610000Y-119972380I3270000J0D01*
G01*
%TO.C,C9*%
X103480580Y-90030000D02*
X103199420Y-90030000D01*
X103480580Y-91050000D02*
X103199420Y-91050000D01*
%TO.C,R6*%
X87585276Y-67517500D02*
X88094724Y-67517500D01*
X87585276Y-68562500D02*
X88094724Y-68562500D01*
D10*
%TO.C,U3*%
X71690000Y-113010000D02*
X76490000Y-113010000D01*
X71690000Y-114540000D02*
X71690000Y-113010000D01*
X71690000Y-142480000D02*
X71690000Y-144010000D01*
X71690000Y-144010000D02*
X76490000Y-144010000D01*
X76490000Y-113010000D02*
X76490000Y-113510000D01*
X76490000Y-144010000D02*
X76490000Y-143510000D01*
D15*
X77790000Y-142410000D02*
X77790000Y-142410000D01*
X77790000Y-142610000D02*
X77790000Y-142610000D01*
X77790000Y-142410000D02*
G75*
G02*
X77790000Y-142610000I0J-100000D01*
G01*
X77790000Y-142610000D02*
G75*
G02*
X77790000Y-142410000I0J100000D01*
G01*
%TD*%
M02*
