%TF.GenerationSoftware,KiCad,Pcbnew,8.0.5*%
%TF.CreationDate,2024-11-23T08:17:22+09:00*%
%TF.ProjectId,mouse_v1,6d6f7573-655f-4763-912e-6b696361645f,rev?*%
%TF.SameCoordinates,Original*%
%TF.FileFunction,Soldermask,Top*%
%TF.FilePolarity,Negative*%
%FSLAX46Y46*%
G04 Gerber Fmt 4.6, Leading zero omitted, Abs format (unit mm)*
G04 Created by KiCad (PCBNEW 8.0.5) date 2024-11-23 08:17:22*
%MOMM*%
%LPD*%
G01*
G04 APERTURE LIST*
G04 Aperture macros list*
%AMRoundRect*
0 Rectangle with rounded corners*
0 $1 Rounding radius*
0 $2 $3 $4 $5 $6 $7 $8 $9 X,Y pos of 4 corners*
0 Add a 4 corners polygon primitive as box body*
4,1,4,$2,$3,$4,$5,$6,$7,$8,$9,$2,$3,0*
0 Add four circle primitives for the rounded corners*
1,1,$1+$1,$2,$3*
1,1,$1+$1,$4,$5*
1,1,$1+$1,$6,$7*
1,1,$1+$1,$8,$9*
0 Add four rect primitives between the rounded corners*
20,1,$1+$1,$2,$3,$4,$5,0*
20,1,$1+$1,$4,$5,$6,$7,0*
20,1,$1+$1,$6,$7,$8,$9,0*
20,1,$1+$1,$8,$9,$2,$3,0*%
G04 Aperture macros list end*
%ADD10RoundRect,0.150000X-0.587500X-0.150000X0.587500X-0.150000X0.587500X0.150000X-0.587500X0.150000X0*%
%ADD11R,1.600000X1.600000*%
%ADD12C,1.600000*%
%ADD13C,1.217000*%
%ADD14R,1.920000X1.920000*%
%ADD15C,1.920000*%
%ADD16RoundRect,0.237500X0.250000X0.237500X-0.250000X0.237500X-0.250000X-0.237500X0.250000X-0.237500X0*%
%ADD17O,1.600000X1.600000*%
%ADD18RoundRect,0.237500X0.237500X-0.250000X0.237500X0.250000X-0.237500X0.250000X-0.237500X-0.250000X0*%
%ADD19C,1.337000*%
%ADD20C,1.524000*%
%ADD21C,1.300000*%
%ADD22RoundRect,0.237500X-0.237500X0.250000X-0.237500X-0.250000X0.237500X-0.250000X0.237500X0.250000X0*%
%ADD23RoundRect,0.237500X-0.250000X-0.237500X0.250000X-0.237500X0.250000X0.237500X-0.250000X0.237500X0*%
%ADD24R,1.250000X0.600000*%
%ADD25RoundRect,0.225000X0.250000X-0.225000X0.250000X0.225000X-0.250000X0.225000X-0.250000X-0.225000X0*%
%ADD26RoundRect,0.218750X0.218750X0.256250X-0.218750X0.256250X-0.218750X-0.256250X0.218750X-0.256250X0*%
%ADD27RoundRect,0.218750X-0.218750X-0.256250X0.218750X-0.256250X0.218750X0.256250X-0.218750X0.256250X0*%
%ADD28C,2.000000*%
%ADD29RoundRect,0.150000X0.587500X0.150000X-0.587500X0.150000X-0.587500X-0.150000X0.587500X-0.150000X0*%
%ADD30RoundRect,0.218750X0.256250X-0.218750X0.256250X0.218750X-0.256250X0.218750X-0.256250X-0.218750X0*%
%ADD31RoundRect,0.225000X0.225000X0.250000X-0.225000X0.250000X-0.225000X-0.250000X0.225000X-0.250000X0*%
%ADD32RoundRect,0.225000X-0.225000X-0.250000X0.225000X-0.250000X0.225000X0.250000X-0.225000X0.250000X0*%
%ADD33RoundRect,0.102000X0.765000X-0.765000X0.765000X0.765000X-0.765000X0.765000X-0.765000X-0.765000X0*%
%ADD34C,1.734000*%
%ADD35C,1.995000*%
%ADD36R,1.995000X1.995000*%
%ADD37C,1.192000*%
%ADD38RoundRect,0.250000X-0.600000X-0.725000X0.600000X-0.725000X0.600000X0.725000X-0.600000X0.725000X0*%
%ADD39O,1.700000X1.950000*%
%ADD40RoundRect,0.250000X0.600000X0.725000X-0.600000X0.725000X-0.600000X-0.725000X0.600000X-0.725000X0*%
%ADD41RoundRect,0.250000X-0.600000X-0.750000X0.600000X-0.750000X0.600000X0.750000X-0.600000X0.750000X0*%
%ADD42O,1.700000X2.000000*%
G04 APERTURE END LIST*
D10*
%TO.C,Q9*%
X119252500Y-130590000D03*
X119252500Y-132490000D03*
X121127500Y-131540000D03*
%TD*%
D11*
%TO.C,C11*%
X139340000Y-82040000D03*
D12*
X141840000Y-82040000D03*
%TD*%
D13*
%TO.C,VR1*%
X115340000Y-150080000D03*
X115340000Y-147540000D03*
X115340000Y-145000000D03*
%TD*%
D14*
%TO.C,Q3*%
X110340000Y-148140000D03*
D15*
X110340000Y-145840000D03*
X110340000Y-143540000D03*
%TD*%
D16*
%TO.C,R14*%
X84752500Y-89540000D03*
X82927500Y-89540000D03*
%TD*%
%TO.C,R8*%
X127752500Y-76040000D03*
X125927500Y-76040000D03*
%TD*%
D11*
%TO.C,SW4*%
X91840000Y-150040000D03*
D17*
X84220000Y-150040000D03*
%TD*%
D18*
%TO.C,R18*%
X90840000Y-121452500D03*
X90840000Y-119627500D03*
%TD*%
D19*
%TO.C,DS1*%
X97840000Y-86790000D03*
X99340000Y-86790000D03*
X100840000Y-86790000D03*
X102340000Y-86790000D03*
X103840000Y-86790000D03*
X105340000Y-86790000D03*
X106840000Y-86790000D03*
X108340000Y-86790000D03*
X109840000Y-86790000D03*
%TD*%
D20*
%TO.C,LS1*%
X113127500Y-133540000D03*
D21*
X106627500Y-133540000D03*
%TD*%
D22*
%TO.C,R3*%
X106340000Y-143227500D03*
X106340000Y-145052500D03*
%TD*%
D18*
%TO.C,R19*%
X90840000Y-117040000D03*
X90840000Y-115215000D03*
%TD*%
D23*
%TO.C,R15*%
X119927500Y-124040000D03*
X121752500Y-124040000D03*
%TD*%
D11*
%TO.C,C8*%
X99340000Y-126540000D03*
D12*
X99340000Y-129040000D03*
%TD*%
D11*
%TO.C,C7*%
X91840000Y-125540000D03*
D12*
X91840000Y-128040000D03*
%TD*%
D24*
%TO.C,IC2*%
X131385000Y-99180000D03*
X131385000Y-98230000D03*
X131385000Y-97280000D03*
X128885000Y-97280000D03*
X128885000Y-99180000D03*
%TD*%
D25*
%TO.C,C6*%
X103340000Y-144915000D03*
X103340000Y-143365000D03*
%TD*%
D26*
%TO.C,D3*%
X122915000Y-89540000D03*
X121340000Y-89540000D03*
%TD*%
D27*
%TO.C,D2*%
X106840000Y-124540000D03*
X108415000Y-124540000D03*
%TD*%
D28*
%TO.C,SW1*%
X117090000Y-120290000D03*
X110590000Y-120290000D03*
X117090000Y-115790000D03*
X110590000Y-115790000D03*
%TD*%
D29*
%TO.C,Q8*%
X94277500Y-75490000D03*
X94277500Y-73590000D03*
X92402500Y-74540000D03*
%TD*%
D30*
%TO.C,D1*%
X85340000Y-144827500D03*
X85340000Y-143252500D03*
%TD*%
D22*
%TO.C,R13*%
X89840000Y-74590000D03*
X89840000Y-76415000D03*
%TD*%
D31*
%TO.C,C3*%
X96115000Y-113540000D03*
X94565000Y-113540000D03*
%TD*%
D23*
%TO.C,R4*%
X108427500Y-90540000D03*
X110252500Y-90540000D03*
%TD*%
D32*
%TO.C,C5*%
X128790000Y-101420000D03*
X130340000Y-101420000D03*
%TD*%
D33*
%TO.C,U1*%
X85940000Y-109040000D03*
D34*
X88480000Y-109040000D03*
X91020000Y-109040000D03*
X93560000Y-109040000D03*
X96100000Y-109040000D03*
X98640000Y-109040000D03*
X101180000Y-109040000D03*
X103720000Y-109040000D03*
X106260000Y-109040000D03*
X108800000Y-109040000D03*
X111340000Y-109040000D03*
X113880000Y-109040000D03*
X116420000Y-109040000D03*
X118960000Y-109040000D03*
X121500000Y-109040000D03*
D33*
X85940000Y-93800000D03*
D34*
X88480000Y-93800000D03*
X91020000Y-93800000D03*
X93560000Y-93800000D03*
X96100000Y-93800000D03*
X98640000Y-93800000D03*
X101180000Y-93800000D03*
X103720000Y-93800000D03*
X106260000Y-93800000D03*
X108800000Y-93800000D03*
X111340000Y-93800000D03*
X113880000Y-93800000D03*
X116420000Y-93800000D03*
X118960000Y-93800000D03*
X121500000Y-93800000D03*
%TD*%
D29*
%TO.C,Q1*%
X105340000Y-75040000D03*
X105340000Y-73140000D03*
X103465000Y-74090000D03*
%TD*%
D35*
%TO.C,U2*%
X125840000Y-114720000D03*
X130340000Y-115990000D03*
X125840000Y-117260000D03*
X130340000Y-118530000D03*
X125840000Y-119800000D03*
X130340000Y-121070000D03*
X125840000Y-122340000D03*
X130340000Y-123610000D03*
X125840000Y-124880000D03*
X130340000Y-126150000D03*
X125840000Y-127420000D03*
X130340000Y-128690000D03*
X125840000Y-129960000D03*
X130340000Y-131230000D03*
X125840000Y-132500000D03*
X130340000Y-133770000D03*
X125840000Y-135040000D03*
X130340000Y-136310000D03*
X125840000Y-137580000D03*
X130340000Y-138850000D03*
X125840000Y-140120000D03*
X130340000Y-141390000D03*
X125840000Y-142660000D03*
%TD*%
D23*
%TO.C,R12*%
X92427500Y-79040000D03*
X94252500Y-79040000D03*
%TD*%
D16*
%TO.C,R2*%
X106752500Y-148140000D03*
X104927500Y-148140000D03*
%TD*%
D25*
%TO.C,C1*%
X93840000Y-121315000D03*
X93840000Y-119765000D03*
%TD*%
D36*
%TO.C,IC1*%
X84065000Y-127500000D03*
D35*
X84065000Y-130040000D03*
X84065000Y-132580000D03*
%TD*%
D28*
%TO.C,SW2*%
X107340000Y-120040000D03*
X100840000Y-120040000D03*
X107340000Y-115540000D03*
X100840000Y-115540000D03*
%TD*%
D23*
%TO.C,R9*%
X132015000Y-91040000D03*
X133840000Y-91040000D03*
%TD*%
D22*
%TO.C,R5*%
X62840000Y-77127500D03*
X62840000Y-78952500D03*
%TD*%
D16*
%TO.C,1K1*%
X123127500Y-85540000D03*
X121302500Y-85540000D03*
%TD*%
D23*
%TO.C,R11*%
X103340000Y-78040000D03*
X105165000Y-78040000D03*
%TD*%
D16*
%TO.C,R7*%
X109165000Y-62540000D03*
X107340000Y-62540000D03*
%TD*%
D23*
%TO.C,R16*%
X115927500Y-124040000D03*
X117752500Y-124040000D03*
%TD*%
D11*
%TO.C,C4*%
X91840000Y-132540000D03*
D12*
X91840000Y-135040000D03*
%TD*%
D31*
%TO.C,C10*%
X102615000Y-89040000D03*
X101065000Y-89040000D03*
%TD*%
D16*
%TO.C,R10*%
X101377500Y-73590000D03*
X99552500Y-73590000D03*
%TD*%
D14*
%TO.C,Q2*%
X83040000Y-139540000D03*
D15*
X85340000Y-139540000D03*
X87640000Y-139540000D03*
%TD*%
D11*
%TO.C,C12*%
X80340000Y-85540000D03*
D12*
X80340000Y-83040000D03*
%TD*%
D23*
%TO.C,R1*%
X94927500Y-143540000D03*
X96752500Y-143540000D03*
%TD*%
D11*
%TO.C,C2*%
X84340000Y-121222380D03*
D12*
X84340000Y-118722380D03*
%TD*%
D31*
%TO.C,C9*%
X104115000Y-90540000D03*
X102565000Y-90540000D03*
%TD*%
D23*
%TO.C,R6*%
X86927500Y-68040000D03*
X88752500Y-68040000D03*
%TD*%
D35*
%TO.C,U3*%
X76340000Y-142480000D03*
X71840000Y-141210000D03*
X76340000Y-139940000D03*
X71840000Y-138670000D03*
X76340000Y-137400000D03*
X71840000Y-136130000D03*
X76340000Y-134860000D03*
X71840000Y-133590000D03*
X76340000Y-132320000D03*
X71840000Y-131050000D03*
X76340000Y-129780000D03*
X71840000Y-128510000D03*
X76340000Y-127240000D03*
X71840000Y-125970000D03*
X76340000Y-124700000D03*
X71840000Y-123430000D03*
X76340000Y-122160000D03*
X71840000Y-120890000D03*
X76340000Y-119620000D03*
X71840000Y-118350000D03*
X76340000Y-117080000D03*
X71840000Y-115810000D03*
X76340000Y-114540000D03*
%TD*%
D37*
%TO.C,Q6*%
X113205000Y-62440148D03*
X114475000Y-64639853D03*
%TD*%
%TO.C,Q5*%
X86705000Y-64139852D03*
X87975000Y-61940147D03*
%TD*%
D38*
%TO.C,J2*%
X122840000Y-149540000D03*
D39*
X125340000Y-149540000D03*
X127840000Y-149540000D03*
X130340000Y-149540000D03*
X132840000Y-149540000D03*
X135340000Y-149540000D03*
%TD*%
D21*
%TO.C,LED4*%
X93840000Y-68040000D03*
X95110000Y-65840295D03*
%TD*%
D37*
%TO.C,Q7*%
X131426088Y-76098934D03*
X133927500Y-76540001D03*
%TD*%
D40*
%TO.C,J1*%
X79340000Y-149040000D03*
D39*
X76840000Y-149040000D03*
X74340000Y-149040000D03*
X71840000Y-149040000D03*
X69340000Y-149040000D03*
X66840000Y-149040000D03*
%TD*%
D41*
%TO.C,J3*%
X96840000Y-149040000D03*
D42*
X99340000Y-149040000D03*
%TD*%
D21*
%TO.C,LED3*%
X70059750Y-84765743D03*
X72561162Y-84324676D03*
%TD*%
D37*
%TO.C,Q4*%
X67838588Y-76981066D03*
X70340000Y-76539999D03*
%TD*%
D21*
%TO.C,LED2*%
X129559750Y-84314257D03*
X132061162Y-84755323D03*
%TD*%
%TO.C,LED1*%
X106570000Y-66340295D03*
X107840000Y-68540000D03*
%TD*%
M02*
