%TF.GenerationSoftware,KiCad,Pcbnew,8.0.5*%
%TF.CreationDate,2024-11-23T08:17:22+09:00*%
%TF.ProjectId,mouse_v1,6d6f7573-655f-4763-912e-6b696361645f,rev?*%
%TF.SameCoordinates,Original*%
%TF.FileFunction,Soldermask,Bot*%
%TF.FilePolarity,Negative*%
%FSLAX46Y46*%
G04 Gerber Fmt 4.6, Leading zero omitted, Abs format (unit mm)*
G04 Created by KiCad (PCBNEW 8.0.5) date 2024-11-23 08:17:22*
%MOMM*%
%LPD*%
G01*
G04 APERTURE LIST*
G04 Aperture macros list*
%AMRoundRect*
0 Rectangle with rounded corners*
0 $1 Rounding radius*
0 $2 $3 $4 $5 $6 $7 $8 $9 X,Y pos of 4 corners*
0 Add a 4 corners polygon primitive as box body*
4,1,4,$2,$3,$4,$5,$6,$7,$8,$9,$2,$3,0*
0 Add four circle primitives for the rounded corners*
1,1,$1+$1,$2,$3*
1,1,$1+$1,$4,$5*
1,1,$1+$1,$6,$7*
1,1,$1+$1,$8,$9*
0 Add four rect primitives between the rounded corners*
20,1,$1+$1,$2,$3,$4,$5,0*
20,1,$1+$1,$4,$5,$6,$7,0*
20,1,$1+$1,$6,$7,$8,$9,0*
20,1,$1+$1,$8,$9,$2,$3,0*%
G04 Aperture macros list end*
%ADD10R,1.600000X1.600000*%
%ADD11C,1.600000*%
%ADD12C,1.217000*%
%ADD13R,1.920000X1.920000*%
%ADD14C,1.920000*%
%ADD15O,1.600000X1.600000*%
%ADD16C,1.337000*%
%ADD17C,1.524000*%
%ADD18C,1.300000*%
%ADD19C,2.000000*%
%ADD20RoundRect,0.102000X0.765000X-0.765000X0.765000X0.765000X-0.765000X0.765000X-0.765000X-0.765000X0*%
%ADD21C,1.734000*%
%ADD22C,1.995000*%
%ADD23R,1.995000X1.995000*%
%ADD24C,1.192000*%
%ADD25RoundRect,0.250000X-0.600000X-0.725000X0.600000X-0.725000X0.600000X0.725000X-0.600000X0.725000X0*%
%ADD26O,1.700000X1.950000*%
%ADD27RoundRect,0.250000X0.600000X0.725000X-0.600000X0.725000X-0.600000X-0.725000X0.600000X-0.725000X0*%
%ADD28RoundRect,0.250000X-0.600000X-0.750000X0.600000X-0.750000X0.600000X0.750000X-0.600000X0.750000X0*%
%ADD29O,1.700000X2.000000*%
G04 APERTURE END LIST*
D10*
%TO.C,C11*%
X139340000Y-82040000D03*
D11*
X141840000Y-82040000D03*
%TD*%
D12*
%TO.C,VR1*%
X115340000Y-150080000D03*
X115340000Y-147540000D03*
X115340000Y-145000000D03*
%TD*%
D13*
%TO.C,Q3*%
X110340000Y-148140000D03*
D14*
X110340000Y-145840000D03*
X110340000Y-143540000D03*
%TD*%
D10*
%TO.C,SW4*%
X91840000Y-150040000D03*
D15*
X84220000Y-150040000D03*
%TD*%
D16*
%TO.C,DS1*%
X97840000Y-86790000D03*
X99340000Y-86790000D03*
X100840000Y-86790000D03*
X102340000Y-86790000D03*
X103840000Y-86790000D03*
X105340000Y-86790000D03*
X106840000Y-86790000D03*
X108340000Y-86790000D03*
X109840000Y-86790000D03*
%TD*%
D17*
%TO.C,LS1*%
X113127500Y-133540000D03*
D18*
X106627500Y-133540000D03*
%TD*%
D10*
%TO.C,C8*%
X99340000Y-126540000D03*
D11*
X99340000Y-129040000D03*
%TD*%
D10*
%TO.C,C7*%
X91840000Y-125540000D03*
D11*
X91840000Y-128040000D03*
%TD*%
D19*
%TO.C,SW1*%
X117090000Y-120290000D03*
X110590000Y-120290000D03*
X117090000Y-115790000D03*
X110590000Y-115790000D03*
%TD*%
D20*
%TO.C,U1*%
X85940000Y-109040000D03*
D21*
X88480000Y-109040000D03*
X91020000Y-109040000D03*
X93560000Y-109040000D03*
X96100000Y-109040000D03*
X98640000Y-109040000D03*
X101180000Y-109040000D03*
X103720000Y-109040000D03*
X106260000Y-109040000D03*
X108800000Y-109040000D03*
X111340000Y-109040000D03*
X113880000Y-109040000D03*
X116420000Y-109040000D03*
X118960000Y-109040000D03*
X121500000Y-109040000D03*
D20*
X85940000Y-93800000D03*
D21*
X88480000Y-93800000D03*
X91020000Y-93800000D03*
X93560000Y-93800000D03*
X96100000Y-93800000D03*
X98640000Y-93800000D03*
X101180000Y-93800000D03*
X103720000Y-93800000D03*
X106260000Y-93800000D03*
X108800000Y-93800000D03*
X111340000Y-93800000D03*
X113880000Y-93800000D03*
X116420000Y-93800000D03*
X118960000Y-93800000D03*
X121500000Y-93800000D03*
%TD*%
D22*
%TO.C,U2*%
X125840000Y-114720000D03*
X130340000Y-115990000D03*
X125840000Y-117260000D03*
X130340000Y-118530000D03*
X125840000Y-119800000D03*
X130340000Y-121070000D03*
X125840000Y-122340000D03*
X130340000Y-123610000D03*
X125840000Y-124880000D03*
X130340000Y-126150000D03*
X125840000Y-127420000D03*
X130340000Y-128690000D03*
X125840000Y-129960000D03*
X130340000Y-131230000D03*
X125840000Y-132500000D03*
X130340000Y-133770000D03*
X125840000Y-135040000D03*
X130340000Y-136310000D03*
X125840000Y-137580000D03*
X130340000Y-138850000D03*
X125840000Y-140120000D03*
X130340000Y-141390000D03*
X125840000Y-142660000D03*
%TD*%
D23*
%TO.C,IC1*%
X84065000Y-127500000D03*
D22*
X84065000Y-130040000D03*
X84065000Y-132580000D03*
%TD*%
D19*
%TO.C,SW2*%
X107340000Y-120040000D03*
X100840000Y-120040000D03*
X107340000Y-115540000D03*
X100840000Y-115540000D03*
%TD*%
D10*
%TO.C,C4*%
X91840000Y-132540000D03*
D11*
X91840000Y-135040000D03*
%TD*%
D13*
%TO.C,Q2*%
X83040000Y-139540000D03*
D14*
X85340000Y-139540000D03*
X87640000Y-139540000D03*
%TD*%
D10*
%TO.C,C12*%
X80340000Y-85540000D03*
D11*
X80340000Y-83040000D03*
%TD*%
D10*
%TO.C,C2*%
X84340000Y-121222380D03*
D11*
X84340000Y-118722380D03*
%TD*%
D22*
%TO.C,U3*%
X76340000Y-142480000D03*
X71840000Y-141210000D03*
X76340000Y-139940000D03*
X71840000Y-138670000D03*
X76340000Y-137400000D03*
X71840000Y-136130000D03*
X76340000Y-134860000D03*
X71840000Y-133590000D03*
X76340000Y-132320000D03*
X71840000Y-131050000D03*
X76340000Y-129780000D03*
X71840000Y-128510000D03*
X76340000Y-127240000D03*
X71840000Y-125970000D03*
X76340000Y-124700000D03*
X71840000Y-123430000D03*
X76340000Y-122160000D03*
X71840000Y-120890000D03*
X76340000Y-119620000D03*
X71840000Y-118350000D03*
X76340000Y-117080000D03*
X71840000Y-115810000D03*
X76340000Y-114540000D03*
%TD*%
D24*
%TO.C,Q6*%
X113205000Y-62440148D03*
X114475000Y-64639853D03*
%TD*%
%TO.C,Q5*%
X86705000Y-64139852D03*
X87975000Y-61940147D03*
%TD*%
D25*
%TO.C,J2*%
X122840000Y-149540000D03*
D26*
X125340000Y-149540000D03*
X127840000Y-149540000D03*
X130340000Y-149540000D03*
X132840000Y-149540000D03*
X135340000Y-149540000D03*
%TD*%
D18*
%TO.C,LED4*%
X93840000Y-68040000D03*
X95110000Y-65840295D03*
%TD*%
D24*
%TO.C,Q7*%
X131426088Y-76098934D03*
X133927500Y-76540001D03*
%TD*%
D27*
%TO.C,J1*%
X79340000Y-149040000D03*
D26*
X76840000Y-149040000D03*
X74340000Y-149040000D03*
X71840000Y-149040000D03*
X69340000Y-149040000D03*
X66840000Y-149040000D03*
%TD*%
D28*
%TO.C,J3*%
X96840000Y-149040000D03*
D29*
X99340000Y-149040000D03*
%TD*%
D18*
%TO.C,LED3*%
X70059750Y-84765743D03*
X72561162Y-84324676D03*
%TD*%
D24*
%TO.C,Q4*%
X67838588Y-76981066D03*
X70340000Y-76539999D03*
%TD*%
D18*
%TO.C,LED2*%
X129559750Y-84314257D03*
X132061162Y-84755323D03*
%TD*%
%TO.C,LED1*%
X106570000Y-66340295D03*
X107840000Y-68540000D03*
%TD*%
M02*
