%TF.GenerationSoftware,KiCad,Pcbnew,8.0.5*%
%TF.CreationDate,2024-11-23T08:17:22+09:00*%
%TF.ProjectId,mouse_v1,6d6f7573-655f-4763-912e-6b696361645f,rev?*%
%TF.SameCoordinates,Original*%
%TF.FileFunction,Profile,NP*%
%FSLAX46Y46*%
G04 Gerber Fmt 4.6, Leading zero omitted, Abs format (unit mm)*
G04 Created by KiCad (PCBNEW 8.0.5) date 2024-11-23 08:17:22*
%MOMM*%
%LPD*%
G01*
G04 APERTURE LIST*
%TA.AperFunction,Profile*%
%ADD10C,0.200000*%
%TD*%
G04 APERTURE END LIST*
D10*
X117168908Y-62011696D02*
X118917218Y-61040414D01*
X143840000Y-143890164D02*
X134889998Y-143890164D01*
X135839999Y-117540001D02*
X135840000Y-116689838D01*
X68583548Y-72361115D02*
G75*
G02*
X67500260Y-72552128I-541648J-95485D01*
G01*
X134889999Y-107540001D02*
G75*
G02*
X134340000Y-106990001I-549999J1D01*
G01*
X68583548Y-72361115D02*
X68236252Y-70391498D01*
X117168908Y-62011696D02*
G75*
G02*
X116630600Y-61052400I-267108J480796D01*
G01*
X85045272Y-61050109D02*
X83296958Y-60078823D01*
X134889998Y-129540001D02*
X135840000Y-129540001D01*
X99840000Y-53540002D02*
X75840000Y-53540001D01*
X65840000Y-107540001D02*
X65840000Y-116689838D01*
X145840000Y-151540001D02*
X145840000Y-145878036D01*
X67152963Y-70582510D02*
X67500260Y-72552128D01*
X63290000Y-147890164D02*
G75*
G02*
X60190000Y-147890164I-1550000J0D01*
G01*
X60190000Y-147890164D02*
G75*
G02*
X63290000Y-147890164I1550000J0D01*
G01*
X57840000Y-93189838D02*
G75*
G02*
X55839962Y-91189839I0J2000038D01*
G01*
X55840000Y-73540000D02*
X55840000Y-91189839D01*
X125839999Y-53540001D02*
G75*
G02*
X145839999Y-73540001I1J-19999999D01*
G01*
X66790001Y-129540001D02*
G75*
G02*
X67340000Y-130089999I549999J1D01*
G01*
X66790002Y-107540001D02*
X65840000Y-107540001D01*
X135840001Y-119540001D02*
X134339999Y-118540001D01*
X134340000Y-130090000D02*
G75*
G02*
X134890000Y-129540001I0J550000D01*
G01*
X82762751Y-61040397D02*
X84511066Y-62011682D01*
X133443749Y-70391493D02*
X133096455Y-72361095D01*
X67340000Y-93739836D02*
X67340000Y-106990002D01*
X67340000Y-106990002D02*
G75*
G02*
X66790002Y-107540001I0J-549998D01*
G01*
X57839999Y-153540001D02*
X99840000Y-153540000D01*
X134889998Y-143890164D02*
G75*
G02*
X134340000Y-143340202I-549998J-36D01*
G01*
X134890036Y-93189838D02*
X143855520Y-93189838D01*
X145840000Y-91189731D02*
X145840000Y-73540001D01*
X82762751Y-61040397D02*
G75*
G02*
X83296988Y-60078769I267149J480797D01*
G01*
X118383011Y-60078841D02*
X116630601Y-61052401D01*
X134339999Y-118540001D02*
X135839999Y-117540001D01*
X145840000Y-91189731D02*
G75*
G02*
X143855520Y-93189838I-2000200J31D01*
G01*
X100840000Y-55040002D02*
X99840000Y-53540002D01*
X65840000Y-129540001D02*
X66790001Y-129540001D01*
X143840000Y-143890164D02*
G75*
G02*
X145839999Y-145878036I0J-2000036D01*
G01*
X57840000Y-93189838D02*
X66790001Y-93189838D01*
X135840000Y-107540001D02*
X134889999Y-107540001D01*
X118383011Y-60078841D02*
G75*
G02*
X118917187Y-61040360I267089J-480759D01*
G01*
X57839999Y-153540001D02*
G75*
G02*
X55839999Y-151540003I1J2000001D01*
G01*
X55840000Y-73540000D02*
G75*
G02*
X75840000Y-53540000I20000000J0D01*
G01*
X66790001Y-93189838D02*
G75*
G02*
X67340000Y-93739799I549999J38D01*
G01*
X118917188Y-61040361D02*
X118917218Y-61040414D01*
X135840000Y-116689838D02*
X135840000Y-107540001D01*
X141490000Y-147890164D02*
G75*
G02*
X138390000Y-147890164I-1550000J0D01*
G01*
X138390000Y-147890164D02*
G75*
G02*
X141490000Y-147890164I1550000J0D01*
G01*
X99840000Y-153540000D02*
X100840000Y-152040000D01*
X67340000Y-130089999D02*
X67340000Y-143340164D01*
X67152963Y-70582510D02*
G75*
G02*
X68236239Y-70391500I541637J95510D01*
G01*
X68236250Y-70391498D02*
X68236252Y-70391498D01*
X101840000Y-153540000D02*
X143840000Y-153540001D01*
X125839999Y-53540001D02*
X101840000Y-53540002D01*
X55840000Y-145890163D02*
G75*
G02*
X57839999Y-143890200I2000000J-37D01*
G01*
X67340001Y-118540001D02*
X65840001Y-119540001D01*
X65840000Y-116689838D02*
X65840001Y-117540001D01*
X63290000Y-89189838D02*
G75*
G02*
X60190000Y-89189838I-1550000J0D01*
G01*
X60190000Y-89189838D02*
G75*
G02*
X63290000Y-89189838I1550000J0D01*
G01*
X134340000Y-143340204D02*
X134340000Y-130090000D01*
X100840000Y-152040000D02*
X101840000Y-153540000D01*
X134179743Y-72552107D02*
G75*
G02*
X133096457Y-72361095I-541643J95507D01*
G01*
X65840001Y-117540001D02*
X67340001Y-118540001D01*
X134179743Y-72552107D02*
X134527719Y-70578643D01*
X85045272Y-61050109D02*
G75*
G02*
X84511077Y-62011663I-267072J-480791D01*
G01*
X133443749Y-70391493D02*
G75*
G02*
X134527718Y-70578643I541651J-95507D01*
G01*
X134340000Y-106990003D02*
X134340000Y-93739838D01*
X101840000Y-53540002D02*
X100840000Y-55040002D01*
X67340000Y-143340164D02*
G75*
G02*
X66789964Y-143890164I0J-550036D01*
G01*
X66790000Y-143890164D02*
X57839999Y-143890164D01*
X141490000Y-89189838D02*
G75*
G02*
X138390000Y-89189838I-1550000J0D01*
G01*
X138390000Y-89189838D02*
G75*
G02*
X141490000Y-89189838I1550000J0D01*
G01*
X55840000Y-145890163D02*
X55840000Y-151540003D01*
X134340000Y-93739838D02*
G75*
G02*
X134890038Y-93189838I0J550038D01*
G01*
X145840000Y-151540001D02*
G75*
G02*
X143840000Y-153540000I-2000000J1D01*
G01*
X65840001Y-119540001D02*
X65840000Y-129540001D01*
X135840000Y-129540001D02*
X135840001Y-119540001D01*
M02*
