M48
; DRILL file {KiCad 8.0.5} date 2024-11-23T08:18:30+0900
; FORMAT={-:-/ absolute / inch / decimal}
; #@! TF.CreationDate,2024-11-23T08:18:30+09:00
; #@! TF.GenerationSoftware,Kicad,Pcbnew,8.0.5
; #@! TF.FileFunction,Plated,1,2,PTH
FMAT,2
INCH
; #@! TA.AperFunction,Plated,PTH,ViaDrill
T1C0.0118
; #@! TA.AperFunction,Plated,PTH,ViaDrill
T2C0.0157
; #@! TA.AperFunction,Plated,PTH,ComponentDrill
T3C0.0256
; #@! TA.AperFunction,Plated,PTH,ComponentDrill
T4C0.0280
; #@! TA.AperFunction,Plated,PTH,ComponentDrill
T5C0.0300
; #@! TA.AperFunction,Plated,PTH,ComponentDrill
T6C0.0307
; #@! TA.AperFunction,Plated,PTH,ComponentDrill
T7C0.0315
; #@! TA.AperFunction,Plated,PTH,ComponentDrill
T8C0.0374
; #@! TA.AperFunction,Plated,PTH,ComponentDrill
T9C0.0394
; #@! TA.AperFunction,Plated,PTH,ComponentDrill
T10C0.0402
; #@! TA.AperFunction,Plated,PTH,ComponentDrill
T11C0.0433
; #@! TA.AperFunction,Plated,PTH,ComponentDrill
T12C0.0504
; #@! TA.AperFunction,Plated,PTH,ComponentDrill
T13C0.0524
%
G90
G05
T1
X-0.6878Y-1.6323
X2.7299Y-5.5331
X3.1236Y-5.0213
X3.1236Y-5.3764
X3.222Y-5.1984
X3.2614Y-3.8205
X3.3402Y-2.7604
X3.4583Y-5.2772
X3.6354Y-4.6079
X3.7408Y-3.5182
X3.7732Y-4.8638
X3.7732Y-5.0094
X3.8323Y-4.3913
X4.3638Y-3.5055
X4.3638Y-5.1
X4.4031Y-3.2496
X4.4228Y-4.3717
X4.4846Y-4.9248
X4.5016Y-5.2181
X4.5213Y-3.5646
X4.5409Y-4.8244
X4.5606Y-3.8205
X4.6394Y-2.7969
X4.6984Y-4.4898
X4.7378Y-4.6276
X4.7772Y-5.3559
X4.7772Y-5.5331
X4.7878Y-4.6776
X4.8678Y-5.1
X4.8953Y-3.8795
X4.8953Y-3.9386
X4.9346Y-3.1118
T2
X2.3543Y-3.3933
X2.4362Y-2.6957
X2.4591Y-5.9705
X2.5406Y-5.7232
X2.6264Y-2.4646
X2.6512Y-4.9622
X2.6921Y-4.4449
X2.7752Y-3.9409
X2.787Y-3.6776
X2.7894Y-4.2189
X2.889Y-2.3705
X2.9098Y-3.0197
X2.9457Y-3.9528
X2.9528Y-2.6976
X3.0197Y-3.1862
X3.0252Y-3.4776
X3.0531Y-2.8819
X3.0571Y-2.5346
X3.1638Y-4.2449
X3.1713Y-2.2823
X3.1886Y-3.6732
X3.1898Y-4.5559
X3.2083Y-3.0213
X3.2201Y-5.3945
X3.2764Y-5.7469
X3.3913Y-3.3535
X3.3992Y-2.8831
X3.4012Y-4.5382
X3.4071Y-3.9201
X3.4472Y-4.1752
X3.4531Y-2.7819
X3.478Y-5.3858
X3.5098Y-5.7331
X3.5291Y-2.2012
X3.5409Y-3.1583
X3.5472Y-2.6244
X3.5559Y-2.7831
X3.5898Y-3.2461
X3.5984Y-3.922
X3.6244Y-4.1512
X3.6256Y-4.3709
X3.6575Y-5.7429
X3.7374Y-4.4126
X3.763Y-5.3858
X3.8268Y-5.376
X3.8291Y-2.2024
X3.852Y-2.6787
X3.8579Y-4.4803
X3.878Y-4.8193
X3.8807Y-5.2087
X3.8819Y-2.3685
X3.8886Y-5.4476
X3.9008Y-3.2354
X3.9008Y-5.6819
X3.9138Y-4.4083
X3.9209Y-3.0402
X3.9646Y-2.5283
X4.0374Y-4.839
X4.0618Y-5.9972
X4.085Y-3.8421
X4.0925Y-3.2315
X4.0992Y-5.4276
X4.115Y-4.6913
X4.1409Y-5.198
X4.1496Y-4.8437
X4.1638Y-2.4594
X4.187Y-4.0366
X4.226Y-3.2496
X4.3205Y-2.165
X4.3795Y-3.0228
X4.4071Y-5.5535
X4.4307Y-3.4791
X4.4311Y-4.0618
X4.4382Y-3.911
X4.5177Y-2.9689
X4.5437Y-5.4894
X4.5685Y-3.2803
X4.5839Y-5.072
X4.6665Y-5.0642
X4.6783Y-5.8008
X4.6858Y-3.5748
X4.7339Y-2.2016
X4.761Y-2.6677
X4.7728Y-5.6724
X4.7858Y-4.4547
X4.7953Y-3.15
X4.8173Y-2.4441
X4.824Y-3.9858
X4.8567Y-2.8689
X4.9335Y-3.2862
X4.9606Y-3.4594
X4.998Y-3.9433
X5.0189Y-5.2083
X5.1031Y-2.4087
X5.1173Y-4.1472
X5.1882Y-2.2209
X5.2378Y-2.6516
X5.3673Y-3.4654
X5.4579Y-2.4846
X5.4618Y-3.0012
X5.5059Y-5.7213
X5.6067Y-2.865
X5.6646Y-3.5689
X5.6669Y-5.8496
T3
X2.6708Y-3.0308
X2.7693Y-3.0134
X3.4136Y-2.5252
X3.4636Y-2.4386
X4.4569Y-2.4583
X4.5069Y-2.5449
X5.1743Y-2.996
X5.2727Y-3.0134
T4
X4.5409Y-5.7087
X4.5409Y-5.8087
X4.5409Y-5.9087
T5
X4.4538Y-5.2575
T6
X3.852Y-3.4169
X3.911Y-3.4169
X3.9701Y-3.4169
X4.0291Y-3.4169
X4.0882Y-3.4169
X4.1472Y-3.4169
X4.2063Y-3.4169
X4.2654Y-3.4169
X4.3244Y-3.4169
T7
X2.7583Y-3.3372
X2.8567Y-3.3199
X3.163Y-3.2693
X3.163Y-3.3677
X3.3157Y-5.9071
X3.3205Y-4.6741
X3.3205Y-4.7725
X3.6157Y-4.9425
X3.6157Y-5.0409
X3.6157Y-5.2181
X3.6157Y-5.3165
X3.6157Y-5.9071
X3.6945Y-2.6787
X3.7445Y-2.5921
X3.911Y-4.9819
X3.911Y-5.0803
X4.1957Y-2.6118
X4.1979Y-5.2575
X4.2457Y-2.6984
X5.1008Y-3.3195
X5.1993Y-3.3368
X5.4858Y-3.2299
X5.5843Y-3.2299
T8
X2.6315Y-5.8677
X2.7299Y-5.8677
X2.8283Y-5.8677
X2.9268Y-5.8677
X3.0252Y-5.8677
X3.1236Y-5.8677
X4.8362Y-5.8874
X4.9346Y-5.8874
X5.0331Y-5.8874
X5.1315Y-5.8874
X5.2299Y-5.8874
X5.3283Y-5.8874
T9
X3.8126Y-5.8677
X3.911Y-5.8677
T10
X3.3835Y-3.6929
X3.3835Y-4.2929
X3.4835Y-3.6929
X3.4835Y-4.2929
X3.5835Y-3.6929
X3.5835Y-4.2929
X3.6835Y-3.6929
X3.6835Y-4.2929
X3.7835Y-3.6929
X3.7835Y-4.2929
X3.8835Y-3.6929
X3.8835Y-4.2929
X3.9835Y-3.6929
X3.9835Y-4.2929
X4.0835Y-3.6929
X4.0835Y-4.2929
X4.1835Y-3.6929
X4.1835Y-4.2929
X4.2835Y-3.6929
X4.2835Y-4.2929
X4.3835Y-3.6929
X4.3835Y-4.2929
X4.4835Y-3.6929
X4.4835Y-4.2929
X4.5835Y-3.6929
X4.5835Y-4.2929
X4.6835Y-3.6929
X4.6835Y-4.2929
X4.7835Y-3.6929
X4.7835Y-4.2929
T11
X3.9701Y-4.5488
X3.9701Y-4.726
X4.226Y-4.5488
X4.226Y-4.726
X4.3539Y-4.5587
X4.3539Y-4.7358
X4.6098Y-4.5587
X4.6098Y-4.7358
T12
X3.2693Y-5.4937
X3.3598Y-5.4937
X3.4504Y-5.4937
X4.3441Y-5.6512
X4.3441Y-5.7417
X4.3441Y-5.8323
T13
X2.8283Y-4.5594
X2.8283Y-4.6594
X2.8283Y-4.7594
X2.8283Y-4.8594
X2.8283Y-4.9594
X2.8283Y-5.0594
X2.8283Y-5.1594
X2.8283Y-5.2594
X2.8283Y-5.3594
X2.8283Y-5.4594
X2.8283Y-5.5594
X3.0055Y-4.5094
X3.0055Y-4.6094
X3.0055Y-4.7094
X3.0055Y-4.8094
X3.0055Y-4.9094
X3.0055Y-5.0094
X3.0055Y-5.1094
X3.0055Y-5.2094
X3.0055Y-5.3094
X3.0055Y-5.4094
X3.0055Y-5.5094
X3.0055Y-5.6094
X3.3096Y-5.0197
X3.3096Y-5.1197
X3.3096Y-5.2197
X4.9543Y-4.5165
X4.9543Y-4.6165
X4.9543Y-4.7165
X4.9543Y-4.8165
X4.9543Y-4.9165
X4.9543Y-5.0165
X4.9543Y-5.1165
X4.9543Y-5.2165
X4.9543Y-5.3165
X4.9543Y-5.4165
X4.9543Y-5.5165
X4.9543Y-5.6165
X5.1315Y-4.5665
X5.1315Y-4.6665
X5.1315Y-4.7665
X5.1315Y-4.8665
X5.1315Y-4.9665
X5.1315Y-5.0665
X5.1315Y-5.1665
X5.1315Y-5.2665
X5.1315Y-5.3665
X5.1315Y-5.4665
X5.1315Y-5.5665
M30
