0
SECTION
2
HEADER
9
$INSUNITS
70
4
9
$ACADVER
1
AC1014
9
$HANDSEED
5
FFFF
0
ENDSEC
0
SECTION
2
TABLES
0
TABLE
2
VPORT
5
8
100
AcDbSymbolTable
0
ENDTAB
0
TABLE
2
LTYPE
5
5
100
AcDbSymbolTable
0
LTYPE
5
14
100
AcDbSymbolTableRecord
100
AcDbLinetypeTableRecord
2
BYBLOCK
70
0
0
LTYPE
5
15
100
AcDbSymbolTableRecord
100
AcDbLinetypeTableRecord
2
BYLAYER
70
0
0
ENDTAB
0
TABLE
2
LAYER
5
2
100
AcDbSymbolTable
70
2
0
LAYER
5
50
100
AcDbSymbolTableRecord
100
AcDbLayerTableRecord
2
0
70
0
6
CONTINUOUS
0
ENDTAB
0
TABLE
2
STYLE
5
3
100
AcDbSymbolTable
70
1
0
STYLE
5
11
100
AcDbSymbolTableRecord
100
AcDbTextStyleTableRecord
2
STANDARD
70
0
0
ENDTAB
0
TABLE
2
VIEW
5
6
100
AcDbSymbolTable
70
0
0
ENDTAB
0
TABLE
2
UCS
5
7
100
AcDbSymbolTable
70
0
0
ENDTAB
0
TABLE
2
APPID
5
9
100
AcDbSymbolTable
70
2
0
APPID
5
12
100
AcDbSymbolTableRecord
100
AcDbRegAppTableRecord
2
ACAD
70
0
0
ENDTAB
0
TABLE
2
DIMSTYLE
5
A
100
AcDbSymbolTable
70
1
0
ENDTAB
0
TABLE
2
BLOCK_RECORD
5
1
100
AcDbSymbolTable
70
1
0
BLOCK_RECORD
5
1F
100
AcDbSymbolTableRecord
100
AcDbBlockTableRecord
2
*MODEL_SPACE
0
BLOCK_RECORD
5
1B
100
AcDbSymbolTableRecord
100
AcDbBlockTableRecord
2
*PAPER_SPACE
0
ENDTAB
0
ENDSEC
0
SECTION
2
BLOCKS
0
BLOCK
5
20
100
AcDbEntity
100
AcDbBlockBegin
2
*MODEL_SPACE
0
ENDBLK
5
21
100
AcDbEntity
100
AcDbBlockEnd
0
BLOCK
5
1C
100
AcDbEntity
100
AcDbBlockBegin
2
*PAPER_SPACE
0
ENDBLK
5
1D
100
AcDbEntity
100
AcDbBlockEnd
0
ENDSEC
0
SECTION
2
ENTITIES
0
LWPOLYLINE
5
100
100
AcDbEntity
8
0
100
AcDbPolyline
90
4
70
1
43
0.0
10
18.077250513823422
20
57.499605470986175
42
0.99999999999999989
10
17.543043289526938
20
58.461178474719901
10
15.794728737283862
20
57.48989261236261
42
0.99999999999999989
10
16.32893596158036
20
56.528319608628919
0
LWPOLYLINE
5
101
100
AcDbEntity
8
0
100
AcDbPolyline
90
4
70
1
43
0.0
10
-33.339740499183598
20
45.987874030989744
42
0.9999999925494194
10
-32.256451970870167
20
46.178887026423382
10
-32.603748326204013
20
48.148502532447765
42
0.99999999999999989
10
-33.687036854517451
20
47.957489537014141
0
LWPOLYLINE
5
102
100
AcDbEntity
8
0
100
AcDbPolyline
90
4
70
1
43
0.0
10
32.256451970870174
20
46.178887026423361
42
0.99999999999999989
10
33.339740499183598
20
45.987874030989779
10
33.687036854517451
20
47.957489537014141
42
0.9999999925494194
10
32.603748326204013
20
48.148502532447779
0
LWPOLYLINE
5
103
100
AcDbEntity
8
0
100
AcDbPolyline
90
4
70
1
43
0.0
10
-16.328935961580356
20
56.528319608628919
42
0.99999999999999989
10
-15.794728737283858
20
57.48989261236261
10
-17.543043289526938
20
58.46117847471988
42
0.99999999999999989
10
-18.077250513823422
20
57.499605470986168
0
LWPOLYLINE
5
104
100
AcDbEntity
8
0
100
AcDbPolyline
90
50
70
1
43
0.0
10
34.999999217689037
20
0.99999997764825821
10
35
20
1.8501633230521808
10
35
20
11.000000163912773
10
34.050000499188904
20
11.000000163912773
42
-2.4142135623730949
10
33.5000004991889
20
11.550000163912774
10
33.5000004991889
20
24.800163323052182
42
-2.4142135623730949
10
34.050000499188904
20
25.350163323052183
10
43.000000000000007
20
25.350163323052179
42
0.41421356237309176
10
45
20
27.350163323052183
10
45
20
45.000000000000007
42
0.41421358010366954
10
24.999998789280657
20
64.999999999999972
10
0.99999997764825821
20
64.999998547136784
10
0
20
63.499998580664396
10
-0.99999997764825821
20
64.999998547136784
10
-25.000000000000007
20
65
42
0.41421356237309503
10
-45
20
45.000000000000007
10
-45
20
27.350163323052186
42
0.41421356237309048
10
-43.000000000000007
20
25.35016332305219
10
-34.050000499188904
20
25.350163323052186
42
-2.4142135623730949
10
-33.5000004991889
20
24.800163323052185
10
-33.5000004991889
20
11.550000163912774
42
-2.4142135623730949
10
-34.050000499188904
20
11.000000163912773
10
-35
20
11.000000163912773
10
-35
20
1.8501633230521719
10
-34.999999217689037
20
0.99999997764825821
10
-33.49999925121665
20
0
10
-34.999999217689037
20
-0.99999997764825821
10
-35
20
-11.000000163912773
10
-34.050000499188904
20
-11.000000163912773
42
-2.4142135623730949
10
-33.5000004991889
20
-11.550000163912774
10
-33.5000004991889
20
-24.800163323052185
42
-2.4142135623730949
10
-34.050000499188904
20
-25.350163323052186
10
-43
20
-25.350163323052186
42
0.41421356237309176
10
-45
20
-27.350163323052186
10
-45
20
-33
42
0.4142135678286557
10
-42.999999962747076
20
-35.000000000048757
10
-0.99999997764825821
20
-34.999999217689037
10
1.0834266817028038e-09
20
-33.499999249969342
10
0.99999997484531811
20
-34.999999210612181
10
42.999999962747104
20
-34.999999992923144
42
0.41421356782865376
10
45.000000000000007
20
-32.999999992923122
10
45
20
-27.350163323052183
42
0.41421356237309048
10
43.000000000000014
20
-25.350163323052179
10
34.05000049918889
20
-25.350163323052186
42
-2.4142135623730812
10
33.5000004991889
20
-24.800163323052182
10
33.5000004991889
20
-11.550000163912774
42
-2.4142135623730949
10
34.050000499188904
20
-11.000000163912773
10
35
20
-11.000000163912773
10
35.000000521540642
20
-1.0000000149011612
10
33.49999925121665
20
0
0
CIRCLE
5
105
100
AcDbEntity
8
0
100
AcDbCircle
10
-39.100000499188909
20
-29.350163323052186
30
0
40
1.549999999999998
210
0
220
0
230
1
0
CIRCLE
5
106
100
AcDbEntity
8
0
100
AcDbCircle
10
39.100000499188909
20
-29.350163323052186
30
0
40
1.5500000000000025
210
0
220
0
230
1
0
CIRCLE
5
107
100
AcDbEntity
8
0
100
AcDbCircle
10
-39.100000499188909
20
29.350163323052186
30
0
40
1.549999999999998
210
0
220
0
230
1
0
CIRCLE
5
108
100
AcDbEntity
8
0
100
AcDbCircle
10
39.100000499188909
20
29.350163323052186
30
0
40
1.5500000000000025
210
0
220
0
230
1
0
ENDSEC
0
SECTION
2
OBJECTS
0
DICTIONARY
5
C
100
AcDbDictionary
3
ACAD_GROUP
350
D
3
ACAD_MLINESTYLE
350
17
0
DICTIONARY
5
D
100
AcDbDictionary
0
DICTIONARY
5
1A
330
C
100
AcDbDictionary
0
DICTIONARY
5
17
100
AcDbDictionary
0
ENDSEC
0
EOF
